<?xml version="1.0" encoding="utf-8"?>
<!-- Generator: Adobe Illustrator 16.0.0, SVG Export Plug-In . SVG Version: 6.00 Build 0)  -->
<!DOCTYPE svg PUBLIC "-//W3C//DTD SVG 1.1//EN" "http://www.w3.org/Graphics/SVG/1.1/DTD/svg11.dtd">
<svg version="1.1" id="Layer_1" xmlns="http://www.w3.org/2000/svg" xmlns:xlink="http://www.w3.org/1999/xlink" x="0px" y="0px"
	 width="512px" height="512px" viewBox="0 0 512 512" enable-background="new 0 0 512 512" xml:space="preserve">
<g id="_x31_5_card_x2C__pass_x2C__business_x2C__job_x2C__work_x2C__office_1_">
	<g>
		<g>
			<path fill="#D7E9FF" d="M483.846,196.041H28.155c-13.194,0-23.983,10.793-23.983,23.984v263.82
				c0,13.194,10.79,23.983,23.983,23.983h455.691c13.193,0,23.982-10.789,23.982-23.983v-263.82
				C507.828,206.834,497.039,196.041,483.846,196.041z M299.971,228.019H212.03c-4.419,0-7.995-3.579-7.995-7.994
				s3.576-7.995,7.995-7.995h87.941c4.418,0,7.994,3.58,7.994,7.995S304.389,228.019,299.971,228.019z"/>
		</g>
	</g>
	<g>
		<g>
			<g>
				<path fill="#FFFFFF" d="M20.161,483.845v-263.82c0-13.19,10.789-23.984,23.983-23.984H28.155
					c-13.194,0-23.983,10.793-23.983,23.984v263.82c0,13.194,10.79,23.983,23.983,23.983h15.989
					C30.95,507.828,20.161,497.039,20.161,483.845z"/>
			</g>
		</g>
	</g>
	<g>
		<g>
			<g>
				<path fill="#94C1FF" d="M491.84,220.024v263.82c0,13.194-10.789,23.983-23.984,23.983h15.99
					c13.193,0,23.982-10.789,23.982-23.983v-263.82c0-13.194-10.789-23.984-23.982-23.984h-15.99
					C481.051,196.041,491.84,206.83,491.84,220.024z"/>
			</g>
		</g>
	</g>
	<g>
		<g>
			<rect x="52.139" y="275.986" fill="#5C9EFF" width="127.905" height="127.913"/>
		</g>
	</g>
	<g>
		<g>
			<path fill="#94C1FF" d="M154.913,381.055c-5.699-2.123-22.836-7.611-22.836-10.664v-6.465h-31.979v6.465
				c0,3.053-17.145,8.541-22.844,10.664c-6.09,2.288-9.135,4.568-9.135,10.657c0,6.098,0,12.188,0,12.188h95.935
				c0,0,0-6.09,0-12.188C164.055,385.623,161.002,383.343,154.913,381.055z"/>
		</g>
	</g>
	<g>
		<g>
			<path fill="#D7E9FF" d="M93.244,381.055c5.699-2.123,22.844-7.611,22.844-10.664v-6.465h-15.989v6.465
				c0,3.053-17.145,8.541-22.844,10.664c-6.09,2.288-9.135,4.568-9.135,10.657c0,6.098,0,12.188,0,12.188h15.989
				c0,0,0-6.09,0-12.188C84.109,385.623,87.154,383.343,93.244,381.055z"/>
		</g>
	</g>
	<g>
		<g>
			<path fill="#5C9EFF" d="M138.931,381.055c-5.699-2.123-22.844-7.611-22.844-10.664v-6.465h15.989v6.465
				c0,3.053,17.145,8.541,22.844,10.664c6.089,2.288,9.134,4.568,9.134,10.657c0,6.098,0,12.188,0,12.188h-15.989
				c0,0,0-6.09,0-12.188C148.065,385.623,145.021,383.343,138.931,381.055z"/>
		</g>
	</g>
	<g>
		<g>
			<path fill="#94C1FF" d="M483.846,439.875c0,24.288-19.691,43.97-43.971,43.97c-24.289,0-43.971-19.682-43.971-43.97
				c0-24.281,19.682-43.971,43.971-43.971C464.154,395.904,483.846,415.594,483.846,439.875z"/>
		</g>
	</g>
	<g>
		<g>
			<polygon fill="#D7E9FF" points="275.986,4.171 236.013,44.144 236.013,122.759 275.986,122.759 			"/>
		</g>
	</g>
	<g>
		<g>
			<rect x="275.986" y="4.171" fill="#D7E9FF" width="233.84" height="39.973"/>
		</g>
	</g>
	<g>
		<g>
			<rect x="228.019" y="124.09" fill="#5C9EFF" width="55.961" height="87.94"/>
		</g>
	</g>
	<g>
		<g>
			<rect x="228.019" y="124.09" fill="#94C1FF" width="7.994" height="87.94"/>
		</g>
	</g>
	<g>
		<g>
			<rect x="275.986" y="124.09" fill="#2287FF" width="7.994" height="87.94"/>
		</g>
	</g>
	<g>
		<g>
			<rect x="275.986" y="4.171" fill="#94C1FF" width="7.994" height="39.973"/>
		</g>
	</g>
	<g>
		<g>
			<rect x="236.013" y="116.099" fill="#94C1FF" width="39.965" height="7.991"/>
		</g>
	</g>
	<g>
		<g>
			<rect x="220.024" y="196.041" fill="#94C1FF" width="7.995" height="15.989"/>
		</g>
	</g>
	<g>
		<g>
			<rect x="283.98" y="196.041" fill="#94C1FF" width="7.994" height="15.989"/>
		</g>
	</g>
	<g>
		<g>
			<path fill="#FFFFFF" d="M435.877,419.889c0,4.395-3.598,7.994-7.994,7.994c-4.395,0-7.994-3.6-7.994-7.994
				c0-4.396,3.6-7.995,7.994-7.995C432.279,411.894,435.877,415.492,435.877,419.889z"/>
		</g>
	</g>
	<g>
		<g>
			<polygon fill="#D7E9FF" points="478.021,462.031 450.984,482.424 418.029,477.708 455.863,439.875 			"/>
		</g>
	</g>
	<g>
		<g>
			<polygon fill="#D7E9FF" points="435.877,459.861 418.029,477.708 401.814,461.945 419.889,443.872 			"/>
		</g>
	</g>
	<g>
		<g>
			<path fill="#D7E9FF" d="M144.068,337.601c0,17.87-17.339,34.32-27.988,34.32c-10.642,0-27.973-16.45-27.973-34.32
				c0-17.863,12.523-29.636,27.973-29.636S144.068,319.737,144.068,337.601z"/>
		</g>
	</g>
	<g>
		<g>
			<path fill="#94C1FF" d="M116.08,307.965c-1.366,0-2.678,0.203-3.997,0.382c13.545,1.866,23.991,12.976,23.991,29.254
				c0,15.771-13.499,30.401-23.991,33.626c1.397,0.429,2.748,0.694,3.997,0.694c10.649,0,27.988-16.45,27.988-34.32
				C144.068,319.737,131.53,307.965,116.08,307.965z"/>
		</g>
	</g>
	<g>
		<g>
			<path fill="#FFFFFF" d="M96.101,337.601c0-16.278,10.438-27.388,23.976-29.254c-1.319-0.179-2.631-0.382-3.997-0.382
				c-15.45,0-27.973,11.772-27.973,29.636c0,17.87,17.332,34.32,27.973,34.32c1.249,0,2.607-0.266,3.997-0.694
				C109.592,368.002,96.101,353.371,96.101,337.601z"/>
		</g>
	</g>
	<g id="_x31_5_card_x2C__pass_x2C__business_x2C__job_x2C__work_x2C__office">
		<g>
			<g>
				<path fill="#116FFF" d="M52.38,471.853c-2.209,0-4.036-1.788-4.036-3.997s1.749-3.997,3.95-3.997h0.086
					c2.202,0,3.998,1.788,3.998,3.997S54.583,471.853,52.38,471.853z"/>
			</g>
		</g>
		<g>
			<g>
				<path fill="#116FFF" d="M68.37,471.853c-2.209,0-4.036-1.788-4.036-3.997s1.749-3.997,3.95-3.997h0.086
					c2.202,0,3.997,1.788,3.997,3.997S70.571,471.853,68.37,471.853z"/>
			</g>
		</g>
		<g>
			<g>
				<path fill="#116FFF" d="M84.359,471.853c-2.209,0-4.036-1.788-4.036-3.997s1.749-3.997,3.95-3.997h0.086
					c2.202,0,3.997,1.788,3.997,3.997S86.561,471.853,84.359,471.853z"/>
			</g>
		</g>
		<g>
			<g>
				<path fill="#116FFF" d="M100.348,471.853c-2.209,0-4.036-1.788-4.036-3.997s1.749-3.997,3.95-3.997h0.086
					c2.201,0,3.997,1.788,3.997,3.997S102.549,471.853,100.348,471.853z"/>
			</g>
		</g>
		<g>
			<g>
				<path fill="#116FFF" d="M116.337,471.853c-2.21,0-4.037-1.788-4.037-3.997s1.749-3.997,3.951-3.997h0.086
					c2.201,0,3.997,1.788,3.997,3.997S118.539,471.853,116.337,471.853z"/>
			</g>
		</g>
		<g>
			<g>
				<path fill="#116FFF" d="M132.326,471.853c-2.209,0-4.037-1.788-4.037-3.997s1.749-3.997,3.951-3.997h0.086
					c2.202,0,3.998,1.788,3.998,3.997S134.528,471.853,132.326,471.853z"/>
			</g>
		</g>
		<g>
			<g>
				<path fill="#116FFF" d="M148.315,471.853c-2.209,0-4.037-1.788-4.037-3.997s1.749-3.997,3.951-3.997h0.086
					c2.202,0,3.997,1.788,3.997,3.997S150.517,471.853,148.315,471.853z"/>
			</g>
		</g>
		<g>
			<g>
				<path fill="#116FFF" d="M164.304,471.853c-2.209,0-4.036-1.788-4.036-3.997s1.749-3.997,3.95-3.997h0.086
					c2.202,0,3.998,1.788,3.998,3.997S166.506,471.853,164.304,471.853z"/>
			</g>
		</g>
		<g>
			<g>
				<path fill="#116FFF" d="M180.293,471.853c-2.209,0-4.036-1.788-4.036-3.997s1.749-3.997,3.95-3.997h0.086
					c2.202,0,3.997,1.788,3.997,3.997S182.495,471.853,180.293,471.853z"/>
			</g>
		</g>
		<g>
			<g>
				<path fill="#116FFF" d="M292.217,24.158c-2.209,0-4.035-1.788-4.035-3.998c0-2.209,1.748-3.997,3.949-3.997h0.086
					c2.203,0,3.998,1.788,3.998,3.997C296.215,22.37,294.42,24.158,292.217,24.158z"/>
			</g>
		</g>
		<g>
			<g>
				<path fill="#116FFF" d="M324.195,24.158c-2.209,0-4.035-1.788-4.035-3.998c0-2.209,1.748-3.997,3.949-3.997h0.086
					c2.201,0,3.998,1.788,3.998,3.997C328.193,22.37,326.396,24.158,324.195,24.158z"/>
			</g>
		</g>
		<g>
			<g>
				<path fill="#116FFF" d="M308.207,32.152c-2.209,0-4.037-1.788-4.037-3.997c0-2.21,1.75-3.998,3.951-3.998h0.086
					c2.201,0,3.996,1.788,3.996,3.998C312.203,30.364,310.408,32.152,308.207,32.152z"/>
			</g>
		</g>
		<g>
			<g>
				<path fill="#116FFF" d="M340.17,32.152c-2.211,0-4.037-1.788-4.037-3.997c0-2.21,1.748-3.998,3.951-3.998h0.086
					c2.201,0,3.996,1.788,3.996,3.998C344.166,30.364,342.371,32.152,340.17,32.152z"/>
			</g>
		</g>
		<g>
			<g>
				<path fill="#116FFF" d="M356.158,24.158c-2.209,0-4.037-1.788-4.037-3.998c0-2.209,1.75-3.997,3.951-3.997h0.086
					c2.201,0,3.998,1.788,3.998,3.997C360.156,22.37,358.359,24.158,356.158,24.158z"/>
			</g>
		</g>
		<g>
			<g>
				<path fill="#116FFF" d="M260.238,112.09c-2.209,0-4.036-1.788-4.036-3.997s1.749-3.997,3.952-3.997h0.084
					c2.203,0,3.998,1.788,3.998,3.997S262.441,112.09,260.238,112.09z"/>
			</g>
		</g>
		<g>
			<g>
				<path fill="#116FFF" d="M260.238,80.12c-2.209,0-4.036-1.788-4.036-3.998c0-2.209,1.749-3.997,3.952-3.997h0.084
					c2.203,0,3.998,1.788,3.998,3.997C264.236,78.332,262.441,80.12,260.238,80.12z"/>
			</g>
		</g>
		<g>
			<g>
				<path fill="#116FFF" d="M252.245,96.108c-2.209,0-4.036-1.788-4.036-3.997s1.749-3.997,3.95-3.997h0.086
					c2.202,0,3.997,1.788,3.997,3.997S254.446,96.108,252.245,96.108z"/>
			</g>
		</g>
		<g>
			<g>
				<path fill="#116FFF" d="M252.245,64.138c-2.209,0-4.036-1.788-4.036-3.997s1.749-3.998,3.95-3.998h0.086
					c2.202,0,3.997,1.788,3.997,3.998S254.446,64.138,252.245,64.138z"/>
			</g>
		</g>
		<g>
			<g>
				<path fill="#116FFF" d="M260.238,48.149c-2.209,0-4.036-1.788-4.036-3.998s1.749-3.998,3.952-3.998h0.084
					c2.203,0,3.998,1.788,3.998,3.998S262.441,48.149,260.238,48.149z"/>
			</g>
		</g>
		<g>
			<g>
				<path fill="#116FFF" d="M372.146,32.152c-2.209,0-4.035-1.788-4.035-3.997c0-2.21,1.748-3.998,3.951-3.998h0.084
					c2.203,0,3.998,1.788,3.998,3.998C376.145,30.364,374.35,32.152,372.146,32.152z"/>
			</g>
		</g>
		<g>
			<g>
				<path fill="#116FFF" d="M388.137,24.158c-2.209,0-4.037-1.788-4.037-3.998c0-2.209,1.75-3.997,3.951-3.997h0.086
					c2.201,0,3.998,1.788,3.998,3.997C392.135,22.37,390.338,24.158,388.137,24.158z"/>
			</g>
		</g>
		<g>
			<g>
				<path fill="#116FFF" d="M404.109,32.152c-2.209,0-4.035-1.788-4.035-3.997c0-2.21,1.748-3.998,3.949-3.998h0.086
					c2.203,0,3.998,1.788,3.998,3.998C408.107,30.364,406.312,32.152,404.109,32.152z"/>
			</g>
		</g>
		<g>
			<g>
				<path fill="#116FFF" d="M420.1,24.158c-2.209,0-4.037-1.788-4.037-3.998c0-2.209,1.75-3.997,3.951-3.997h0.086
					c2.201,0,3.996,1.788,3.996,3.997C424.096,22.37,422.301,24.158,420.1,24.158z"/>
			</g>
		</g>
		<g>
			<g>
				<path fill="#116FFF" d="M436.088,32.152c-2.209,0-4.035-1.788-4.035-3.997c0-2.21,1.748-3.998,3.949-3.998h0.086
					c2.201,0,3.998,1.788,3.998,3.998C440.086,30.364,438.289,32.152,436.088,32.152z"/>
			</g>
		</g>
		<g>
			<g>
				<path fill="#116FFF" d="M452.078,24.158c-2.211,0-4.037-1.788-4.037-3.998c0-2.209,1.748-3.997,3.951-3.997h0.086
					c2.201,0,3.996,1.788,3.996,3.997C456.074,22.37,454.279,24.158,452.078,24.158z"/>
			</g>
		</g>
		<g>
			<g>
				<path fill="#116FFF" d="M468.051,32.152c-2.209,0-4.037-1.788-4.037-3.997c0-2.21,1.75-3.998,3.951-3.998h0.086
					c2.201,0,3.998,1.788,3.998,3.998C472.049,30.364,470.252,32.152,468.051,32.152z"/>
			</g>
		</g>
		<g>
			<g>
				<path fill="#116FFF" d="M484.039,24.158c-2.209,0-4.035-1.788-4.035-3.998c0-2.209,1.748-3.997,3.949-3.997h0.086
					c2.203,0,3.998,1.788,3.998,3.997C488.037,22.37,486.242,24.158,484.039,24.158z"/>
			</g>
		</g>
		<g>
			<g>
				<path fill="#116FFF" d="M500.029,32.152c-2.209,0-4.037-1.788-4.037-3.997c0-2.21,1.75-3.998,3.951-3.998h0.086
					c2.201,0,3.998,1.788,3.998,3.998C504.027,30.364,502.23,32.152,500.029,32.152z"/>
			</g>
		</g>
		<g>
			<g>
				<path fill="#116FFF" d="M483.846,511.826H28.155c-15.427,0-27.98-12.555-27.98-27.981v-263.82
					c0-15.427,12.554-27.981,27.98-27.981c2.21,0,3.998,1.788,3.998,3.997s-1.788,3.998-3.998,3.998
					c-11.023,0-19.986,8.966-19.986,19.986v263.82c0,11.023,8.963,19.986,19.986,19.986h455.691
					c11.023,0,19.986-8.963,19.986-19.986v-263.82c0-11.02-8.963-19.986-19.986-19.986c-2.211,0-3.998-1.788-3.998-3.998
					s1.787-3.997,3.998-3.997c15.426,0,27.98,12.554,27.98,27.981v263.82C511.826,499.271,499.271,511.826,483.846,511.826z"/>
			</g>
		</g>
		<g>
			<g>
				<path fill="#116FFF" d="M299.971,232.016H212.03c-6.613,0-11.992-5.379-11.992-11.992c0-6.613,5.379-11.992,11.992-11.992
					c2.209,0,3.997,1.788,3.997,3.998s-1.788,3.998-3.997,3.998c-2.202,0-3.997,1.792-3.997,3.997c0,2.205,1.795,3.997,3.997,3.997
					h87.941c2.201,0,3.996-1.792,3.996-3.997c0-2.206-1.795-3.997-3.996-3.997c-2.211,0-3.998-1.788-3.998-3.998
					s1.787-3.998,3.998-3.998c6.611,0,11.99,5.379,11.99,11.992C311.961,226.637,306.582,232.016,299.971,232.016z"/>
			</g>
		</g>
		<g>
			<g>
				<path fill="#116FFF" d="M283.98,216.027h-55.961c-2.21,0-3.998-1.788-3.998-3.998v-87.94c0-2.21,1.788-3.998,3.998-3.998h55.961
					c2.209,0,3.998,1.788,3.998,3.998v87.94C287.979,214.239,286.189,216.027,283.98,216.027z M232.016,208.032h47.968v-79.945
					h-47.968V208.032z"/>
			</g>
		</g>
		<g>
			<g>
				<path fill="#116FFF" d="M228.019,220.024c-2.21,0-3.998-1.788-3.998-3.997v-3.998c0-2.209,1.788-3.998,3.998-3.998
					c2.209,0,3.997,1.788,3.997,3.998v3.998C232.016,218.236,230.228,220.024,228.019,220.024z"/>
			</g>
		</g>
		<g>
			<g>
				<path fill="#116FFF" d="M244.008,220.024c-2.21,0-3.998-1.788-3.998-3.997v-3.998c0-2.209,1.788-3.998,3.998-3.998
					c2.209,0,3.997,1.788,3.997,3.998v3.998C248.005,218.236,246.217,220.024,244.008,220.024z"/>
			</g>
		</g>
		<g>
			<g>
				<path fill="#116FFF" d="M267.992,220.024c-2.209,0-3.998-1.788-3.998-3.997v-3.998c0-2.209,1.789-3.998,3.998-3.998
					s3.996,1.788,3.996,3.998v3.998C271.988,218.236,270.201,220.024,267.992,220.024z"/>
			</g>
		</g>
		<g>
			<g>
				<path fill="#116FFF" d="M283.98,220.024c-2.209,0-3.996-1.788-3.996-3.997v-3.998c0-2.209,1.787-3.998,3.996-3.998
					s3.998,1.788,3.998,3.998v3.998C287.979,218.236,286.189,220.024,283.98,220.024z"/>
			</g>
		</g>
		<g>
			<g>
				<path fill="#116FFF" d="M212.03,200.038H28.155c-2.209,0-3.997-1.788-3.997-3.998s1.788-3.997,3.997-3.997H212.03
					c2.209,0,3.997,1.788,3.997,3.997S214.239,200.038,212.03,200.038z"/>
			</g>
		</g>
		<g>
			<g>
				<path fill="#116FFF" d="M483.846,200.038H299.971c-2.211,0-3.998-1.788-3.998-3.998s1.787-3.997,3.998-3.997h183.875
					c2.209,0,3.996,1.788,3.996,3.997S486.055,200.038,483.846,200.038z"/>
			</g>
		</g>
		<g>
			<g>
				<path fill="#116FFF" d="M283.98,160.065h-55.961c-2.21,0-3.998-1.788-3.998-3.998s1.788-3.998,3.998-3.998h55.961
					c2.209,0,3.998,1.788,3.998,3.998S286.189,160.065,283.98,160.065z"/>
			</g>
		</g>
		<g>
			<g>
				<path fill="#116FFF" d="M267.992,144.076h-23.984c-2.21,0-3.998-1.788-3.998-3.997c0-2.21,1.788-3.998,3.998-3.998h23.984
					c2.209,0,3.996,1.788,3.996,3.998C271.988,142.288,270.201,144.076,267.992,144.076z"/>
			</g>
		</g>
		<g>
			<g>
				<path fill="#116FFF" d="M236.013,112.098c-2.209,0-3.997-1.788-3.997-3.997V44.144c0-2.209,1.788-3.998,3.997-3.998
					c2.21,0,3.998,1.788,3.998,3.998v63.957C240.011,110.31,238.223,112.098,236.013,112.098z"/>
			</g>
		</g>
		<g>
			<g>
				<path fill="#116FFF" d="M275.986,112.098c-2.209,0-3.998-1.788-3.998-3.997V44.144c0-2.209,1.789-3.998,3.998-3.998
					s3.998,1.788,3.998,3.998v63.957C279.984,110.31,278.195,112.098,275.986,112.098z"/>
			</g>
		</g>
		<g>
			<g>
				<path fill="#116FFF" d="M507.828,8.168H291.975c-2.209,0-3.996-1.788-3.996-3.997s1.787-3.998,3.996-3.998h215.854
					c2.209,0,3.998,1.788,3.998,3.998S510.037,8.168,507.828,8.168z"/>
			</g>
		</g>
		<g>
			<g>
				<path fill="#116FFF" d="M507.828,48.142H291.975c-2.209,0-3.996-1.788-3.996-3.998s1.787-3.998,3.996-3.998h215.854
					c2.209,0,3.998,1.788,3.998,3.998S510.037,48.142,507.828,48.142z"/>
			</g>
		</g>
		<g>
			<g>
				<path fill="#116FFF" d="M275.986,48.142c-2.209,0-3.998-1.788-3.998-3.998V4.171c0-2.209,1.789-3.998,3.998-3.998
					s3.998,1.788,3.998,3.998v39.973C279.984,46.354,278.195,48.142,275.986,48.142z"/>
			</g>
		</g>
		<g>
			<g>
				<path fill="#116FFF" d="M236.013,48.142c-1.022,0-2.045-0.391-2.826-1.171c-1.562-1.561-1.562-4.091,0-5.652L273.16,1.345
					c1.561-1.561,4.092-1.561,5.652,0c1.561,1.562,1.561,4.091,0,5.653L238.839,46.97C238.059,47.751,237.036,48.142,236.013,48.142
					z"/>
			</g>
		</g>
		<g>
			<g>
				<path fill="#116FFF" d="M180.043,407.896H52.139c-2.209,0-3.998-1.788-3.998-3.997V275.986c0-2.209,1.788-3.997,3.998-3.997
					h127.905c2.21,0,3.998,1.788,3.998,3.997v127.913C184.041,406.108,182.253,407.896,180.043,407.896z M56.136,399.902h119.91
					V279.983H56.136V399.902z"/>
			</g>
		</g>
		<g>
			<g>
				<path fill="#116FFF" d="M451.867,295.973H220.024c-2.209,0-3.998-1.788-3.998-3.997c0-2.21,1.788-3.997,3.998-3.997h231.843
					c2.209,0,3.996,1.787,3.996,3.997C455.863,294.185,454.076,295.973,451.867,295.973z"/>
			</g>
		</g>
		<g>
			<g>
				<path fill="#116FFF" d="M451.867,327.951H220.024c-2.209,0-3.998-1.788-3.998-3.998c0-2.209,1.788-3.997,3.998-3.997h231.843
					c2.209,0,3.996,1.788,3.996,3.997C455.863,326.163,454.076,327.951,451.867,327.951z"/>
			</g>
		</g>
		<g>
			<g>
				<path fill="#116FFF" d="M451.867,359.929H220.024c-2.209,0-3.998-1.788-3.998-3.997s1.788-3.997,3.998-3.997h231.843
					c2.209,0,3.996,1.788,3.996,3.997S454.076,359.929,451.867,359.929z"/>
			</g>
		</g>
		<g>
			<g>
				<path fill="#116FFF" d="M347.938,391.907H220.024c-2.209,0-3.998-1.788-3.998-3.997s1.788-3.998,3.998-3.998h127.913
					c2.209,0,3.998,1.789,3.998,3.998S350.146,391.907,347.938,391.907z"/>
			</g>
		</g>
		<g>
			<g>
				<path fill="#116FFF" d="M347.938,471.853H220.024c-2.209,0-3.998-1.788-3.998-3.997s1.788-3.997,3.998-3.997h127.913
					c2.209,0,3.998,1.788,3.998,3.997S350.146,471.853,347.938,471.853z"/>
			</g>
		</g>
		<g>
			<g>
				<path fill="#116FFF" d="M180.051,439.875H52.139c-2.209,0-3.998-1.788-3.998-3.998c0-2.209,1.788-3.997,3.998-3.997h127.913
					c2.21,0,3.998,1.788,3.998,3.997C184.049,438.087,182.261,439.875,180.051,439.875z"/>
			</g>
		</g>
		<g>
			<g>
				<g>
					<path fill="#116FFF" d="M439.875,487.842c-26.451,0-47.967-21.517-47.967-47.967c0-26.451,21.516-47.968,47.967-47.968
						s47.967,21.517,47.967,47.968C487.842,466.325,466.326,487.842,439.875,487.842z M439.875,399.902
						c-22.039,0-39.973,17.933-39.973,39.973c0,22.039,17.934,39.973,39.973,39.973s39.973-17.934,39.973-39.973
						C479.848,417.835,461.914,399.902,439.875,399.902z"/>
				</g>
			</g>
			<g>
				<g>
					<path fill="#116FFF" d="M418.029,481.705c-1.021,0-2.045-0.39-2.826-1.171c-1.561-1.562-1.561-4.091,0-5.652l37.834-37.833
						c1.562-1.562,4.092-1.562,5.652,0c1.562,1.561,1.562,4.091,0,5.652l-37.834,37.833
						C420.076,481.315,419.053,481.705,418.029,481.705z"/>
				</g>
			</g>
			<g>
				<g>
					<path fill="#116FFF" d="M477.928,465.936c-1.023,0-2.047-0.391-2.826-1.172l-22.064-22.062c-1.561-1.562-1.561-4.092,0-5.652
						c1.562-1.562,4.092-1.562,5.652,0l22.064,22.062c1.561,1.562,1.561,4.091,0,5.652
						C479.973,465.545,478.949,465.936,477.928,465.936z"/>
				</g>
			</g>
			<g>
				<g>
					<path fill="#116FFF" d="M401.814,465.943c-1.023,0-2.045-0.391-2.826-1.172c-1.561-1.562-1.561-4.091,0-5.652l18.074-18.073
						c1.561-1.562,4.09-1.562,5.652,0c1.561,1.562,1.561,4.091,0,5.652l-18.074,18.073
						C403.859,465.553,402.838,465.943,401.814,465.943z"/>
				</g>
			</g>
			<g>
				<g>
					<path fill="#116FFF" d="M435.877,463.858c-1.021,0-2.045-0.391-2.826-1.171l-15.988-15.989c-1.562-1.562-1.562-4.091,0-5.652
						c1.561-1.562,4.09-1.562,5.652,0l15.988,15.989c1.562,1.561,1.562,4.091,0,5.652
						C437.924,463.468,436.9,463.858,435.877,463.858z"/>
				</g>
			</g>
			<g>
				<g>
					<path fill="#116FFF" d="M427.883,431.88c-6.613,0-11.992-5.379-11.992-11.991c0-6.613,5.379-11.992,11.992-11.992
						s11.992,5.379,11.992,11.992C439.875,426.501,434.496,431.88,427.883,431.88z M427.883,415.891
						c-2.201,0-3.998,1.796-3.998,3.998c0,2.201,1.797,3.997,3.998,3.997s3.998-1.796,3.998-3.997
						C431.881,417.687,430.084,415.891,427.883,415.891z"/>
				</g>
			</g>
		</g>
		<g>
			<g>
				<g>
					<path fill="#116FFF" d="M164.062,407.896H68.127c-2.209,0-3.997-1.788-3.997-3.997v-12.188c0-9.22,6.051-12.265,11.727-14.396
						l3.529-1.265c4.052-1.437,14.521-5.137,16.996-7.112c0.578-1.491,2.03-2.545,3.724-2.545c2.209,0,3.997,1.788,3.997,3.997
						c0,4.614-5.504,7.339-22.055,13.194l-3.388,1.218c-5.676,2.131-6.535,3.459-6.535,6.909v8.19h87.94v-8.19
						c0-3.45-0.858-4.778-6.55-6.917l-3.373-1.21c-16.551-5.848-22.055-8.58-22.055-13.194c0-2.209,1.788-3.997,3.998-3.997
						c1.694,0,3.146,1.054,3.724,2.545c2.467,1.976,12.944,5.676,16.996,7.112l3.514,1.257c5.684,2.14,11.742,5.185,11.742,14.404
						v12.188C168.06,406.108,166.272,407.896,164.062,407.896z"/>
				</g>
			</g>
			<g>
				<g>
					<path fill="#116FFF" d="M116.087,375.918c-13.663,0-31.971-18.947-31.971-38.317c0-19.175,13.741-33.634,31.971-33.634
						c18.237,0,31.986,14.459,31.986,33.634C148.073,356.971,129.757,375.918,116.087,375.918z M116.087,311.962
						c-13.889,0-23.976,10.781-23.976,25.639c0,16.286,16.083,30.323,23.976,30.323c7.9,0,23.991-14.037,23.991-30.323
						C140.079,322.743,129.992,311.962,116.087,311.962z"/>
				</g>
			</g>
			<g>
				<g>
					<path fill="#116FFF" d="M100.106,374.388c-2.209,0-3.997-1.788-3.997-3.997v-6.066c0-2.209,1.788-3.997,3.997-3.997
						s3.997,1.788,3.997,3.997v6.066C104.103,372.6,102.315,374.388,100.106,374.388z"/>
				</g>
			</g>
			<g>
				<g>
					<path fill="#116FFF" d="M132.084,374.388c-2.21,0-3.998-1.788-3.998-3.997v-6.839c0-2.21,1.788-3.997,3.998-3.997
						c2.209,0,3.997,1.787,3.997,3.997v6.839C136.082,372.6,134.293,374.388,132.084,374.388z"/>
				</g>
			</g>
		</g>
	</g>
</g>
</svg>
