<?xml version="1.0" encoding="utf-8"?>
<!-- Generator: Adobe Illustrator 24.0.0, SVG Export Plug-In . SVG Version: 6.00 Build 0)  -->
<svg version="1.1" id="Layer_1" xmlns="http://www.w3.org/2000/svg" xmlns:xlink="http://www.w3.org/1999/xlink" x="0px" y="0px"
	 viewBox="0 0 256 256" style="enable-background:new 0 0 256 256;" xml:space="preserve">
<style type="text/css">
	.st0{fill:#382B73;}
	.st1{fill:#291B4A;}
	.st2{fill:#ED9ABC;}
	.st3{fill:#E54890;}
	.st4{fill:#D3D3D3;}
	.st5{fill:#EBE7F2;}
	.st6{fill:#F9B087;}
	.st7{fill:#FF8639;}
	.st8{fill:#65C1D6;}
	.st9{fill:#149CB2;}
</style>
<g>
	<g>
		<g>
			<g>
				<g>
					<circle class="st0" cx="128" cy="128" r="119.4"/>
				</g>
			</g>
		</g>
	</g>
	<g>
		<g>
			<g>
				<g>
					<path class="st1" d="M166.448,117.599h-5.02c-1.381,0-2.5,1.119-2.5,2.5s1.119,2.5,2.5,2.5h5.02
						c17.329,0,31.427-14.099,31.427-31.428c0-13.301-8.175-24.934-20.519-29.478c-1.31-16.309-14.733-28.839-31.294-28.839
						c-6.55,0-12.754,1.973-18.062,5.725c-5.308-3.752-11.513-5.725-18.063-5.725c-16.561,0-29.984,12.53-31.294,28.839
						C66.299,66.238,58.125,77.87,58.125,91.171c0,17.329,14.098,31.428,31.427,31.428h5.02c1.381,0,2.5-1.119,2.5-2.5
						s-1.119-2.5-2.5-2.5h-5.02c-14.572,0-26.427-11.855-26.427-26.428c0-11.683,7.498-21.834,18.658-25.262
						c1.027-0.315,1.737-1.251,1.765-2.324c0.377-14.429,11.969-25.73,26.39-25.73c6.055,0,11.76,2.007,16.5,5.804
						c0.913,0.732,2.212,0.732,3.126,0c4.738-3.797,10.444-5.804,16.499-5.804c14.421,0,26.013,11.302,26.39,25.73
						c0.028,1.073,0.738,2.009,1.765,2.324c11.16,3.428,18.658,13.579,18.658,25.262
						C192.875,105.743,181.02,117.599,166.448,117.599z"/>
				</g>
			</g>
		</g>
		<g>
			<g>
				<g>
					<path class="st1" d="M135.188,112.538c1.381,0,2.5-1.119,2.5-2.5s-1.119-2.5-2.5-2.5h-2.637c-1.381,0-2.5,1.119-2.5,2.5
						s1.119,2.5,2.5,2.5H135.188z"/>
				</g>
			</g>
		</g>
		<g>
			<g>
				<g>
					<path class="st1" d="M145,112.538c1.381,0,2.5-1.119,2.5-2.5s-1.119-2.5-2.5-2.5h-2.637c-1.381,0-2.5,1.119-2.5,2.5
						s1.119,2.5,2.5,2.5H145z"/>
				</g>
			</g>
		</g>
		<g>
			<g>
				<g>
					<path class="st1" d="M113.637,112.538c1.381,0,2.5-1.119,2.5-2.5s-1.119-2.5-2.5-2.5H111c-1.381,0-2.5,1.119-2.5,2.5
						s1.119,2.5,2.5,2.5H113.637z"/>
				</g>
			</g>
		</g>
		<g>
			<g>
				<g>
					<path class="st1" d="M135.188,82.241c1.381,0,2.5-1.119,2.5-2.5s-1.119-2.5-2.5-2.5h-2.637c-1.381,0-2.5,1.119-2.5,2.5
						s1.119,2.5,2.5,2.5H135.188z"/>
				</g>
			</g>
		</g>
		<g>
			<g>
				<g>
					<path class="st1" d="M145,82.241c1.381,0,2.5-1.119,2.5-2.5s-1.119-2.5-2.5-2.5h-2.637c-1.381,0-2.5,1.119-2.5,2.5
						s1.119,2.5,2.5,2.5H145z"/>
				</g>
			</g>
		</g>
		<g>
			<g>
				<g>
					<path class="st1" d="M113.637,82.241c1.381,0,2.5-1.119,2.5-2.5s-1.119-2.5-2.5-2.5H111c-1.381,0-2.5,1.119-2.5,2.5
						s1.119,2.5,2.5,2.5H113.637z"/>
				</g>
			</g>
		</g>
		<g>
			<g>
				<g>
					<path class="st1" d="M85.471,162.207c1.381,0,2.5-1.119,2.5-2.5s-1.119-2.5-2.5-2.5H66.829c-1.381,0-2.5,1.119-2.5,2.5
						s1.119,2.5,2.5,2.5H85.471z"/>
				</g>
			</g>
		</g>
		<g>
			<g>
				<g>
					<path class="st1" d="M85.471,172.566c1.381,0,2.5-1.119,2.5-2.5s-1.119-2.5-2.5-2.5H66.829c-1.381,0-2.5,1.119-2.5,2.5
						s1.119,2.5,2.5,2.5H85.471z"/>
				</g>
			</g>
		</g>
		<g>
			<g>
				<g>
					<path class="st1" d="M85.471,182.926c1.381,0,2.5-1.119,2.5-2.5s-1.119-2.5-2.5-2.5H66.829c-1.381,0-2.5,1.119-2.5,2.5
						s1.119,2.5,2.5,2.5H85.471z"/>
				</g>
			</g>
		</g>
		<g>
			<g>
				<g>
					<path class="st1" d="M81.571,197.843c1.381,0,2.5-1.119,2.5-2.5s-1.119-2.5-2.5-2.5H70.729c-1.381,0-2.5,1.119-2.5,2.5
						s1.119,2.5,2.5,2.5H81.571z"/>
				</g>
			</g>
		</g>
		<g>
			<g>
				<g>
					<path class="st1" d="M137.321,162.207c1.381,0,2.5-1.119,2.5-2.5s-1.119-2.5-2.5-2.5h-18.642c-1.381,0-2.5,1.119-2.5,2.5
						s1.119,2.5,2.5,2.5H137.321z"/>
				</g>
			</g>
		</g>
		<g>
			<g>
				<g>
					<path class="st1" d="M137.321,172.566c1.381,0,2.5-1.119,2.5-2.5s-1.119-2.5-2.5-2.5h-18.642c-1.381,0-2.5,1.119-2.5,2.5
						s1.119,2.5,2.5,2.5H137.321z"/>
				</g>
			</g>
		</g>
		<g>
			<g>
				<g>
					<path class="st1" d="M137.321,182.926c1.381,0,2.5-1.119,2.5-2.5s-1.119-2.5-2.5-2.5h-18.642c-1.381,0-2.5,1.119-2.5,2.5
						s1.119,2.5,2.5,2.5H137.321z"/>
				</g>
			</g>
		</g>
		<g>
			<g>
				<g>
					<path class="st1" d="M133.421,197.843c1.381,0,2.5-1.119,2.5-2.5s-1.119-2.5-2.5-2.5h-10.842c-1.381,0-2.5,1.119-2.5,2.5
						s1.119,2.5,2.5,2.5H133.421z"/>
				</g>
			</g>
		</g>
		<g>
			<g>
				<g>
					<path class="st1" d="M76.15,132.189c-1.381,0-2.5,1.119-2.5,2.5v12.091H56.646c-1.381,0-2.5,1.119-2.5,2.5v59.365
						c0,1.381,1.119,2.5,2.5,2.5h39.007c1.381,0,2.5-1.119,2.5-2.5V149.28c0-1.381-1.119-2.5-2.5-2.5H78.65v-9.591h46.85v9.591
						h-17.003c-1.381,0-2.5,1.119-2.5,2.5v59.365c0,1.381,1.119,2.5,2.5,2.5h39.006c1.381,0,2.5-1.119,2.5-2.5V149.28
						c0-1.381-1.119-2.5-2.5-2.5H130.5v-9.591h46.851v9.591h-17.004c-1.381,0-2.5,1.119-2.5,2.5v59.365c0,1.381,1.119,2.5,2.5,2.5
						h39.007c1.381,0,2.5-1.119,2.5-2.5V149.28c0-1.381-1.119-2.5-2.5-2.5h-17.003v-12.091c0-1.381-1.119-2.5-2.5-2.5H130.5v-9.591
						h20.202c2.426,0,4.398-1.973,4.398-4.398v-16.324c0-2.426-1.973-4.398-4.398-4.398h-2.891v-5.176h2.891
						c2.426,0,4.398-1.973,4.398-4.397V71.579c0-2.426-1.973-4.398-4.398-4.398h-45.405c-2.425,0-4.398,1.973-4.398,4.398v16.325
						c0,2.425,1.973,4.397,4.398,4.397h2.891v5.176h-2.891c-2.425,0-4.398,1.973-4.398,4.398V118.2c0,2.426,1.973,4.398,4.398,4.398
						H125.5v9.591H76.15z M93.153,151.78v54.365H59.146V151.78H93.153z M196.854,151.78v54.365h-34.007V151.78H196.854z
						 M105.899,87.302V72.181h44.201v15.121H105.899z M142.812,92.302v5.176h-29.623v-5.176H142.812z M105.899,117.599v-15.121
						h44.201v15.121H105.899z M145.003,151.78v54.365h-34.006V151.78H145.003z"/>
				</g>
			</g>
		</g>
		<g>
			<g>
				<g>
					<path class="st1" d="M189.171,162.207c1.381,0,2.5-1.119,2.5-2.5s-1.119-2.5-2.5-2.5h-18.642c-1.381,0-2.5,1.119-2.5,2.5
						s1.119,2.5,2.5,2.5H189.171z"/>
				</g>
			</g>
		</g>
		<g>
			<g>
				<g>
					<path class="st1" d="M189.171,172.566c1.381,0,2.5-1.119,2.5-2.5s-1.119-2.5-2.5-2.5h-18.642c-1.381,0-2.5,1.119-2.5,2.5
						s1.119,2.5,2.5,2.5H189.171z"/>
				</g>
			</g>
		</g>
		<g>
			<g>
				<g>
					<path class="st1" d="M189.171,182.926c1.381,0,2.5-1.119,2.5-2.5s-1.119-2.5-2.5-2.5h-18.642c-1.381,0-2.5,1.119-2.5,2.5
						s1.119,2.5,2.5,2.5H189.171z"/>
				</g>
			</g>
		</g>
		<g>
			<g>
				<g>
					<path class="st1" d="M185.271,197.843c1.381,0,2.5-1.119,2.5-2.5s-1.119-2.5-2.5-2.5h-10.843c-1.381,0-2.5,1.119-2.5,2.5
						s1.119,2.5,2.5,2.5H185.271z"/>
				</g>
			</g>
		</g>
	</g>
	<g>
		<g>
			<g>
				<g>
					<path class="st4" d="M130.5,145.28v-29.182c0-1.381-1.119-2.5-2.5-2.5s-2.5,1.119-2.5,2.5v29.182c0,1.381,1.119,2.5,2.5,2.5
						S130.5,146.661,130.5,145.28z"/>
				</g>
			</g>
		</g>
		<g>
			<g>
				<g>
					<path class="st4" d="M179.851,147.78c1.381,0,2.5-1.119,2.5-2.5v-14.591c0-1.381-1.119-2.5-2.5-2.5H76.15
						c-1.381,0-2.5,1.119-2.5,2.5v14.591c0,1.381,1.119,2.5,2.5,2.5s2.5-1.119,2.5-2.5v-12.091h98.701v12.091
						C177.351,146.661,178.47,147.78,179.851,147.78z"/>
				</g>
			</g>
		</g>
		<g>
			<g>
				<g>
					<path class="st5" d="M128,113.599c-1.381,0-2.5,1.119-2.5,2.5v12.091H76.15c-1.381,0-2.5,1.119-2.5,2.5v14.591
						c0,1.381,1.119,2.5,2.5,2.5s2.5-1.119,2.5-2.5v-12.091h46.85v12.091c0,1.381,1.119,2.5,2.5,2.5s2.5-1.119,2.5-2.5v-12.091
						h46.851v12.091c0,1.381,1.119,2.5,2.5,2.5s2.5-1.119,2.5-2.5v-14.591c0-1.381-1.119-2.5-2.5-2.5H130.5v-12.091
						C130.5,114.718,129.381,113.599,128,113.599z M179.851,129.689c0.551,0,1,0.449,1,1v14.591c0,0.551-0.449,1-1,1s-1-0.449-1-1
						v-12.091c0-0.829-0.672-1.5-1.5-1.5H130.5c-0.828,0-1.5,0.671-1.5,1.5v12.091c0,0.551-0.449,1-1,1s-1-0.449-1-1v-12.091
						c0-0.829-0.672-1.5-1.5-1.5H78.65c-0.828,0-1.5,0.671-1.5,1.5v12.091c0,0.551-0.449,1-1,1s-1-0.449-1-1v-14.591
						c0-0.551,0.449-1,1-1h49.35c0.828,0,1.5-0.671,1.5-1.5v-12.091c0-0.551,0.449-1,1-1s1,0.449,1,1v12.091
						c0,0.829,0.672,1.5,1.5,1.5H179.851z"/>
				</g>
			</g>
		</g>
		<g>
			<g>
				<g>
					<g>
						<g>
							<g>
								<g>
									<path class="st6" d="M166.448,113.599h-5.02c-1.381,0-2.5,1.119-2.5,2.5s1.119,2.5,2.5,2.5h5.02
										c17.329,0,31.427-14.099,31.427-31.428c0-13.301-8.175-24.934-20.519-29.478c-1.31-16.309-14.733-28.839-31.294-28.839
										c-6.55,0-12.754,1.973-18.062,5.725c-5.308-3.752-11.513-5.725-18.063-5.725c-16.561,0-29.984,12.53-31.294,28.839
										C66.299,62.238,58.125,73.87,58.125,87.171c0,17.329,14.098,31.428,31.427,31.428h5.02c1.381,0,2.5-1.119,2.5-2.5
										s-1.119-2.5-2.5-2.5h-5.02c-14.572,0-26.427-11.855-26.427-26.428c0-11.683,7.498-21.834,18.658-25.262
										c1.027-0.315,1.737-1.251,1.765-2.324c0.377-14.429,11.969-25.73,26.39-25.73c6.055,0,11.76,2.007,16.5,5.804
										c0.913,0.732,2.212,0.732,3.126,0c4.738-3.797,10.444-5.804,16.499-5.804c14.421,0,26.013,11.302,26.39,25.73
										c0.028,1.073,0.738,2.009,1.765,2.324c11.16,3.428,18.658,13.579,18.658,25.262
										C192.875,101.743,181.02,113.599,166.448,113.599z"/>
								</g>
							</g>
						</g>
					</g>
				</g>
			</g>
		</g>
		<g>
			<g>
				<g>
					<g>
						<path class="st6" d="M113.188,95.978V85.802c0-1.381-1.119-2.5-2.5-2.5s-2.5,1.119-2.5,2.5v10.176c0,1.381,1.119,2.5,2.5,2.5
							S113.188,97.358,113.188,95.978z"/>
					</g>
				</g>
			</g>
			<g>
				<g>
					<g>
						<path class="st6" d="M147.812,95.978V85.802c0-1.381-1.119-2.5-2.5-2.5s-2.5,1.119-2.5,2.5v10.176c0,1.381,1.119,2.5,2.5,2.5
							S147.812,97.358,147.812,95.978z"/>
					</g>
				</g>
			</g>
			<g>
				<g>
					<g>
						<g>
							<g>
								<g>
									<g>
										<path class="st6" d="M150.702,118.599c2.426,0,4.398-1.973,4.398-4.398V97.876c0-2.426-1.973-4.398-4.398-4.398h-45.405
											c-2.425,0-4.398,1.973-4.398,4.398V114.2c0,2.426,1.973,4.398,4.398,4.398H150.702z M105.899,98.478h44.201v15.121
											h-44.201V98.478z"/>
									</g>
								</g>
							</g>
						</g>
					</g>
				</g>
				<g>
					<g>
						<g>
							<path class="st6" d="M135.188,108.538c1.381,0,2.5-1.119,2.5-2.5s-1.119-2.5-2.5-2.5h-2.637c-1.381,0-2.5,1.119-2.5,2.5
								s1.119,2.5,2.5,2.5H135.188z"/>
						</g>
					</g>
				</g>
				<g>
					<g>
						<g>
							<path class="st6" d="M145,108.538c1.381,0,2.5-1.119,2.5-2.5s-1.119-2.5-2.5-2.5h-2.637c-1.381,0-2.5,1.119-2.5,2.5
								s1.119,2.5,2.5,2.5H145z"/>
						</g>
					</g>
				</g>
				<g>
					<g>
						<g>
							<path class="st6" d="M113.637,108.538c1.381,0,2.5-1.119,2.5-2.5s-1.119-2.5-2.5-2.5H111c-1.381,0-2.5,1.119-2.5,2.5
								s1.119,2.5,2.5,2.5H113.637z"/>
						</g>
					</g>
				</g>
			</g>
			<g>
				<g>
					<g>
						<g>
							<g>
								<g>
									<g>
										<path class="st6" d="M150.702,88.302c2.426,0,4.398-1.973,4.398-4.397V67.579c0-2.426-1.973-4.398-4.398-4.398h-45.405
											c-2.425,0-4.398,1.973-4.398,4.398v16.325c0,2.425,1.973,4.397,4.398,4.397H150.702z M105.899,68.181h44.201v15.121
											h-44.201V68.181z"/>
									</g>
								</g>
							</g>
						</g>
					</g>
				</g>
				<g>
					<g>
						<g>
							<path class="st6" d="M135.188,78.241c1.381,0,2.5-1.119,2.5-2.5s-1.119-2.5-2.5-2.5h-2.637c-1.381,0-2.5,1.119-2.5,2.5
								s1.119,2.5,2.5,2.5H135.188z"/>
						</g>
					</g>
				</g>
				<g>
					<g>
						<g>
							<path class="st6" d="M145,78.241c1.381,0,2.5-1.119,2.5-2.5s-1.119-2.5-2.5-2.5h-2.637c-1.381,0-2.5,1.119-2.5,2.5
								s1.119,2.5,2.5,2.5H145z"/>
						</g>
					</g>
				</g>
				<g>
					<g>
						<g>
							<path class="st6" d="M113.637,78.241c1.381,0,2.5-1.119,2.5-2.5s-1.119-2.5-2.5-2.5H111c-1.381,0-2.5,1.119-2.5,2.5
								s1.119,2.5,2.5,2.5H113.637z"/>
						</g>
					</g>
				</g>
			</g>
		</g>
		<g>
			<g>
				<g>
					<g>
						<path class="st7" d="M166.448,113.599h-5.02c-1.381,0-2.5,1.119-2.5,2.5s1.119,2.5,2.5,2.5h5.02
							c17.329,0,31.427-14.099,31.427-31.428c0-13.301-8.175-24.934-20.519-29.478c-1.31-16.309-14.733-28.839-31.294-28.839
							c-6.55,0-12.754,1.973-18.062,5.725c-5.308-3.752-11.513-5.725-18.063-5.725c-16.561,0-29.984,12.53-31.294,28.839
							C66.299,62.238,58.125,73.87,58.125,87.171c0,17.329,14.098,31.428,31.427,31.428h5.02c1.381,0,2.5-1.119,2.5-2.5
							s-1.119-2.5-2.5-2.5h-5.02c-14.572,0-26.427-11.855-26.427-26.428c0-11.683,7.498-21.834,18.658-25.262
							c1.027-0.315,1.737-1.251,1.765-2.324c0.377-14.429,11.969-25.73,26.39-25.73c6.055,0,11.76,2.007,16.5,5.804
							c0.457,0.366,1.01,0.549,1.563,0.549s1.107-0.183,1.564-0.549c4.738-3.797,10.444-5.804,16.499-5.804
							c14.421,0,26.013,11.302,26.39,25.73c0.028,1.073,0.738,2.009,1.765,2.324c11.16,3.428,18.658,13.579,18.658,25.262
							C192.875,101.743,181.02,113.599,166.448,113.599z M194.375,87.171c0-12.345-7.924-23.073-19.718-26.695
							c-0.411-0.126-0.695-0.5-0.706-0.93c-0.398-15.248-12.649-27.191-27.889-27.191c-6.4,0-12.43,2.121-17.437,6.133
							c-0.227,0.182-0.465,0.22-0.626,0.22c-0.16,0-0.398-0.038-0.625-0.22c-5.008-4.013-11.038-6.133-17.437-6.133
							c-15.24,0-27.491,11.944-27.889,27.191c-0.011,0.43-0.295,0.803-0.706,0.929c-11.794,3.623-19.718,14.351-19.718,26.696
							c0,15.399,12.528,27.928,27.927,27.928h5.02c0.551,0,1,0.449,1,1s-0.449,1-1,1h-5.02c-16.502,0-29.927-13.425-29.927-29.928
							c0-12.682,7.669-23.7,19.537-28.07c0.549-0.202,0.93-0.705,0.977-1.288c1.258-15.654,14.068-27.459,29.799-27.459
							c6.206,0,12.153,1.884,17.197,5.45c0.259,0.183,0.563,0.275,0.866,0.275s0.606-0.092,0.866-0.275
							c5.044-3.565,10.991-5.45,17.197-5.45c15.731,0,28.542,11.805,29.799,27.459c0.047,0.583,0.428,1.085,0.977,1.288
							c11.868,4.369,19.537,15.387,19.537,28.07c0,16.502-13.425,29.928-29.927,29.928h-5.02c-0.551,0-1-0.449-1-1s0.449-1,1-1h5.02
							C181.847,115.099,194.375,102.57,194.375,87.171z"/>
					</g>
				</g>
			</g>
			<g>
				<g>
					<g>
						<path class="st7" d="M135.188,108.538c1.381,0,2.5-1.119,2.5-2.5s-1.119-2.5-2.5-2.5h-2.637c-1.381,0-2.5,1.119-2.5,2.5
							s1.119,2.5,2.5,2.5H135.188z M131.552,106.038c0-0.551,0.449-1,1-1h2.637c0.551,0,1,0.449,1,1s-0.449,1-1,1h-2.637
							C132,107.038,131.552,106.589,131.552,106.038z"/>
					</g>
				</g>
			</g>
			<g>
				<g>
					<g>
						<path class="st7" d="M145,108.538c1.381,0,2.5-1.119,2.5-2.5s-1.119-2.5-2.5-2.5h-2.637c-1.381,0-2.5,1.119-2.5,2.5
							s1.119,2.5,2.5,2.5H145z M141.363,106.038c0-0.551,0.449-1,1-1H145c0.551,0,1,0.449,1,1s-0.449,1-1,1h-2.637
							C141.812,107.038,141.363,106.589,141.363,106.038z"/>
					</g>
				</g>
			</g>
			<g>
				<g>
					<g>
						<path class="st7" d="M113.637,108.538c1.381,0,2.5-1.119,2.5-2.5s-1.119-2.5-2.5-2.5H111c-1.381,0-2.5,1.119-2.5,2.5
							s1.119,2.5,2.5,2.5H113.637z M110,106.038c0-0.551,0.449-1,1-1h2.637c0.551,0,1,0.449,1,1s-0.449,1-1,1H111
							C110.449,107.038,110,106.589,110,106.038z"/>
					</g>
				</g>
			</g>
			<g>
				<g>
					<g>
						<path class="st7" d="M151.601,83.302V68.181c0-0.829-0.672-1.5-1.5-1.5h-44.201c-0.828,0-1.5,0.671-1.5,1.5v15.121
							c0,0.829,0.672,1.5,1.5,1.5h44.201C150.929,84.802,151.601,84.13,151.601,83.302z M105.899,68.181h44.201v15.121h-44.201
							V68.181z"/>
						<path class="st7" d="M104.399,98.478v15.121c0,0.829,0.672,1.5,1.5,1.5h44.201c0.828,0,1.5-0.671,1.5-1.5V98.478
							c0-0.829-0.672-1.5-1.5-1.5h-44.201C105.071,96.978,104.399,97.649,104.399,98.478z M150.101,113.599h-44.201V98.478h44.201
							V113.599z"/>
						<path class="st7" d="M105.297,93.478c-2.425,0-4.398,1.973-4.398,4.398V114.2c0,2.426,1.973,4.398,4.398,4.398h45.405
							c2.426,0,4.398-1.973,4.398-4.398V97.876c0-2.426-1.973-4.398-4.398-4.398h-2.891v-5.176h2.891
							c2.426,0,4.398-1.973,4.398-4.397V67.579c0-2.426-1.973-4.398-4.398-4.398h-45.405c-2.425,0-4.398,1.973-4.398,4.398v16.325
							c0,2.425,1.973,4.397,4.398,4.397h2.891v5.176H105.297z M108.188,86.802h-2.891c-1.598,0-2.898-1.3-2.898-2.897V67.579
							c0-1.598,1.3-2.898,2.898-2.898h45.405c1.598,0,2.898,1.3,2.898,2.898v16.325c0,1.598-1.3,2.897-2.898,2.897h-2.891
							c-0.828,0-1.5,0.671-1.5,1.5v5.176c0,0.829,0.672,1.5,1.5,1.5h2.891c1.598,0,2.898,1.3,2.898,2.898V114.2
							c0,1.598-1.3,2.898-2.898,2.898h-45.405c-1.598,0-2.898-1.3-2.898-2.898V97.876c0-1.598,1.3-2.898,2.898-2.898h2.891
							c0.828,0,1.5-0.671,1.5-1.5v-5.176C109.688,87.473,109.017,86.802,108.188,86.802z"/>
						<path class="st7" d="M113.188,86.802c-0.828,0-1.5,0.671-1.5,1.5v5.176c0,0.829,0.672,1.5,1.5,1.5h29.623
							c0.828,0,1.5-0.671,1.5-1.5v-5.176c0-0.829-0.672-1.5-1.5-1.5H113.188z M142.812,93.478h-29.623v-5.176h29.623V93.478z"/>
					</g>
				</g>
			</g>
			<g>
				<g>
					<g>
						<path class="st7" d="M135.188,78.241c1.381,0,2.5-1.119,2.5-2.5s-1.119-2.5-2.5-2.5h-2.637c-1.381,0-2.5,1.119-2.5,2.5
							s1.119,2.5,2.5,2.5H135.188z M131.552,75.741c0-0.551,0.449-1,1-1h2.637c0.551,0,1,0.449,1,1s-0.449,1-1,1h-2.637
							C132,76.741,131.552,76.292,131.552,75.741z"/>
					</g>
				</g>
			</g>
			<g>
				<g>
					<g>
						<path class="st7" d="M145,78.241c1.381,0,2.5-1.119,2.5-2.5s-1.119-2.5-2.5-2.5h-2.637c-1.381,0-2.5,1.119-2.5,2.5
							s1.119,2.5,2.5,2.5H145z M141.363,75.741c0-0.551,0.449-1,1-1H145c0.551,0,1,0.449,1,1s-0.449,1-1,1h-2.637
							C141.812,76.741,141.363,76.292,141.363,75.741z"/>
					</g>
				</g>
			</g>
			<g>
				<g>
					<g>
						<path class="st7" d="M113.637,78.241c1.381,0,2.5-1.119,2.5-2.5s-1.119-2.5-2.5-2.5H111c-1.381,0-2.5,1.119-2.5,2.5
							s1.119,2.5,2.5,2.5H113.637z M110,75.741c0-0.551,0.449-1,1-1h2.637c0.551,0,1,0.449,1,1s-0.449,1-1,1H111
							C110.449,76.741,110,76.292,110,75.741z"/>
					</g>
				</g>
			</g>
		</g>
		<g>
			<g>
				<g>
					<g>
						<g>
							<path class="st8" d="M95.653,207.146c1.381,0,2.5-1.119,2.5-2.5V145.28c0-1.381-1.119-2.5-2.5-2.5H56.646
								c-1.381,0-2.5,1.119-2.5,2.5v59.365c0,1.381,1.119,2.5,2.5,2.5H95.653z M59.146,147.78h34.007v54.365H59.146V147.78z"/>
						</g>
					</g>
				</g>
				<g>
					<g>
						<g>
							<path class="st8" d="M85.471,158.207c1.381,0,2.5-1.119,2.5-2.5s-1.119-2.5-2.5-2.5H66.829c-1.381,0-2.5,1.119-2.5,2.5
								s1.119,2.5,2.5,2.5H85.471z"/>
						</g>
					</g>
				</g>
				<g>
					<g>
						<g>
							<path class="st8" d="M85.471,168.566c1.381,0,2.5-1.119,2.5-2.5s-1.119-2.5-2.5-2.5H66.829c-1.381,0-2.5,1.119-2.5,2.5
								s1.119,2.5,2.5,2.5H85.471z"/>
						</g>
					</g>
				</g>
				<g>
					<g>
						<g>
							<path class="st8" d="M85.471,178.926c1.381,0,2.5-1.119,2.5-2.5s-1.119-2.5-2.5-2.5H66.829c-1.381,0-2.5,1.119-2.5,2.5
								s1.119,2.5,2.5,2.5H85.471z"/>
						</g>
					</g>
				</g>
				<g>
					<g>
						<g>
							<path class="st8" d="M81.571,193.843c1.381,0,2.5-1.119,2.5-2.5s-1.119-2.5-2.5-2.5H70.729c-1.381,0-2.5,1.119-2.5,2.5
								s1.119,2.5,2.5,2.5H81.571z"/>
						</g>
					</g>
				</g>
			</g>
			<g>
				<g>
					<g>
						<g>
							<path class="st8" d="M147.503,207.146c1.381,0,2.5-1.119,2.5-2.5V145.28c0-1.381-1.119-2.5-2.5-2.5h-39.006
								c-1.381,0-2.5,1.119-2.5,2.5v59.365c0,1.381,1.119,2.5,2.5,2.5H147.503z M110.997,147.78h34.006v54.365h-34.006V147.78z"/>
						</g>
					</g>
				</g>
				<g>
					<g>
						<g>
							<path class="st8" d="M137.321,158.207c1.381,0,2.5-1.119,2.5-2.5s-1.119-2.5-2.5-2.5h-18.642c-1.381,0-2.5,1.119-2.5,2.5
								s1.119,2.5,2.5,2.5H137.321z"/>
						</g>
					</g>
				</g>
				<g>
					<g>
						<g>
							<path class="st8" d="M137.321,168.566c1.381,0,2.5-1.119,2.5-2.5s-1.119-2.5-2.5-2.5h-18.642c-1.381,0-2.5,1.119-2.5,2.5
								s1.119,2.5,2.5,2.5H137.321z"/>
						</g>
					</g>
				</g>
				<g>
					<g>
						<g>
							<path class="st8" d="M137.321,178.926c1.381,0,2.5-1.119,2.5-2.5s-1.119-2.5-2.5-2.5h-18.642c-1.381,0-2.5,1.119-2.5,2.5
								s1.119,2.5,2.5,2.5H137.321z"/>
						</g>
					</g>
				</g>
				<g>
					<g>
						<g>
							<path class="st8" d="M133.421,193.843c1.381,0,2.5-1.119,2.5-2.5s-1.119-2.5-2.5-2.5h-10.842c-1.381,0-2.5,1.119-2.5,2.5
								s1.119,2.5,2.5,2.5H133.421z"/>
						</g>
					</g>
				</g>
			</g>
			<g>
				<g>
					<g>
						<g>
							<path class="st8" d="M199.354,207.146c1.381,0,2.5-1.119,2.5-2.5V145.28c0-1.381-1.119-2.5-2.5-2.5h-39.007
								c-1.381,0-2.5,1.119-2.5,2.5v59.365c0,1.381,1.119,2.5,2.5,2.5H199.354z M162.847,147.78h34.007v54.365h-34.007V147.78z"/>
						</g>
					</g>
				</g>
				<g>
					<g>
						<g>
							<path class="st8" d="M189.171,158.207c1.381,0,2.5-1.119,2.5-2.5s-1.119-2.5-2.5-2.5h-18.642c-1.381,0-2.5,1.119-2.5,2.5
								s1.119,2.5,2.5,2.5H189.171z"/>
						</g>
					</g>
				</g>
				<g>
					<g>
						<g>
							<path class="st8" d="M189.171,168.566c1.381,0,2.5-1.119,2.5-2.5s-1.119-2.5-2.5-2.5h-18.642c-1.381,0-2.5,1.119-2.5,2.5
								s1.119,2.5,2.5,2.5H189.171z"/>
						</g>
					</g>
				</g>
				<g>
					<g>
						<g>
							<path class="st8" d="M189.171,178.926c1.381,0,2.5-1.119,2.5-2.5s-1.119-2.5-2.5-2.5h-18.642c-1.381,0-2.5,1.119-2.5,2.5
								s1.119,2.5,2.5,2.5H189.171z"/>
						</g>
					</g>
				</g>
				<g>
					<g>
						<g>
							<path class="st8" d="M185.271,193.843c1.381,0,2.5-1.119,2.5-2.5s-1.119-2.5-2.5-2.5h-10.843c-1.381,0-2.5,1.119-2.5,2.5
								s1.119,2.5,2.5,2.5H185.271z"/>
						</g>
					</g>
				</g>
			</g>
		</g>
		<g>
			<g>
				<g>
					<g>
						<path class="st9" d="M59.146,203.646h34.007c0.828,0,1.5-0.671,1.5-1.5V147.78c0-0.829-0.672-1.5-1.5-1.5H59.146
							c-0.828,0-1.5,0.671-1.5,1.5v54.365C57.646,202.974,58.318,203.646,59.146,203.646z M59.146,147.78h34.007v54.365H59.146
							V147.78z"/>
						<path class="st9" d="M95.653,207.146c1.381,0,2.5-1.119,2.5-2.5V145.28c0-1.381-1.119-2.5-2.5-2.5H56.646
							c-1.381,0-2.5,1.119-2.5,2.5v59.365c0,1.381,1.119,2.5,2.5,2.5H95.653z M55.646,204.646V145.28c0-0.551,0.449-1,1-1h39.007
							c0.551,0,1,0.449,1,1v59.365c0,0.551-0.449,1-1,1H56.646C56.095,205.646,55.646,205.197,55.646,204.646z"/>
					</g>
				</g>
			</g>
			<g>
				<g>
					<g>
						<path class="st9" d="M85.471,158.207c1.381,0,2.5-1.119,2.5-2.5s-1.119-2.5-2.5-2.5H66.829c-1.381,0-2.5,1.119-2.5,2.5
							s1.119,2.5,2.5,2.5H85.471z M65.829,155.707c0-0.551,0.449-1,1-1h18.642c0.551,0,1,0.449,1,1s-0.449,1-1,1H66.829
							C66.278,156.707,65.829,156.258,65.829,155.707z"/>
					</g>
				</g>
			</g>
			<g>
				<g>
					<g>
						<path class="st9" d="M85.471,168.566c1.381,0,2.5-1.119,2.5-2.5s-1.119-2.5-2.5-2.5H66.829c-1.381,0-2.5,1.119-2.5,2.5
							s1.119,2.5,2.5,2.5H85.471z M65.829,166.066c0-0.551,0.449-1,1-1h18.642c0.551,0,1,0.449,1,1s-0.449,1-1,1H66.829
							C66.278,167.066,65.829,166.618,65.829,166.066z"/>
					</g>
				</g>
			</g>
			<g>
				<g>
					<g>
						<path class="st9" d="M85.471,178.926c1.381,0,2.5-1.119,2.5-2.5s-1.119-2.5-2.5-2.5H66.829c-1.381,0-2.5,1.119-2.5,2.5
							s1.119,2.5,2.5,2.5H85.471z M65.829,176.426c0-0.551,0.449-1,1-1h18.642c0.551,0,1,0.449,1,1s-0.449,1-1,1H66.829
							C66.278,177.426,65.829,176.977,65.829,176.426z"/>
					</g>
				</g>
			</g>
			<g>
				<g>
					<g>
						<path class="st9" d="M81.571,193.843c1.381,0,2.5-1.119,2.5-2.5s-1.119-2.5-2.5-2.5H70.729c-1.381,0-2.5,1.119-2.5,2.5
							s1.119,2.5,2.5,2.5H81.571z M69.729,191.343c0-0.551,0.449-1,1-1h10.842c0.551,0,1,0.449,1,1s-0.449,1-1,1H70.729
							C70.178,192.343,69.729,191.894,69.729,191.343z"/>
					</g>
				</g>
			</g>
			<g>
				<g>
					<g>
						<path class="st9" d="M110.997,203.646h34.006c0.828,0,1.5-0.671,1.5-1.5V147.78c0-0.829-0.672-1.5-1.5-1.5h-34.006
							c-0.828,0-1.5,0.671-1.5,1.5v54.365C109.497,202.974,110.168,203.646,110.997,203.646z M110.997,147.78h34.006v54.365h-34.006
							V147.78z"/>
						<path class="st9" d="M147.503,207.146c1.381,0,2.5-1.119,2.5-2.5V145.28c0-1.381-1.119-2.5-2.5-2.5h-39.006
							c-1.381,0-2.5,1.119-2.5,2.5v59.365c0,1.381,1.119,2.5,2.5,2.5H147.503z M107.497,204.646V145.28c0-0.551,0.449-1,1-1h39.006
							c0.551,0,1,0.449,1,1v59.365c0,0.551-0.449,1-1,1h-39.006C107.945,205.646,107.497,205.197,107.497,204.646z"/>
					</g>
				</g>
			</g>
			<g>
				<g>
					<g>
						<path class="st9" d="M137.321,158.207c1.381,0,2.5-1.119,2.5-2.5s-1.119-2.5-2.5-2.5h-18.642c-1.381,0-2.5,1.119-2.5,2.5
							s1.119,2.5,2.5,2.5H137.321z M117.679,155.707c0-0.551,0.449-1,1-1h18.642c0.551,0,1,0.449,1,1s-0.449,1-1,1h-18.642
							C118.128,156.707,117.679,156.258,117.679,155.707z"/>
					</g>
				</g>
			</g>
			<g>
				<g>
					<g>
						<path class="st9" d="M137.321,168.566c1.381,0,2.5-1.119,2.5-2.5s-1.119-2.5-2.5-2.5h-18.642c-1.381,0-2.5,1.119-2.5,2.5
							s1.119,2.5,2.5,2.5H137.321z M117.679,166.066c0-0.551,0.449-1,1-1h18.642c0.551,0,1,0.449,1,1s-0.449,1-1,1h-18.642
							C118.128,167.066,117.679,166.618,117.679,166.066z"/>
					</g>
				</g>
			</g>
			<g>
				<g>
					<g>
						<path class="st9" d="M137.321,178.926c1.381,0,2.5-1.119,2.5-2.5s-1.119-2.5-2.5-2.5h-18.642c-1.381,0-2.5,1.119-2.5,2.5
							s1.119,2.5,2.5,2.5H137.321z M117.679,176.426c0-0.551,0.449-1,1-1h18.642c0.551,0,1,0.449,1,1s-0.449,1-1,1h-18.642
							C118.128,177.426,117.679,176.977,117.679,176.426z"/>
					</g>
				</g>
			</g>
			<g>
				<g>
					<g>
						<path class="st9" d="M133.421,193.843c1.381,0,2.5-1.119,2.5-2.5s-1.119-2.5-2.5-2.5h-10.842c-1.381,0-2.5,1.119-2.5,2.5
							s1.119,2.5,2.5,2.5H133.421z M121.579,191.343c0-0.551,0.449-1,1-1h10.842c0.551,0,1,0.449,1,1s-0.449,1-1,1h-10.842
							C122.028,192.343,121.579,191.894,121.579,191.343z"/>
					</g>
				</g>
			</g>
			<g>
				<g>
					<g>
						<path class="st9" d="M199.354,207.146c1.381,0,2.5-1.119,2.5-2.5V145.28c0-1.381-1.119-2.5-2.5-2.5h-39.007
							c-1.381,0-2.5,1.119-2.5,2.5v59.365c0,1.381,1.119,2.5,2.5,2.5H199.354z M159.347,204.646V145.28c0-0.551,0.449-1,1-1h39.007
							c0.551,0,1,0.449,1,1v59.365c0,0.551-0.449,1-1,1h-39.007C159.795,205.646,159.347,205.197,159.347,204.646z"/>
						<path class="st9" d="M162.847,203.646h34.007c0.828,0,1.5-0.671,1.5-1.5V147.78c0-0.829-0.672-1.5-1.5-1.5h-34.007
							c-0.828,0-1.5,0.671-1.5,1.5v54.365C161.347,202.974,162.018,203.646,162.847,203.646z M162.847,147.78h34.007v54.365h-34.007
							V147.78z"/>
					</g>
				</g>
			</g>
			<g>
				<g>
					<g>
						<path class="st9" d="M189.171,158.207c1.381,0,2.5-1.119,2.5-2.5s-1.119-2.5-2.5-2.5h-18.642c-1.381,0-2.5,1.119-2.5,2.5
							s1.119,2.5,2.5,2.5H189.171z M169.529,155.707c0-0.551,0.449-1,1-1h18.642c0.551,0,1,0.449,1,1s-0.449,1-1,1h-18.642
							C169.978,156.707,169.529,156.258,169.529,155.707z"/>
					</g>
				</g>
			</g>
			<g>
				<g>
					<g>
						<path class="st9" d="M189.171,168.566c1.381,0,2.5-1.119,2.5-2.5s-1.119-2.5-2.5-2.5h-18.642c-1.381,0-2.5,1.119-2.5,2.5
							s1.119,2.5,2.5,2.5H189.171z M169.529,166.066c0-0.551,0.449-1,1-1h18.642c0.551,0,1,0.449,1,1s-0.449,1-1,1h-18.642
							C169.978,167.066,169.529,166.618,169.529,166.066z"/>
					</g>
				</g>
			</g>
			<g>
				<g>
					<g>
						<path class="st9" d="M189.171,178.926c1.381,0,2.5-1.119,2.5-2.5s-1.119-2.5-2.5-2.5h-18.642c-1.381,0-2.5,1.119-2.5,2.5
							s1.119,2.5,2.5,2.5H189.171z M169.529,176.426c0-0.551,0.449-1,1-1h18.642c0.551,0,1,0.449,1,1s-0.449,1-1,1h-18.642
							C169.978,177.426,169.529,176.977,169.529,176.426z"/>
					</g>
				</g>
			</g>
			<g>
				<g>
					<g>
						<path class="st9" d="M185.271,193.843c1.381,0,2.5-1.119,2.5-2.5s-1.119-2.5-2.5-2.5h-10.843c-1.381,0-2.5,1.119-2.5,2.5
							s1.119,2.5,2.5,2.5H185.271z M173.429,191.343c0-0.551,0.449-1,1-1h10.843c0.551,0,1,0.449,1,1s-0.449,1-1,1h-10.843
							C173.877,192.343,173.429,191.894,173.429,191.343z"/>
					</g>
				</g>
			</g>
		</g>
	</g>
</g>
</svg>
