<?xml version="1.0" encoding="utf-8"?>
<!-- Generator: Adobe Illustrator 18.0.0, SVG Export Plug-In . SVG Version: 6.00 Build 0)  -->
<!DOCTYPE svg PUBLIC "-//W3C//DTD SVG 1.1//EN" "http://www.w3.org/Graphics/SVG/1.1/DTD/svg11.dtd">
<svg version="1.1" id="Layer_1" xmlns="http://www.w3.org/2000/svg" xmlns:xlink="http://www.w3.org/1999/xlink" x="0px" y="0px"
	 width="256px" height="256px" viewBox="0 0 256 256" enable-background="new 0 0 256 256" xml:space="preserve">
<g>
	<g>
		<g>
			<g>
				<g>
					<path fill="#E0E0E0" d="M133.9,96.8l3.4-26.6c6.4,2,11,8,11,14.8v11.8H133.9z"/>
				</g>
			</g>
			<g>
				<g>
					<path fill="#E0E0E0" d="M88.7,96.8V85c0-6.4,5.8-12.9,13.2-14.9l3.5,26.7H88.7z"/>
				</g>
			</g>
			<g>
				<path fill="#4A555F" d="M119.5,65.8c-10.8,0-19.5-8.8-19.5-19.5c0-10.8,8.8-19.5,19.5-19.5c10.8,0,19.5,8.8,19.5,19.5
					C139,57.1,130.3,65.8,119.5,65.8z M119.5,30.1c-8.9,0-16.2,7.3-16.2,16.2s7.3,16.2,16.2,16.2s16.2-7.3,16.2-16.2
					S128.4,30.1,119.5,30.1z"/>
			</g>
			<g>
				<path fill="#FFD552" d="M119.5,59.2c-7.1,0-12.9-5.8-12.9-12.9s5.8-12.9,12.9-12.9c7.1,0,12.9,5.8,12.9,12.9
					C132.4,53.4,126.6,59.2,119.5,59.2z"/>
			</g>
			<g>
				<path fill="#4A555F" d="M155.4,96.8H152c0-1.3,0-2.6,0-3.9c0-2.5,0.1-5.2,0-7.7c-0.3-10.9-9-19.2-20.1-19.4c-5-0.1-10,0-14.9,0
					c-3,0-6.1,0-9.1,0c-2.3,0-4.7,0-6.9,0.4c-5.5,1.1-10.4,4.6-13.2,9.5c-3,5.1-2.8,11.4-2.7,17.4c0,1.3,0.1,2.5,0.1,3.7h-3.3
					c0-1.2,0-2.4-0.1-3.6c-0.1-6.5-0.3-13.2,3.1-19.1c3.3-5.7,9.1-9.8,15.5-11.1c2.5-0.5,5.1-0.5,7.6-0.4c3,0,6,0,9.1,0
					c4.9,0,10,0,15,0c12.7,0.2,23,10.1,23.4,22.6c0.1,2.6,0.1,5.3,0,7.9C155.4,94.3,155.4,95.6,155.4,96.8z"/>
			</g>
			<g>
				<path fill="#4A555F" d="M108.9,97l-4.4-34.5h6.9l6.8,8l-7.6,13.2l1.6,12.8L108.9,97z M108.3,65.8l1.6,12.5l4.2-7.4l-4.3-5.1
					H108.3z"/>
			</g>
			<g>
				<path fill="#4A555F" d="M130.4,97l-3.3-0.4l1.6-12.8l-7.6-13.2l6.8-8h6.9L130.4,97z M125.2,70.9l4.2,7.4l1.6-12.5h-1.6
					L125.2,70.9z"/>
			</g>
			<g>
				<rect x="117.9" y="74.8" fill="#4A555F" width="3.3" height="22.1"/>
			</g>
			<g>
				<polygon fill="#4A555F" points="119.5,77.4 114.9,71.8 117.4,69.7 119.6,72.3 122.2,69.4 124.7,71.6 				"/>
			</g>
			<g>
				<circle fill="#4A555F" cx="124.6" cy="87.5" r="1.9"/>
			</g>
		</g>
		<g>
			<path fill="#4A555F" d="M155.4,98.5H81.8V16.3h73.5V98.5z M85.1,95.2H152V19.6H85.1V95.2z"/>
		</g>
		<g>
			<rect x="175.5" y="30.7" fill="#4A555F" width="56.4" height="3.3"/>
		</g>
		<g>
			<rect x="175.5" y="48.6" fill="#4A555F" width="56.4" height="3.3"/>
		</g>
		<g>
			<rect x="175.5" y="66.5" fill="#4A555F" width="56.4" height="3.3"/>
		</g>
		<g>
			<rect x="175.5" y="84.4" fill="#4A555F" width="56.4" height="3.3"/>
		</g>
		<g>
			<rect x="83.7" y="123.6" fill="#4A555F" width="13.3" height="3.3"/>
		</g>
		<g>
			<rect x="109.5" y="123.6" fill="#4A555F" width="122.4" height="3.3"/>
		</g>
		<g>
			<rect x="109.5" y="142.5" fill="#4A555F" width="122.4" height="3.3"/>
		</g>
		<g>
			<rect x="83.7" y="163.8" fill="#4A555F" width="13.3" height="3.3"/>
		</g>
		<g>
			<rect x="109.5" y="163.8" fill="#4A555F" width="122.4" height="3.3"/>
		</g>
		<g>
			<rect x="109.5" y="182.8" fill="#4A555F" width="122.4" height="3.3"/>
		</g>
		<g>
			<rect x="83.7" y="204.1" fill="#4A555F" width="13.3" height="3.3"/>
		</g>
		<g>
			<rect x="109.5" y="204.1" fill="#4A555F" width="122.4" height="3.3"/>
		</g>
		<g>
			<rect x="109.5" y="223.1" fill="#4A555F" width="122.4" height="3.3"/>
		</g>
	</g>
	<g>
		<path fill="#4A555F" d="M41,135.9H11.4V25.7H41V135.9z M14.7,132.6h23V29h-23V132.6z"/>
	</g>
	<g>
		<rect x="18.5" y="32.9" fill="#F68F6F" width="15.3" height="95.9"/>
	</g>
	<g>
		<path fill="#4A555F" d="M30.8,247.3h-9.2l-0.3-1.5c-6.6-34-9.9-68.8-9.9-103.4v-9.8H41v9.8c0,34.6-3.3,69.4-9.9,103.4L30.8,247.3z
			 M24.3,244h3.7c6.4-33.4,9.6-67.6,9.6-101.6v-6.5h-23v6.5C14.7,176.4,17.9,210.6,24.3,244z"/>
	</g>
	<g>
		<path fill="#F68F6F" d="M26.2,232.7c-5.1-29.8-7.7-60.1-7.7-90.3v-2.6h15.3v2.6C33.9,172.6,31.3,202.9,26.2,232.7z"/>
	</g>
	<g>
		<polygon fill="#4A555F" points="8.7,102.1 5.4,102.1 5.4,18.9 41,18.9 41,27.4 37.7,27.4 37.7,22.2 8.7,22.2 		"/>
	</g>
	<g>
		<rect x="24.5" y="245.7" fill="#4A555F" width="3.3" height="10.3"/>
	</g>
	<g>
		<path fill="#4A555F" d="M250.6,254.1H64.8V0h185.8V254.1z M68.1,250.8h179.2V3.3H68.1V250.8z"/>
	</g>
</g>
</svg>
