<?xml version="1.0" encoding="iso-8859-1"?>
<!-- Generator: Adobe Illustrator 19.0.0, SVG Export Plug-In . SVG Version: 6.00 Build 0)  -->
<svg xmlns="http://www.w3.org/2000/svg" xmlns:xlink="http://www.w3.org/1999/xlink" version="1.1" id="Layer_1" x="0px" y="0px" viewBox="0 0 511.998 511.998" style="enable-background:new 0 0 511.998 511.998;" xml:space="preserve">
<path style="fill:#3E3B43;" d="M98.24,184.776l0.304-130.302c0.019-8.533,7.019-15.5,15.552-15.479l38.279,0.089l206.451,0.483  l39.417,0.092c8.533,0.019,15.5,7.019,15.479,15.552l-0.304,130.302L98.24,184.776z"/>
<rect x="153.172" y="7.687" style="fill:#FFF5CC;" width="205.658" height="177.453"/>
<path style="fill:#3E3B43;" d="M413.74,348.648l-0.304,65.12c-0.02,8.533-7.019,15.5-15.552,15.479l-39.056-0.091l-206.453-0.483  l-38.638-0.09c-8.533-0.02-15.5-7.019-15.479-15.552l0.304-65.12L413.74,348.648z"/>
<path style="fill:#DFDFE2;" d="M98.409,388.58H35.748c-5.718,0-10.354-4.636-10.354-10.354V195.497  c0-5.718,4.636-10.354,10.354-10.354h440.501c5.718,0,10.354,4.636,10.354,10.354v182.728c0,5.718-4.636,10.354-10.354,10.354  h-61.917H98.409V388.58z"/>
<rect x="104.089" y="216.994" style="fill:#FFDA44;" width="181.316" height="43.2"/>
<circle style="fill:#4E8FE3;" cx="332.377" cy="237.071" r="14.603"/>
<circle style="fill:#FF0C38;" cx="399.734" cy="237.071" r="14.603"/>
<polyline style="fill:#3E3B43;" points="152.375,350.272 98.409,350.272 98.409,307.903 413.588,307.903 413.588,350.272   358.828,350.272 "/>
<rect x="104.089" y="216.994" style="fill:#FFF5CC;" width="42.605" height="43.2"/>
<path style="opacity:0.22;fill:#2F2D30;enable-background:new    ;" d="M476.249,185.143h-30.906  c5.718,0,10.354,4.636,10.354,10.354v157.01H25.394v25.718c0,5.718,4.636,10.354,10.354,10.354h62.661h315.924h31.011h30.906  c1.43,0,2.792-0.29,4.03-0.814c3.716-1.572,6.324-5.252,6.324-9.54l0,0v-18.544V195.498  C486.603,189.779,481.967,185.143,476.249,185.143z"/>
<rect x="152.372" y="307.903" style="fill:#FFF5CC;" width="205.658" height="196.413"/>
<rect x="153.172" y="166.65" style="fill:#FFDA44;" width="205.658" height="18.489"/>
<g>
	<path style="fill:#231F20;" d="M476.249,177.458h-55.126l0.286-122.229c0.014-6.18-2.39-12.008-6.771-16.409   c-4.38-4.401-10.197-6.833-16.377-6.847l-31.747-0.074V7.687c0-4.245-3.441-7.687-7.687-7.687H153.171   c-4.246,0-7.687,3.442-7.687,7.687v23.695l-31.369-0.074c-0.019,0-0.037,0-0.055,0c-12.768,0-23.171,10.373-23.202,23.148   L90.57,177.457H35.749c-9.948,0-18.041,8.093-18.041,18.04v182.728c0,9.948,8.093,18.04,18.041,18.04h54.9l-0.078,16.747   c-0.014,6.18,2.39,12.008,6.771,16.409c4.38,4.401,10.197,6.833,16.377,6.847l30.97,0.072v67.971c0,4.245,3.441,7.687,7.687,7.687   h205.657c4.246,0,7.687-3.442,7.687-7.687v-67.454l32.147,0.075c0.019,0,0.037,0,0.056,0c6.16,0,11.966-2.403,16.353-6.771   c4.401-4.38,6.833-10.197,6.847-16.36l0.082-17.537h55.044c9.948,0,18.041-8.093,18.041-18.04V195.498   C494.29,185.55,486.197,177.458,476.249,177.458z M366.514,47.272l31.71,0.074c4.317,0.01,7.821,3.53,7.811,7.847l-0.287,122.264   h-39.234V47.272H366.514z M160.856,15.374h190.284V39.51c0,0.013-0.002,0.026-0.002,0.038c0,0.014,0.002,0.028,0.002,0.042v137.868   H160.856V15.374z M106.23,54.491c0.005-2.073,0.829-4.034,2.319-5.517c1.486-1.48,3.442-2.294,5.51-2.294c0.006,0,0.012,0,0.018,0   l31.406,0.074v130.702h-39.54L106.23,54.491z M144.688,420.969l-30.934-0.072c-4.317-0.01-7.821-3.53-7.811-7.829l0.111-23.691   c0.027-0.262,0.041-0.529,0.041-0.797c0-0.231-0.014-0.458-0.035-0.684l0.139-29.937h38.487v63.009H144.688z M144.688,342.585   h-38.592V315.59h38.592V342.585z M350.345,496.626H160.062V315.59h190.283V496.626z M405.75,413.749   c-0.01,4.311-3.521,7.811-7.828,7.811c-0.006,0-0.013,0-0.02,0l-32.183-0.075v-63.527h40.291L405.75,413.749z M365.719,342.585   V315.59h40.183v26.994h-40.183V342.585z M478.916,378.226c0,1.471-1.196,2.667-2.668,2.667h-54.971l0.151-32.208   c0.002-0.535-0.05-1.058-0.152-1.563v-39.219c0-4.245-3.441-7.687-7.687-7.687h-55.556H152.375H98.41   c-4.246,0-7.687,3.442-7.687,7.687v42.368c0,0.481,0.05,0.95,0.134,1.406l-0.136,29.215H35.749c-1.472,0-2.668-1.196-2.668-2.667   V195.498c0-1.471,1.196-2.667,2.668-2.667h117.421h205.658h52.241c0.735,0.236,1.518,0.366,2.331,0.368c0.006,0,0.012,0,0.018,0   c0.819,0,1.606-0.131,2.346-0.368h60.486c1.472,0,2.668,1.196,2.668,2.667v182.728H478.916z"/>
	<path style="fill:#231F20;" d="M285.408,209.309H146.693h-42.604c-4.246,0-7.687,3.442-7.687,7.687v42.605v0.595   c0,4.245,3.441,7.687,7.687,7.687h181.32c4.246,0,7.687-3.442,7.687-7.687v-43.2C293.095,212.75,289.653,209.309,285.408,209.309z    M111.775,224.682h27.231v27.232h-27.231V224.682z M277.721,252.509H154.38v-27.826h123.342V252.509z"/>
	<path style="fill:#231F20;" d="M332.376,214.784c-12.291,0-22.29,9.999-22.29,22.29c0,12.291,9.999,22.29,22.29,22.29   c12.291,0,22.29-9.999,22.29-22.29C354.665,224.783,344.666,214.784,332.376,214.784z M332.376,243.991   c-3.814,0-6.916-3.102-6.916-6.916c0-3.814,3.102-6.916,6.916-6.916s6.916,3.102,6.916,6.916   C339.292,240.888,336.189,243.991,332.376,243.991z"/>
	<path style="fill:#231F20;" d="M399.731,214.784c-12.291,0-22.29,9.999-22.29,22.29c0,12.291,9.999,22.29,22.29,22.29   c12.291,0,22.29-9.999,22.29-22.29C422.02,224.783,412.021,214.784,399.731,214.784z M399.731,243.991   c-3.814,0-6.916-3.102-6.916-6.916c0-3.814,3.102-6.916,6.916-6.916s6.916,3.102,6.916,6.916   C406.647,240.888,403.543,243.991,399.731,243.991z"/>
	<path style="fill:#231F20;" d="M179.007,472.579h96.101c4.246,0,7.687-3.442,7.687-7.687c0-4.245-3.441-7.687-7.687-7.687h-96.101   c-4.246,0-7.687,3.442-7.687,7.687C171.321,469.137,174.762,472.579,179.007,472.579z"/>
	<path style="fill:#231F20;" d="M327.034,457.205h-27.726c-4.246,0-7.687,3.442-7.687,7.687c0,4.245,3.441,7.687,7.687,7.687h27.726   c4.246,0,7.687-3.442,7.687-7.687C334.721,460.647,331.279,457.205,327.034,457.205z"/>
	<path style="fill:#231F20;" d="M179.007,447.202h61.56c4.246,0,7.687-3.442,7.687-7.687s-3.441-7.687-7.687-7.687h-61.56   c-4.246,0-7.687,3.442-7.687,7.687S174.762,447.202,179.007,447.202z"/>
	<path style="fill:#231F20;" d="M327.034,431.829h-61.559c-4.246,0-7.687,3.442-7.687,7.687s3.441,7.687,7.687,7.687h61.559   c4.246,0,7.687-3.442,7.687-7.687S331.279,431.829,327.034,431.829z"/>
	<path style="fill:#231F20;" d="M179.007,421.827h148.026c4.246,0,7.687-3.442,7.687-7.687s-3.441-7.687-7.687-7.687H179.007   c-4.246,0-7.687,3.442-7.687,7.687S174.762,421.827,179.007,421.827z"/>
	<path style="fill:#231F20;" d="M223.181,396.451h103.853c4.246,0,7.687-3.442,7.687-7.687s-3.441-7.687-7.687-7.687H223.181   c-4.246,0-7.687,3.442-7.687,7.687S218.935,396.451,223.181,396.451z"/>
	<path style="fill:#231F20;" d="M259.365,371.204h67.669c4.246,0,7.687-3.442,7.687-7.687c0-4.245-3.441-7.687-7.687-7.687h-67.669   c-4.246,0-7.687,3.442-7.687,7.687C251.679,367.763,255.119,371.204,259.365,371.204z"/>
</g>
<g>
</g>
<g>
</g>
<g>
</g>
<g>
</g>
<g>
</g>
<g>
</g>
<g>
</g>
<g>
</g>
<g>
</g>
<g>
</g>
<g>
</g>
<g>
</g>
<g>
</g>
<g>
</g>
<g>
</g>
</svg>
