<svg xmlns="http://www.w3.org/2000/svg" viewBox="0 0 60 60"><defs><style>.cls-1{fill:#ffc247;}.cls-2{fill:#ffe45c;}.cls-3{fill:#ffda45;}.cls-4{opacity:0.54;}.cls-5{fill:#fff;}.cls-6{fill:#bec3d2;}.cls-7{fill:#ff636e;}.cls-8{fill:#65b1fc;}.cls-9{fill:#4a89f7;}.cls-10{fill:#4a98f7;}.cls-11{fill:#87c7ff;}.cls-12{fill:#dce1eb;}.cls-13{fill:#9196aa;}.cls-14{fill:#f2f6fc;}.cls-15{fill:#2b1505;}</style></defs><title>26-Mail Box</title><g id="_26-Mail_Box" data-name="26-Mail Box"><path class="cls-1" d="M33,36a2.993,2.993,0,0,1-.88,2.12L32,38,21,27l-.35-.51L33,18Z"/><path class="cls-2" d="M33,18,20.65,26.49,17,29l-3.65-2.51L1,18a3,3,0,0,1,3-3H30A3,3,0,0,1,33,18Z"/><path class="cls-1" d="M13,27,2,38l-.12.12A2.993,2.993,0,0,1,1,36V18l12.35,8.49Z"/><path class="cls-2" d="M21,27,32,38l.12.12A2.993,2.993,0,0,1,30,39H4a2.993,2.993,0,0,1-2.12-.88L2,38,13,27l.35-.51L17,29l3.65-2.51Z"/><path class="cls-3" d="M32,38l-2.141-2.141A2.943,2.943,0,0,1,29,36H4L2,38l-.12.12A2.993,2.993,0,0,0,4,39H30a2.993,2.993,0,0,0,2.12-.88Z"/><polygon class="cls-1" points="17 32 20.65 29.49 22.333 28.333 21 27 20.65 26.49 17 29 13.35 26.49 13 27 11.667 28.333 13.35 29.49 17 32"/><g class="cls-4"><path class="cls-5" d="M7.594,15H4a3,3,0,0,0-3,3l2.021,1.389A4.577,4.577,0,0,1,7.594,15Z"/></g><path class="cls-6" d="M33,43V53a3,3,0,0,1-6,0V43h6Z"/><polygon class="cls-7" points="47 4 43 8 47 12 38 12 38 8 38 4 47 4"/><path class="cls-8" d="M38,12h9L43,8h4A12,12,0,0,1,59,20V43H30V20A11.973,11.973,0,0,0,18,8H38Zm0,7a3,3,0,1,0,3,3A3,3,0,0,0,38,19Z"/><polygon class="cls-9" points="30 39 30 43 27 43 6 43 6 39 30 39"/><path class="cls-9" d="M28.82,14.79,28,15H7.09a12.009,12.009,0,0,1,21.73-.21Z"/><path class="cls-10" d="M35,20A11.973,11.973,0,0,0,23,8H18A11.973,11.973,0,0,1,30,20V43h5V20Z"/><path class="cls-11" d="M39,20A11.973,11.973,0,0,0,27,8H23A11.973,11.973,0,0,1,35,20V43h4V20Z"/><circle class="cls-12" cx="38" cy="22" r="3"/><rect class="cls-13" x="27" y="43" width="6" height="3"/><path class="cls-14" d="M52,32a3,3,0,0,1,0,6H37a3,3,0,0,1,0-6Z"/><path class="cls-15" d="M47,7H45.414l2.293-2.293A1,1,0,0,0,47,3H38a1,1,0,0,0-1,1V7H18A13.026,13.026,0,0,0,6.474,14H4A4,4,0,0,0,.02,17.8h0c0,.067-.02.131-.02.2V36a4,4,0,0,0,4,4H5v3a1,1,0,0,0,1,1H26v9a4,4,0,0,0,8,0V44H59a1,1,0,0,0,1-1V20A13.015,13.015,0,0,0,47,7ZM39,5h5.586L42.293,7.293a1,1,0,0,0,0,1.414L44.586,11H39ZM38,20a2,2,0,1,1-2,2A2,2,0,0,1,38,20ZM18,9a10.912,10.912,0,0,1,9.219,5H8.78A11.032,11.032,0,0,1,18,9ZM29,33.586l-6.9-6.9L29,21.909ZM4,16H28a.972.972,0,0,0,.222-.045,10.894,10.894,0,0,1,.75,3.54L17,27.785,2.065,17.519A2,2,0,0,1,4,16ZM2.075,36.511A1.96,1.96,0,0,1,2,36V19.9l9.887,6.8Zm1.414,1.414L13.563,27.851l2.871,1.973a1,1,0,0,0,1.135,0l2.86-1.979L29,36.414V38H4A1.96,1.96,0,0,1,3.489,37.925ZM7,40H29v2H7ZM32,53a2,2,0,0,1-4,0V44h4ZM58,42H31V20A13.008,13.008,0,0,0,24.964,9H37v9.142a4,4,0,1,0,2,0V13h8a1,1,0,0,0,.707-1.707L45.414,9H47A11.013,11.013,0,0,1,58,20Z"/><path class="cls-15" d="M37,31a4,4,0,0,0,0,8H52a4,4,0,0,0,0-8Zm15.511,2.075L48.586,37H46.414l4-4H52A1.96,1.96,0,0,1,52.511,33.075ZM41.414,37l4-4h2.172l-4,4ZM37,33h.586l-2.511,2.511A1.96,1.96,0,0,1,35,35,2,2,0,0,1,37,33Zm-.511,3.925L40.414,33h2.172l-4,4H37A1.96,1.96,0,0,1,36.489,36.925ZM52,37h-.586l2.511-2.511A1.96,1.96,0,0,1,54,35,2,2,0,0,1,52,37Z"/></g></svg>