<?xml version="1.0" encoding="iso-8859-1"?>
<!-- Generator: Adobe Illustrator 19.0.0, SVG Export Plug-In . SVG Version: 6.00 Build 0)  -->
<svg version="1.1" id="Layer_1" xmlns="http://www.w3.org/2000/svg" xmlns:xlink="http://www.w3.org/1999/xlink" x="0px" y="0px"
	 viewBox="0 0 512 512" style="enable-background:new 0 0 512 512;" xml:space="preserve">
<path style="fill:#E24F62;" d="M327.965,52.08l59.766,9.006l0,0c0,0,116.665,108.611,116.665,111.43
	c0,2.82-55.39,75.113-55.39,75.113l-61.274-40.436v280.353H124.269V207.193l-61.274,40.436c0,0-55.39-72.293-55.39-75.113
	c0-2.82,116.664-111.43,116.664-111.43l59.622-9.093"/>
<path style="fill:#BF3034;" d="M330.221,238.604h-4.875c-12.148,0-21.996-9.848-21.996-21.996v-36.103h48.867v36.103
	C352.216,228.756,342.368,238.604,330.221,238.604z"/>
<g style="opacity:0.33;">
	<polygon style="fill:#A53528;" points="200.807,48.654 311.749,48.654 257.408,102.996 241.986,102.996 193.304,54.313 	"/>
</g>
<path style="fill:#BF3034;" d="M314.914,27.676h-117.77c-7.21,0-13.108,5.899-13.108,13.108v27.695
	c0,7.21,5.899,13.108,13.108,13.108l24.615,54.914l33.37-33.37l33.37,33.37l26.415-54.914c7.21,0,13.108-5.899,13.108-13.108V40.784
	C328.024,33.575,322.125,27.676,314.914,27.676z M255.086,103.13L206.65,54.695h0.044h96.828L255.086,103.13z"/>
<g>
	<path style="fill:#A53528;" d="M314.936,27.676h-59.829h-57.941c-4.662,0-8.765,2.475-11.09,6.167
		c5.585,5.615,13.21,13.28,20.742,20.852h48.289h48.419l21.819-21.832C322.943,29.721,319.172,27.676,314.936,27.676z"/>
</g>
<g>
	<path style="fill:#BF3034;" d="M7.604,172.73c0,2.82,55.39,75.113,55.39,75.113l31.958-21.089l-61.244-80.203
		C18.542,161.087,7.604,171.867,7.604,172.73z"/>
	<path style="fill:#BF3034;" d="M504.396,172.73c0,2.82-55.39,75.113-55.39,75.113l-31.958-21.089l61.244-80.203
		C493.46,161.087,504.396,171.867,504.396,172.73z"/>
	<polygon style="fill:#BF3034;" points="124.269,207.193 124.269,186.36 107.288,218.399 	"/>
	<polygon style="fill:#BF3034;" points="387.732,207.193 387.732,186.36 404.713,218.399 	"/>
	<path style="fill:#BF3034;" d="M387.732,360.819h-94.516c-7.501,0-13.637-6.137-13.637-13.637l0,0
		c0-7.501,6.137-13.637,13.637-13.637h94.516V360.819z"/>
	<path style="fill:#BF3034;" d="M387.732,403.816h-94.516c-7.501,0-13.637-6.137-13.637-13.637l0,0
		c0-7.501,6.137-13.637,13.637-13.637h94.516V403.816z"/>
</g>
<path d="M504.929,161.713c-2.997-3.047-7.386-7.37-13.046-12.848c-1.786-1.729-3.705-3.579-5.755-5.548
	c-0.496-1.056-1.237-2.018-2.223-2.781c-0.535-0.415-1.111-0.737-1.706-0.989c-8.193-7.843-18.155-17.298-29.771-28.256
	c-27.901-26.321-56.135-52.627-59.478-55.739c-1.095-1.033-2.501-1.749-4.084-1.986l-53.296-8.032v-7.978
	c0-11.418-9.289-20.707-20.707-20.707H197.138c-11.418,0-20.707,9.289-20.707,20.707v7.881l-53.31,8.131
	c-1.511,0.23-2.916,0.91-4.034,1.952c-0.292,0.272-29.518,27.484-58.368,54.691c-12.859,12.127-23.733,22.451-32.471,30.826
	c-0.005,0.005-0.009,0.009-0.014,0.014c-2.779,2.664-5.347,5.135-7.687,7.399c-5.79,5.6-10.281,10.018-13.348,13.134
	C1.96,166.905,0,168.896,0,172.517c0,3.217,0,4.301,29.22,43.181c13.709,18.243,27.599,36.374,27.737,36.556
	c2.428,3.168,6.892,3.922,10.224,1.722l49.483-32.653v24.001v242.223c0,4.199,3.405,7.604,7.604,7.604h263.463
	c4.199,0,7.604-3.405,7.604-7.604V221.321l49.483,32.653c3.332,2.199,7.797,1.447,10.224-1.722
	c0.139-0.181,14.027-18.312,27.737-36.556C512,176.817,512,175.733,512,172.516C512,168.903,510.075,166.945,504.929,161.713z
	 M191.64,37.557c0-3.032,2.467-5.499,5.499-5.499h117.723c3.032,0,5.499,2.467,5.499,5.499V65.24c0,3.032-2.467,5.499-5.499,5.499
	c-2.922,0-5.585,1.674-6.853,4.308l-21.756,45.229l-20.399-20.399l43.039-43.039c2.97-2.97,2.97-7.784,0-10.753
	c-2.969-2.97-7.783-2.97-10.753,0l-5.062,5.062c-0.385-0.06-0.777-0.1-1.178-0.1h-73.39c-0.464,0-0.918,0.049-1.36,0.128l-5.09-5.09
	c-2.97-2.97-7.784-2.97-10.753,0c-2.97,2.97-2.97,7.784,0,10.753l43.039,43.039l-20.178,20.178l-20.092-44.823
	c-1.225-2.734-3.943-4.493-6.939-4.493c-3.032,0-5.499-2.467-5.499-5.499L191.64,37.557L191.64,37.557z M255.1,89.124l-22.87-22.87
	h45.74L255.1,89.124z M64.725,237.376c-19.96-26.125-40.701-53.789-47.763-64.056c3.227-3.317,8.707-8.69,15.69-15.422
	l51.548,66.626L64.725,237.376z M395.195,203.008v-29.764c0-4.199-3.405-7.604-7.604-7.604c-4.199,0-7.604,3.405-7.604,7.604v72.078
	c0,0.492,0.051,0.972,0.14,1.438v233.181H131.873V245.323v-38.129v-33.948c0-4.199-3.405-7.604-7.604-7.604
	c-4.199,0-7.604,3.405-7.604,7.604v29.856l-19.737,13.024l-53.238-68.81c24.323-23.213,58.625-55.391,84.043-79.066l48.698-7.428
	v4.418c0,9.614,6.586,17.719,15.483,20.04l22.89,51.065c1.023,2.282,3.102,3.916,5.562,4.368c0.458,0.084,0.919,0.126,1.376,0.126
	c1.998,0,3.938-0.788,5.376-2.227l27.981-27.981l27.981,27.981c1.744,1.743,4.226,2.533,6.652,2.119
	c2.43-0.414,4.509-1.979,5.577-4.2l24.636-51.215c8.968-2.272,15.623-10.411,15.623-20.075v-4.324l48.703,7.339
	c25.566,23.812,60.117,56.224,84.461,79.465l-53.173,68.727L395.195,203.008z M447.276,237.376l-18.987-12.529l51.482-66.541
	c6.783,6.542,12.105,11.764,15.268,15.014C487.977,183.586,467.235,211.251,447.276,237.376z"/>
<path d="M352.215,172.901h-48.866c-4.199,0-7.604,3.405-7.604,7.604v58.099c0,4.199,3.405,7.604,7.604,7.604h48.866
	c4.199,0,7.604-3.405,7.604-7.604v-58.099C359.819,176.306,356.415,172.901,352.215,172.901z M344.611,231.001h-33.658v-42.891
	h33.658V231.001z"/>
<g>
</g>
<g>
</g>
<g>
</g>
<g>
</g>
<g>
</g>
<g>
</g>
<g>
</g>
<g>
</g>
<g>
</g>
<g>
</g>
<g>
</g>
<g>
</g>
<g>
</g>
<g>
</g>
<g>
</g>
</svg>
