<svg xmlns="http://www.w3.org/2000/svg" viewBox="0 0 48 48"><defs><style>.cls-1{fill:#db5669;}.cls-2{fill:#f26674;}.cls-3{fill:#fc6;}.cls-4{fill:#ffde76;}.cls-5{fill:#9fdbf3;}.cls-6{fill:#b2e5fb;}.cls-7{fill:#7c7d7d;}.cls-8{fill:#919191;}.cls-9{fill:#747575;}.cls-10{fill:#9dcc6b;}.cls-11{fill:#b5e08c;}</style></defs><title>Developing shape product</title><g id="Developing_shape_product" data-name="Developing shape product"><polygon class="cls-1" points="29 11 19 11 24 1 29 11"/><path class="cls-2" d="M28,9H24.24a2,2,0,0,1-1.79-2.89L24.5,2Z"/><rect class="cls-3" x="37" y="19" width="10" height="10"/><path class="cls-4" d="M47,19c0,8.55-.1,8,0,8a8,8,0,0,1-8-8Z"/><path class="cls-5" d="M11,24a5,5,0,1,1-8.86-3.18A5,5,0,0,1,11,24Z"/><path class="cls-6" d="M11,24c0,1.2-.23,1.31-.46,1.54a5,5,0,0,1-8.4-4.72A5,5,0,0,1,11,24Z"/><path class="cls-7" d="M30.71,26a7,7,0,0,1-.55,1.33L31.78,29,29,31.78l-1.62-1.62a7,7,0,0,1-1.33.55V33H22V30.71a7,7,0,0,1-1.33-.55l-1.62,1.62L16.22,29l1.62-1.62A7,7,0,0,1,17.29,26H15V22h2.29c.53-1.75.86-1-.08-2l-1-1,2.83-2.83,1.62,1.62A7,7,0,0,1,22,17.29V15h4v2.29a7,7,0,0,1,1.33.55L29,16.22l2.83,2.83-1.62,1.62A7,7,0,0,1,30.71,22H33v4Z"/><path class="cls-8" d="M30.71,26a7,7,0,0,1-.55,1.33l1.59,1.59A9,9,0,0,1,28,30.79l-.63-.63C25.85,31,26,30.41,26,31a9,9,0,0,1-9-9h.29c.53-1.75.86-1-.08-2a9,9,0,0,1,1.87-3.79l1.59,1.59A7,7,0,0,1,22,17.29V15h4v2.29a7,7,0,0,1,1.33.55L29,16.22l2.83,2.83-1.62,1.62A7,7,0,0,1,30.71,22H33v4Z"/><path class="cls-9" d="M27,24a3,3,0,1,1-5.56-1.56A3,3,0,0,1,27,24Z"/><path class="cls-7" d="M25.56,26.56a3,3,0,0,1-4.12-4.12A3,3,0,0,1,25.56,26.56Z"/><path class="cls-10" d="M29.77,42c-2.1,3.65-1.42,2.45-2.88,5H21.11l-2.88-5,2.88-5h5.78Z"/><path class="cls-11" d="M29.77,42,28,45H26a5,5,0,0,1-4.33-7.5L22,37h4.93Z"/><path d="M19,12c10.61,0,10.44.19,10.85-.47s.41-.25-5-11a1,1,0,0,0-1.78,0l-5,10A1,1,0,0,0,19,12Zm5-8.76L27.38,10H20.62Z"/><path d="M47,18H37a1,1,0,0,0-1,1V29a1,1,0,0,0,1,1H47a1,1,0,0,0,1-1V19A1,1,0,0,0,47,18ZM46,28H38V20h8Z"/><path d="M12,24a6,6,0,1,0-6,6A6,6,0,0,0,12,24ZM6,28a4,4,0,1,1,4-4A4,4,0,0,1,6,28Z"/><path d="M33,27a1,1,0,0,0,1-1V22a1,1,0,0,0-1-1c-2.15,0-2,.25-.51-1.24a1,1,0,0,0,0-1.42l-2.83-2.83a1,1,0,0,0-1.42,0C26.74,17,27,17.14,27,15a1,1,0,0,0-1-1H22a1,1,0,0,0-1,1c0,1.8.05,1.56-.12,1.63-2.13-2.13-1.52-2.13-5.37,1.71a1,1,0,0,0,0,1.42C17,21.25,17.15,21,15,21a1,1,0,0,0-1,1v4a1,1,0,0,0,1,1c1.81,0,1.56-.05,1.63.12-2.12,2.13-2.13,1.52,1.71,5.37a1,1,0,0,0,1.42,0C21.28,31,21,30.89,21,33a1,1,0,0,0,1,1h4a1,1,0,0,0,1-1c0-2.15-.25-2,1.24-.51a1,1,0,0,0,1.42,0c3.83-3.84,3.84-3.23,1.71-5.37C31.44,27,31.18,27,33,27Zm-3.72-.15c-.44.81.25,1.26,1.08,2.1L29,30.36c-1.8-1.8-1.11-1.25-3.24-.61-.86.25-.71,1-.71,2.25H23c0-2.58.08-1.67-1.85-2.72-.8-.43-1.26.24-2.1,1.08L17.64,29c1.81-1.81,1.24-1.12.61-3.24C18,24.85,17.22,25,16,25V23c2.58,0,1.67.09,2.72-1.85.43-.8-.22-1.24-1.08-2.1l1.41-1.41c1.81,1.8,1.12,1.25,3.24.61.86-.25.71-1,.71-2.25h2c0,2.58-.08,1.67,1.85,2.72.77.41,1.18-.16,2.1-1.08l1.41,1.41c-1.81,1.81-1.24,1.11-.61,3.24.25.85,1,.71,2.25.71v2C29.42,25,30.33,24.92,29.28,26.85Z"/><path d="M24,20a4,4,0,1,0,4,4A4,4,0,0,0,24,20Zm0,6a2,2,0,1,1,2-2A2,2,0,0,1,24,26Z"/><path d="M32.53,8.15a18,18,0,0,1,7.32,7.32,1,1,0,0,0,1.76-.94,20,20,0,0,0-8.14-8.14A1,1,0,0,0,32.53,8.15Z"/><path d="M39.85,32.53a18,18,0,0,1-7.32,7.32A1,1,0,0,0,33,41.73c1,0,5.9-3.21,8.61-8.26A1,1,0,0,0,39.85,32.53Z"/><path d="M15.47,39.85a18,18,0,0,1-7.32-7.32,1,1,0,0,0-1.76.94,20,20,0,0,0,8.14,8.14A1,1,0,0,0,15.47,39.85Z"/><path d="M8.15,15.47a18,18,0,0,1,7.32-7.32,1,1,0,0,0-.94-1.76,20,20,0,0,0-8.14,8.14A1,1,0,0,0,8.15,15.47Z"/><path d="M27.75,36.5c-.38-.67-.4-.5-6.64-.5-.77,0-.64.12-3.75,5.5-.39.67-.22.62,2.89,6,.38.67.4.5,6.64.5.77,0,.64-.12,3.75-5.5C31,41.83,30.86,41.88,27.75,36.5ZM26.31,46H21.69l-2.31-4,2.31-4h4.62l2.31,4Z"/></g></svg>