<svg id="icons" xmlns="http://www.w3.org/2000/svg" viewBox="0 0 340 340"><path d="M63.654,158.063c-7.574,3.317-89.939,91.959-35,136.618C75.5,335.72,175.092,323.039,234.662,277.146c37.173-26.775,89.067-74.941,95.036-138.189,3.477-40.31-26.4-71.268-68-73.511Z" style="fill:#cc0000"/><path d="M300.749,77.848c-9.73-6.3-22.48-11.218-39.053-12.4l-6.764,3.163c2.455,12.6,9.672,43.743,9.672,43.743l1.583,27.1L103.2,244.155c88.57,13.617,147.66-38.416,172.579-66.671a42.294,42.294,0,0,1,37.09-14.063l11.694,1.5C335.2,132.844,330.885,97.454,300.749,77.848Z" style="fill:#cc0000"/><path d="M50.826,133.868,52.1,208.991a27.114,27.114,0,0,0,10.492,21.07c41.71,30.705,149.527,16.572,204.653-72.495a82.588,82.588,0,0,0,11.016-41.56c-.036-27.333-4.532-72.8-33.687-76.487a33.919,33.919,0,0,1-15.108-5.868c-10.518-7.329-32.3-18.148-63.19-11.5a92.978,92.978,0,0,0-23.068,8.42C123.631,40.182,51.346,85.139,50.826,133.868Z" style="fill:#cc0000"/><path d="M195.615,224.691c11.137-4.32,85.915-53.968,82.644-108.686a204.377,204.377,0,0,0-2.144-30.352c-23.2,61.512-50.082,82.665-90.328,105.426-46.726,25.85-98.881,30.321-134.022-1.808.8,14.9-2.842,30.34,10.826,40.79C79.74,243.239,128.919,257.831,195.615,224.691Z" style="fill:#000"/><path d="M221.263,67.1S186,70.429,118.882,128.978a27.176,27.176,0,0,1-15.682,6.757c-13.513,1.651-23.647-11.829-17.241-24.749,9.831-19.569,42.644-71.5,112.328-67.018C209.677,44.633,224.529,53.268,221.263,67.1Z" style="fill:#cc0000"/><path d="M267.244,157.565c13.113-22.256,12.373-46.319,8.871-71.912A289.036,289.036,0,0,1,264.3,112.965s6.658,47.7-25.1,79.687A161.8,161.8,0,0,0,267.244,157.565Z" style="fill:#cbcde5"/><path d="M26.475,297.423c101.809,77.616,291.3-30.458,306.709-158.136a68.752,68.752,0,0,0-42.6-70.74A3.5,3.5,0,0,0,287.874,75a70.148,70.148,0,0,1,11.459,6.1c18.761,12.378,29.061,34.42,26.881,57.524-11.007,89.69-107.335,161.338-186.3,174.973-55.694,9.425-90.062-6.578-109.087-21.663C-7.207,262.754,27.21,201.417,48.089,178.9c.074,6.675.423,23.318.511,30.153.91,19.574,14.538,28.17,33.555,34.283,58.342,16.432,140.531-8.667,188.118-84.01a86.018,86.018,0,0,0,11.444-40.449c.068-29.365-3.348-77.648-36.7-82.828a30.524,30.524,0,0,1-13.548-5.267C213.41,16.889,174.886,9.214,141.6,27.46c-18.4,9.5-63.755,36.21-87.4,78.874a55.072,55.072,0,0,0-6.877,27.593l.587,34.632C24.291,191.876-18.641,262.568,26.475,297.423ZM264.217,155.81c-14.785,26.984-48.386,54.517-70.18,65.756C128.752,255.044,56.664,242.823,55.6,208.932l-.01-.621-.189-11.18c37.515,27.556,87.3,21.853,132.112-3.006,41.993-22.876,67.471-48.245,86.674-94.244C275.984,118.958,274.268,139.3,264.217,155.81ZM144.813,33.678c30.459-16.78,66.2-9.914,82.651,2.846a37.576,37.576,0,0,0,16.67,6.467c17.393,2.2,25.124,21.748,28.4,42.231-23.7,62.377-51.64,81.981-88.469,102.811-44.76,24.676-94.257,29.672-128.823-.21l-.916-54.014C54.81,87.019,127.177,42.158,144.813,33.678Z" style="fill:#3f3f70"/><path d="M94.436,140.03a49.021,49.021,0,0,0,8.619-.808,30.65,30.65,0,0,0,18.127-7.607c65.31-56.89,99.893-60.957,100.518-61.043,2.385-.3,14.512-2.029,19.089-6.525,3.2-3.244-1.534-8.183-4.905-4.994-1.573,1.545-6.259,2.941-10.6,3.826-.094-12.393-14.424-21.974-26.768-22.4-51.636-5.089-96.906,29.284-115.68,68.941-1.913,3.671-5.024,15.374,1.69,15.135a3.5,3.5,0,0,0,3.089-3.867,14.48,14.48,0,0,1,1.475-8.127c10.551-21,42.29-69.386,108.977-65.1A25.124,25.124,0,0,1,212.32,52.8c4.3,3.46,6.257,7.157,5.931,11.247-6.674-.732-53.136,18.9-105.951,65.291-29.713,11.467-41.853-7.225-42.38-8.068a3.5,3.5,0,0,0-5.969,3.656C64.069,125.123,73.465,140.03,94.436,140.03Z" style="fill:#3f3f70"/></svg>