<svg xmlns="http://www.w3.org/2000/svg" viewBox="0 0 64 64"><defs><style>.cls-1{fill:#979faf;}.cls-2{fill:#adb2c7;}.cls-3{fill:#8dd5f6;}.cls-4{fill:#dfe1ea;}.cls-5{fill:#aedff7;}.cls-6{fill:#f6fafd;}.cls-7{fill:#7e8596;}.cls-8{fill:#0096cf;}.cls-9{fill:#fff;}.cls-10{fill:#73c6b2;}.cls-11{fill:#ffb13b;}.cls-12{fill:#ffc247;}.cls-13{fill:#f5e3a7;}</style></defs><title>87-Development</title><g id="_87-Development" data-name="87-Development"><rect class="cls-1" x="19" y="59" width="26" height="3"/><polygon class="cls-2" points="40 50 45 59 19 59 24 50 40 50"/><path class="cls-3" d="M63,4V42H1V4A2.006,2.006,0,0,1,3,2H61A2.006,2.006,0,0,1,63,4Z"/><path class="cls-4" d="M63,42v6a2.006,2.006,0,0,1-2,2H3a2.006,2.006,0,0,1-2-2V42Z"/><path class="cls-5" d="M61,2H3A2.006,2.006,0,0,0,1,4V18.844A26.743,26.743,0,0,0,9.2,20c7.6,0,7.6-2,15.2-2s7.6,2,15.2,2,7.6-2,15.2-2A26.787,26.787,0,0,1,63,19.157V4A2.006,2.006,0,0,0,61,2Z"/><path class="cls-6" d="M61,2H3A2.006,2.006,0,0,0,1,4v7.844A26.743,26.743,0,0,0,9.2,13c7.6,0,7.6-2,15.2-2s7.6,2,15.2,2,7.6-2,15.2-2A26.787,26.787,0,0,1,63,12.157V4A2.006,2.006,0,0,0,61,2Z"/><path class="cls-7" d="M24,50l-1.832,3.3A25.289,25.289,0,0,0,28.6,54c6.6,0,7.475-1.507,12.57-1.9L40,50Z"/><path class="cls-8" d="M27.073,22.4,25.356,19.54,19.515,9.8a1.051,1.051,0,0,0-1.8,0L11.705,19.812,10.155,22.4a1.056,1.056,0,0,0,.9,1.6H26.173A1.055,1.055,0,0,0,27.073,22.4Z"/><rect class="cls-4" x="30" y="15" width="21" height="23"/><rect class="cls-2" x="34" y="10" width="21" height="23"/><rect class="cls-9" x="38" y="15" width="20" height="14"/><rect class="cls-10" x="38" y="7" width="20" height="8"/><rect class="cls-4" x="41" y="18" width="14" height="8"/><rect class="cls-9" x="41" y="10" width="2" height="2"/><rect class="cls-9" x="45" y="10" width="2" height="2"/><rect class="cls-9" x="11" y="31" width="2" height="2"/><rect class="cls-9" x="19" y="31" width="2" height="2"/><g id="_Group_" data-name="&lt;Group&gt;"><path class="cls-11" d="M16.86,7.44l5.58,9.3L22,17H9.4l5.74-9.56A1,1,0,0,1,16.86,7.44Z"/><path class="cls-12" d="M24.08,19.47A1.008,1.008,0,0,1,23.22,21H8.78a1.008,1.008,0,0,1-.86-1.53L9.4,17H22l.44-.26Z"/><path class="cls-13" d="M11.779,13.037,9.4,17H22l.44-.26-1.681-2.8A25.388,25.388,0,0,0,13.394,13C12.809,13,12.282,13.015,11.779,13.037Z"/><path d="M45.293,18.293l-3,3a1,1,0,0,0,0,1.414l3,3,1.414-1.414L44.414,22l2.293-2.293Z"/><path d="M50.707,18.293l-1.414,1.414L51.586,22l-2.293,2.293,1.414,1.414,3-3a1,1,0,0,0,0-1.414Z"/><path d="M61,1H3A3,3,0,0,0,0,4V48a3,3,0,0,0,3,3H22.3l-4.175,7.515A.991.991,0,0,0,18,59v2H16v2H48V61H46V59a.991.991,0,0,0-.126-.485L41.7,51H61a3,3,0,0,0,3-3V4A3,3,0,0,0,61,1ZM3,3H61a1,1,0,0,1,1,1V41H2V4A1,1,0,0,1,3,3ZM20,61V60H44v1Zm23.3-3H20.7l3.889-7H39.412ZM61,49H3a1,1,0,0,1-1-1V43H62v5A1,1,0,0,1,61,49Z"/><path d="M30,39H51a1,1,0,0,0,1-1V34h3a1,1,0,0,0,1-1V30h2a1,1,0,0,0,1-1V7a1,1,0,0,0-1-1H38a1,1,0,0,0-1,1V9H34a1,1,0,0,0-1,1v4H30a1,1,0,0,0-1,1V38A1,1,0,0,0,30,39Zm9-11V16H57V28ZM57,8v6H39V8ZM35,11h2V29a1,1,0,0,0,1,1H54v2H35Zm-4,5h2V33a1,1,0,0,0,1,1H50v3H31Z"/><path d="M24.981,26.194A1,1,0,0,0,24,25H22v2h.865a5.872,5.872,0,0,0,.877,3.977A2.717,2.717,0,0,0,25,31.846v.308a2.717,2.717,0,0,0-1.258.869A5.872,5.872,0,0,0,22.865,37H22v2h2a1,1,0,0,0,.981-1.194c-.163-.827-.3-2.773.309-3.516A.81.81,0,0,1,26,34a1,1,0,0,0,1-1V31a1,1,0,0,0-1-1,.81.81,0,0,1-.71-.29C24.679,28.967,24.818,27.021,24.981,26.194Z"/><path d="M6,34a.81.81,0,0,1,.71.29c.611.743.472,2.689.309,3.516A1,1,0,0,0,8,39h2V37H9.135a5.872,5.872,0,0,0-.877-3.977A2.717,2.717,0,0,0,7,32.154v-.308a2.717,2.717,0,0,0,1.258-.869A5.872,5.872,0,0,0,9.135,27H10V25H8a1,1,0,0,0-.981,1.194c.163.827.3,2.773-.309,3.516A.81.81,0,0,1,6,30a1,1,0,0,0-1,1v2A1,1,0,0,0,6,34Z"/><rect x="15" y="31" width="2" height="2"/><path d="M8.78,22H23.22a2.007,2.007,0,0,0,1.717-3.045L17.718,6.927a2,2,0,0,0-3.435,0L7.067,18.947A2.008,2.008,0,0,0,8.78,22ZM16,7.955,20.83,16H11.17ZM9.969,18H22v-.046L23.22,20,8.778,19.983Z"/></g></g></svg>