<?xml version="1.0" encoding="utf-8"?>
<!-- Generator: Adobe Illustrator 22.0.0, SVG Export Plug-In . SVG Version: 6.00 Build 0)  -->
<svg version="1.1" xmlns="http://www.w3.org/2000/svg" xmlns:xlink="http://www.w3.org/1999/xlink" x="0px" y="0px"
	 viewBox="0 0 256 256" style="enable-background:new 0 0 256 256;" xml:space="preserve">
<style type="text/css">
	.st0{display:none;}
	.st1{display:inline;}
	.st2{fill:none;stroke:#6B1D1D;stroke-width:0.5;stroke-miterlimit:10;}
	.st3{fill:#3A312A;}
	.st4{fill:#87796F;}
	.st5{fill:#D5DE58;}
	.st6{fill:#695B51;}
	.st7{fill:#FCE8CB;}
	.st8{fill:#F16C7A;}
	.st9{fill:#8AC6DD;}
	.st10{fill:#DECAAD;}
	.st11{fill:#D6DF58;}
	.st12{fill-rule:evenodd;clip-rule:evenodd;fill:#FCE8CB;}
	.st13{fill:#F5978A;}
	.st14{fill:#D7E057;}
	.st15{fill-rule:evenodd;clip-rule:evenodd;fill:#87796F;}
	.st16{fill:#6CA8BF;}
	.st17{fill:#B9C239;}
	.st18{fill:#D34E5C;}
	.st19{fill:#FAE6CA;}
	.st20{fill:#F8E4C8;}
	.st21{fill:#8AC5DC;}
	.st22{fill:#EF6D7A;}
	.st23{fill:#EB6E7A;}
	.st24{fill:#89C4DB;}
	.st25{fill-rule:evenodd;clip-rule:evenodd;fill:#F16C7A;}
	.st26{fill:#F7E3C7;}
	.st27{fill:#F6E2C6;}
	.st28{fill:#ED6E7A;}
	.st29{fill:#8AC3DA;}
	.st30{fill:#D5DC57;}
	.st31{fill-rule:evenodd;clip-rule:evenodd;fill:#D7E057;}
	.st32{fill-rule:evenodd;clip-rule:evenodd;fill:#F8E4C8;}
	.st33{fill:#D4DB56;}
	.st34{fill:#F59689;}
	.st35{fill:#DDC9AC;}
	.st36{fill:#D24E5C;}
	.st37{fill:#6A5C52;}
	.st38{fill:#6CA6BE;}
	.st39{fill:#B8C136;}
	.st40{fill-rule:evenodd;clip-rule:evenodd;fill:#FAE6CA;}
</style>
<g id="Layer_2" class="st0">
	<g class="st1">
		<g>
			<line class="st2" x1="0" y1="4.829" x2="256" y2="4.829"/>
			<line class="st2" x1="0" y1="16.56" x2="256" y2="16.56"/>
			<line class="st2" x1="0" y1="28.29" x2="256" y2="28.29"/>
			<line class="st2" x1="0" y1="40.021" x2="256" y2="40.021"/>
			<line class="st2" x1="0" y1="51.751" x2="256" y2="51.751"/>
			<line class="st2" x1="0" y1="63.482" x2="256" y2="63.482"/>
			<line class="st2" x1="0" y1="75.213" x2="256" y2="75.213"/>
			<line class="st2" x1="0" y1="86.943" x2="256" y2="86.943"/>
			<line class="st2" x1="0" y1="98.674" x2="256" y2="98.674"/>
			<line class="st2" x1="0" y1="110.404" x2="256" y2="110.404"/>
			<line class="st2" x1="0" y1="122.135" x2="256" y2="122.135"/>
			<line class="st2" x1="0" y1="133.865" x2="256" y2="133.865"/>
			<line class="st2" x1="0" y1="145.596" x2="256" y2="145.596"/>
			<line class="st2" x1="0" y1="157.326" x2="256" y2="157.326"/>
			<line class="st2" x1="0" y1="169.057" x2="256" y2="169.057"/>
			<line class="st2" x1="0" y1="180.788" x2="256" y2="180.788"/>
			<line class="st2" x1="0" y1="192.518" x2="256" y2="192.518"/>
			<line class="st2" x1="0" y1="204.249" x2="256" y2="204.249"/>
			<line class="st2" x1="0" y1="215.979" x2="256" y2="215.979"/>
			<line class="st2" x1="0" y1="227.71" x2="256" y2="227.71"/>
			<line class="st2" x1="0" y1="239.44" x2="256" y2="239.44"/>
			<line class="st2" x1="0" y1="251.171" x2="256" y2="251.171"/>
		</g>
		<g>
			<line class="st2" x1="251.171" y1="0" x2="251.171" y2="256"/>
			<line class="st2" x1="239.44" y1="0" x2="239.44" y2="256"/>
			<line class="st2" x1="227.71" y1="0" x2="227.71" y2="256"/>
			<line class="st2" x1="215.979" y1="0" x2="215.979" y2="256"/>
			<line class="st2" x1="204.249" y1="0" x2="204.249" y2="256"/>
			<line class="st2" x1="192.518" y1="0" x2="192.518" y2="256"/>
			<line class="st2" x1="180.788" y1="0" x2="180.788" y2="256"/>
			<line class="st2" x1="169.057" y1="0" x2="169.057" y2="256"/>
			<line class="st2" x1="157.326" y1="0" x2="157.326" y2="256"/>
			<line class="st2" x1="145.596" y1="0" x2="145.596" y2="256"/>
			<line class="st2" x1="133.865" y1="0" x2="133.865" y2="256"/>
			<line class="st2" x1="122.135" y1="0" x2="122.135" y2="256"/>
			<line class="st2" x1="110.404" y1="0" x2="110.404" y2="256"/>
			<line class="st2" x1="98.674" y1="0" x2="98.674" y2="256"/>
			<line class="st2" x1="86.943" y1="0" x2="86.943" y2="256"/>
			<line class="st2" x1="75.213" y1="0" x2="75.213" y2="256"/>
			<line class="st2" x1="63.482" y1="0" x2="63.482" y2="256"/>
			<line class="st2" x1="51.751" y1="0" x2="51.751" y2="256"/>
			<line class="st2" x1="40.021" y1="0" x2="40.021" y2="256"/>
			<line class="st2" x1="28.29" y1="0" x2="28.29" y2="256"/>
			<line class="st2" x1="16.56" y1="0" x2="16.56" y2="256"/>
			<line class="st2" x1="4.829" y1="0" x2="4.829" y2="256"/>
		</g>
	</g>
</g>
<g id="Layer_1">
	<g>
		<path class="st11" d="M48.063,26.073c0,0,3.408,12.659,13.222,13.246c0,0-13.1,4.525-13.321,14.202
			c0,0-2.579-13.572-12.925-14.059C35.039,39.463,47.089,37.637,48.063,26.073z"/>
		<path class="st3" d="M47.963,55.021c-0.713,0-1.335-0.506-1.473-1.217c-0.023-0.124-2.494-12.417-11.521-12.842
			c-0.771-0.037-1.388-0.651-1.428-1.421c-0.04-0.771,0.511-1.445,1.273-1.561c0.441-0.069,10.894-1.817,11.754-12.032
			c0.062-0.725,0.635-1.301,1.359-1.367c0.731-0.064,1.394,0.399,1.584,1.101c0.031,0.116,3.259,11.626,11.863,12.14
			c0.714,0.043,1.297,0.584,1.396,1.292c0.098,0.708-0.318,1.388-0.994,1.623c-0.121,0.042-12.119,4.311-12.312,12.819
			c-0.018,0.767-0.61,1.396-1.375,1.459C48.047,55.02,48.005,55.021,47.963,55.021z M40.222,39.292
			c3.879,1.969,6.23,5.746,7.587,8.876c2.026-4.021,5.941-6.787,8.949-8.427c-4.135-1.842-6.783-5.651-8.334-8.722
			C46.631,35.378,43.152,37.887,40.222,39.292z"/>
		<path class="st11" d="M26.365,43.054c0,0,2.411,8.954,9.352,9.369c0,0-9.266,3.201-9.422,10.045c0,0-1.824-9.6-9.142-9.944
			C17.152,52.525,25.676,51.233,26.365,43.054z"/>
		<path class="st3" d="M26.293,63.969c-0.714,0-1.337-0.507-1.473-1.22c-0.016-0.082-1.704-8.442-7.738-8.726
			c-0.771-0.037-1.388-0.651-1.428-1.421c-0.04-0.771,0.511-1.445,1.273-1.561c0.296-0.047,7.363-1.243,7.941-8.113
			c0.062-0.726,0.636-1.303,1.361-1.368c0.721-0.058,1.392,0.399,1.581,1.101l0,0c0.022,0.079,2.229,7.92,7.994,8.264
			c0.714,0.043,1.299,0.584,1.396,1.293c0.097,0.709-0.32,1.388-0.996,1.622c-0.081,0.028-8.282,2.953-8.412,8.662
			c-0.017,0.767-0.611,1.397-1.376,1.461C26.376,63.967,26.334,63.969,26.293,63.969z M21.774,52.441
			c2.106,1.333,3.522,3.394,4.446,5.28c1.376-2.232,3.516-3.872,5.365-4.973c-2.287-1.269-3.884-3.35-4.941-5.224
			C25.472,49.812,23.63,51.4,21.774,52.441z"/>
		<path class="st11" d="M26.365,16.396c0,0,2.411,8.954,9.352,9.37c0,0-9.266,3.201-9.422,10.045c0,0-1.824-9.6-9.142-9.944
			C17.152,25.867,25.676,24.576,26.365,16.396z"/>
		<path class="st3" d="M26.293,37.312c-0.714,0-1.337-0.507-1.473-1.22c-0.016-0.082-1.704-8.442-7.738-8.726
			c-0.771-0.037-1.388-0.651-1.428-1.421c-0.04-0.771,0.511-1.445,1.273-1.56c0.296-0.047,7.363-1.243,7.941-8.114
			c0.062-0.726,0.636-1.303,1.361-1.368c0.721-0.057,1.392,0.399,1.581,1.102l0,0c0.022,0.079,2.229,7.92,7.994,8.265
			c0.714,0.043,1.299,0.584,1.396,1.293c0.097,0.709-0.32,1.388-0.996,1.622c-0.081,0.028-8.282,2.952-8.412,8.662
			c-0.017,0.767-0.611,1.397-1.376,1.461C26.376,37.31,26.334,37.312,26.293,37.312z M21.774,25.784
			c2.106,1.333,3.522,3.394,4.446,5.28c1.376-2.232,3.516-3.872,5.365-4.973c-2.287-1.269-3.884-3.35-4.941-5.223
			C25.472,23.154,23.63,24.743,21.774,25.784z"/>
		<path class="st19" d="M99.041,31.854h121.895c9.833,0,17.805,7.971,17.805,17.805v172.141c0,9.833-7.971,17.805-17.805,17.805
			H99.041c-9.833,0-17.805-7.971-17.805-17.805V49.658C81.237,39.825,89.208,31.854,99.041,31.854z"/>
		<path class="st3" d="M220.936,241.104H99.041c-10.645,0-19.304-8.66-19.304-19.305V49.658c0-10.645,8.659-19.305,19.304-19.305
			h121.895c10.645,0,19.305,8.66,19.305,19.305v172.141C240.241,232.443,231.581,241.104,220.936,241.104z M99.041,33.354
			c-8.99,0-16.304,7.314-16.304,16.305v172.141c0,8.99,7.313,16.305,16.304,16.305h121.895c8.99,0,16.305-7.314,16.305-16.305
			V49.658c0-8.99-7.314-16.305-16.305-16.305H99.041z"/>
		<path class="st21" d="M194.885,72.354h44.019V49.658c0-9.833-7.971-17.805-17.805-17.805H99.204
			c-9.833,0-17.805,7.971-17.805,17.805v22.695h100.685H194.885z"/>
		<path class="st3" d="M238.904,73.854h-44.019c-0.828,0-1.5-0.671-1.5-1.5s0.672-1.5,1.5-1.5h42.519V49.658
			c0-8.99-7.314-16.305-16.305-16.305H99.204c-8.99,0-16.305,7.314-16.305,16.305v21.195h99.186c0.828,0,1.5,0.671,1.5,1.5
			s-0.672,1.5-1.5,1.5H81.399c-0.828,0-1.5-0.671-1.5-1.5V49.658c0-10.645,8.66-19.305,19.305-19.305H221.1
			c10.645,0,19.305,8.66,19.305,19.305v22.695C240.404,73.182,239.732,73.854,238.904,73.854z"/>
		<path class="st4" d="M91.943,43.37V22.088c0-3.038,2.462-5.5,5.5-5.5h0.455c3.038,0,5.5,2.462,5.5,5.5V43.37
			c0,3.038-2.462,5.5-5.5,5.5h-0.455C94.406,48.87,91.943,46.407,91.943,43.37z"/>
		<path class="st3" d="M97.898,50.37h-0.455c-3.859,0-7-3.14-7-7V22.087c0-3.86,3.141-7,7-7h0.455c3.859,0,7,3.14,7,7V43.37
			C104.898,47.229,101.758,50.37,97.898,50.37z M97.443,18.087c-2.206,0-4,1.794-4,4V43.37c0,2.206,1.794,4,4,4h0.455
			c2.206,0,4-1.794,4-4V22.087c0-2.206-1.794-4-4-4H97.443z"/>
		<path class="st4" d="M116.936,43.37V22.088c0-3.038,2.462-5.5,5.5-5.5h0.455c3.038,0,5.5,2.462,5.5,5.5V43.37
			c0,3.038-2.462,5.5-5.5,5.5h-0.455C119.398,48.87,116.936,46.407,116.936,43.37z"/>
		<path class="st3" d="M122.891,50.37h-0.455c-3.859,0-7-3.14-7-7V22.087c0-3.86,3.141-7,7-7h0.455c3.859,0,7,3.14,7,7V43.37
			C129.891,47.229,126.75,50.37,122.891,50.37z M122.436,18.087c-2.206,0-4,1.794-4,4V43.37c0,2.206,1.794,4,4,4h0.455
			c2.206,0,4-1.794,4-4V22.087c0-2.206-1.794-4-4-4H122.436z"/>
		<path class="st4" d="M141.928,43.37V22.088c0-3.038,2.462-5.5,5.5-5.5h0.455c3.038,0,5.5,2.462,5.5,5.5V43.37
			c0,3.038-2.462,5.5-5.5,5.5h-0.455C144.391,48.87,141.928,46.407,141.928,43.37z"/>
		<path class="st3" d="M147.883,50.37h-0.454c-3.859,0-7-3.14-7-7V22.087c0-3.86,3.141-7,7-7h0.454c3.859,0,7,3.14,7,7V43.37
			C154.883,47.229,151.742,50.37,147.883,50.37z M147.429,18.087c-2.206,0-4,1.794-4,4V43.37c0,2.206,1.794,4,4,4h0.454
			c2.206,0,4-1.794,4-4V22.087c0-2.206-1.794-4-4-4H147.429z"/>
		<path class="st4" d="M166.921,43.37V22.088c0-3.038,2.462-5.5,5.5-5.5h0.455c3.038,0,5.5,2.462,5.5,5.5V43.37
			c0,3.038-2.462,5.5-5.5,5.5h-0.455C169.383,48.87,166.921,46.407,166.921,43.37z"/>
		<path class="st3" d="M172.876,50.37h-0.455c-3.859,0-7-3.14-7-7V22.087c0-3.86,3.141-7,7-7h0.455c3.859,0,7,3.14,7,7V43.37
			C179.876,47.229,176.735,50.37,172.876,50.37z M172.421,18.087c-2.206,0-4,1.794-4,4V43.37c0,2.206,1.794,4,4,4h0.455
			c2.206,0,4-1.794,4-4V22.087c0-2.206-1.794-4-4-4H172.421z"/>
		<path class="st4" d="M191.913,43.37V22.088c0-3.038,2.462-5.5,5.5-5.5h0.455c3.038,0,5.5,2.462,5.5,5.5V43.37
			c0,3.038-2.462,5.5-5.5,5.5h-0.455C194.376,48.87,191.913,46.407,191.913,43.37z"/>
		<path class="st3" d="M197.868,50.37h-0.455c-3.859,0-7-3.14-7-7V22.087c0-3.86,3.141-7,7-7h0.455c3.859,0,7,3.14,7,7V43.37
			C204.868,47.229,201.727,50.37,197.868,50.37z M197.413,18.087c-2.206,0-4,1.794-4,4V43.37c0,2.206,1.794,4,4,4h0.455
			c2.206,0,4-1.794,4-4V22.087c0-2.206-1.794-4-4-4H197.413z"/>
		<path class="st4" d="M216.906,43.37V22.088c0-3.038,2.462-5.5,5.5-5.5h0.455c3.037,0,5.5,2.462,5.5,5.5V43.37
			c0,3.038-2.462,5.5-5.5,5.5h-0.455C219.368,48.87,216.906,46.407,216.906,43.37z"/>
		<path class="st3" d="M222.86,50.37h-0.454c-3.859,0-7-3.14-7-7V22.087c0-3.86,3.141-7,7-7h0.454c3.859,0,7,3.14,7,7V43.37
			C229.86,47.229,226.72,50.37,222.86,50.37z M222.406,18.087c-2.206,0-4,1.794-4,4V43.37c0,2.206,1.794,4,4,4h0.454
			c2.206,0,4-1.794,4-4V22.087c0-2.206-1.794-4-4-4H222.406z"/>
		<path class="st22" d="M112.795,71.523l3.235-6.4c2.336-4.622,0.483-10.263-4.139-12.599l0,0
			c-4.622-2.336-10.263-0.483-12.599,4.139l-3.235,6.4L112.795,71.523z"/>
		<path class="st3" d="M112.794,73.023c-0.228,0-0.459-0.052-0.676-0.162l-16.737-8.46c-0.739-0.374-1.035-1.276-0.662-2.016
			l3.234-6.4c1.311-2.593,3.553-4.521,6.312-5.427c2.76-0.907,5.709-0.684,8.302,0.626c2.593,1.311,4.521,3.552,5.428,6.312
			c0.906,2.76,0.685,5.708-0.626,8.302l-3.235,6.4C113.869,72.722,113.342,73.023,112.794,73.023z M98.073,62.401l14.06,7.107
			l2.559-5.062c0.949-1.877,1.11-4.013,0.453-6.012c-0.656-1.999-2.053-3.623-3.931-4.571c-1.877-0.949-4.013-1.11-6.012-0.454
			c-1.999,0.657-3.622,2.053-4.571,3.931L98.073,62.401z"/>
		<polygon class="st21" points="62.748,128.432 19.675,212.963 36.413,221.423 112.795,71.523 96.057,63.063 68.767,116.621 		"/>
		<path class="st3" d="M36.412,222.923c-0.228,0-0.459-0.052-0.676-0.162l-16.738-8.46c-0.355-0.18-0.625-0.494-0.749-0.873
			c-0.124-0.379-0.092-0.791,0.089-1.147l43.073-84.531c0.378-0.738,1.281-1.032,2.018-0.655c0.738,0.376,1.032,1.279,0.656,2.018
			l-42.391,83.19l14.061,7.106l75.02-147.227l-14.061-7.106l-26.611,52.226c-0.378,0.738-1.282,1.031-2.018,0.655
			c-0.738-0.376-1.032-1.279-0.656-2.018l27.291-53.558c0.376-0.736,1.275-1.031,2.014-0.658l16.737,8.46
			c0.355,0.18,0.625,0.494,0.749,0.873s0.092,0.792-0.089,1.147l-76.382,149.9C37.484,222.624,36.958,222.923,36.412,222.923z"/>
		<polygon class="st22" points="57.741,138.259 19.675,212.963 36.413,221.423 74.479,146.719 		"/>
		<path class="st3" d="M36.412,222.923c-0.228,0-0.459-0.052-0.676-0.162l-16.738-8.46c-0.355-0.18-0.625-0.494-0.749-0.873
			c-0.124-0.379-0.092-0.791,0.089-1.147l38.066-74.704c0.376-0.736,1.275-1.03,2.014-0.658l16.737,8.459
			c0.355,0.18,0.625,0.494,0.749,0.873c0.124,0.379,0.092,0.792-0.089,1.147L37.75,222.104
			C37.484,222.624,36.958,222.923,36.412,222.923z M21.694,212.303l14.061,7.106l36.704-72.032l-14.061-7.106L21.694,212.303z"/>
		<polygon class="st11" points="36.413,221.423 19.675,212.963 17.096,238.854 		"/>
		<path class="st3" d="M17.096,240.354c-0.23,0-0.462-0.053-0.677-0.161c-0.553-0.28-0.877-0.871-0.815-1.488l2.579-25.891
			c0.049-0.492,0.337-0.928,0.771-1.166c0.434-0.237,0.957-0.247,1.399-0.024l16.738,8.46c0.441,0.223,0.744,0.649,0.81,1.14
			c0.066,0.49-0.114,0.981-0.481,1.313l-19.317,17.431C17.818,240.222,17.459,240.354,17.096,240.354z M20.95,215.289l-1.977,19.851
			l14.811-13.364L20.95,215.289z"/>
		<path class="st3" d="M219.225,97.354H101.079c-0.828,0-1.5-0.671-1.5-1.5s0.672-1.5,1.5-1.5h118.145c0.828,0,1.5,0.671,1.5,1.5
			S220.053,97.354,219.225,97.354z"/>
		<path class="st3" d="M219.225,120.804H101.079c-0.828,0-1.5-0.671-1.5-1.5c0-0.829,0.672-1.5,1.5-1.5h118.145
			c0.828,0,1.5,0.671,1.5,1.5C220.725,120.132,220.053,120.804,219.225,120.804z"/>
		<path class="st3" d="M219.225,144.253H101.079c-0.828,0-1.5-0.671-1.5-1.5s0.672-1.5,1.5-1.5h118.145c0.828,0,1.5,0.671,1.5,1.5
			S220.053,144.253,219.225,144.253z"/>
		<path class="st3" d="M219.225,167.704H101.079c-0.828,0-1.5-0.671-1.5-1.5s0.672-1.5,1.5-1.5h118.145c0.828,0,1.5,0.671,1.5,1.5
			S220.053,167.704,219.225,167.704z"/>
		<path class="st3" d="M219.225,167.704H101.079c-0.828,0-1.5-0.671-1.5-1.5s0.672-1.5,1.5-1.5h118.145c0.828,0,1.5,0.671,1.5,1.5
			S220.053,167.704,219.225,167.704z"/>
		<path class="st3" d="M219.225,214.604H101.079c-0.828,0-1.5-0.671-1.5-1.5s0.672-1.5,1.5-1.5h118.145c0.828,0,1.5,0.671,1.5,1.5
			S220.053,214.604,219.225,214.604z"/>
		<path class="st3" d="M219.225,191.154H101.079c-0.828,0-1.5-0.671-1.5-1.5c0-0.829,0.672-1.5,1.5-1.5h118.145
			c0.828,0,1.5,0.671,1.5,1.5C220.725,190.482,220.053,191.154,219.225,191.154z"/>
		<path class="st10" d="M222.242,73.854v147.95c0,8.99-7.31,16.3-16.3,16.3h15c8.99,0,16.3-7.31,16.3-16.3V73.854H222.242z"/>
		<path class="st16" d="M237.402,49.654v21.2h-15v-20.48h0.46c3.86,0,7-3.14,7-7v-7.44
			C234.392,38.834,237.402,43.894,237.402,49.654z"/>
	</g>
</g>
</svg>
