<svg xmlns="http://www.w3.org/2000/svg" viewBox="0 0 48 48"><defs><style>.cls-1{fill:#2c435e;}.cls-2{fill:#374f68;}.cls-3{fill:#425b72;}.cls-4{fill:#7c7d7d;}.cls-5{fill:#919191;}</style></defs><title>Container</title><g id="Container"><rect class="cls-1" x="1" y="23" width="24" height="24"/><path class="cls-2" d="M25,23V45H19A16,16,0,0,1,3,29V23Z"/><polygon class="cls-3" points="47 1 47 25 25 47 25 23 47 1"/><polygon class="cls-3" points="47 1 25 23 1 23 23 1 47 1"/><rect class="cls-4" x="13" y="27" width="8" height="16"/><path class="cls-5" d="M21,27c0,14.74-.1,14,0,14a6,6,0,0,1-6-6V27Z"/><rect class="cls-4" x="5" y="27" width="8" height="16"/><path class="cls-5" d="M13,27c0,14.74-.1,14,0,14a6,6,0,0,1-6-6V27Z"/><path class="cls-2" d="M16,36V34a1,1,0,0,1,2,0v2A1,1,0,0,1,16,36Z"/><path class="cls-2" d="M8,36V34a1,1,0,0,1,2,0v2A1,1,0,0,1,8,36Z"/><path class="cls-2" d="M29,37V23a1,1,0,0,1,2,0V37A1,1,0,0,1,29,37Z"/><path class="cls-2" d="M33,33V19a1,1,0,0,1,2,0V33A1,1,0,0,1,33,33Z"/><path class="cls-2" d="M37,29V15a1,1,0,0,1,2,0V29A1,1,0,0,1,37,29Z"/><path class="cls-2" d="M41,25V11a1,1,0,0,1,2,0V25A1,1,0,0,1,41,25Z"/><path class="cls-2" d="M25,19H11a1,1,0,0,1,0-2H25A1,1,0,0,1,25,19Z"/><path class="cls-2" d="M29,15H15a1,1,0,0,1,0-2H29A1,1,0,0,1,29,15Z"/><path class="cls-2" d="M33,11H19a1,1,0,0,1,0-2H33A1,1,0,0,1,33,11Z"/><path class="cls-2" d="M37,7H23a1,1,0,0,1,0-2H37A1,1,0,0,1,37,7Z"/></g></svg>