<?xml version="1.0" encoding="UTF-8"?>
<!DOCTYPE svg PUBLIC "-//W3C//DTD SVG 1.1//EN" "http://www.w3.org/Graphics/SVG/1.1/DTD/svg11.dtd">
<!-- Creator: CorelDRAW -->
<svg xmlns="http://www.w3.org/2000/svg" xml:space="preserve" width="2048px" height="2048px" style="shape-rendering:geometricPrecision; text-rendering:geometricPrecision; image-rendering:optimizeQuality; fill-rule:evenodd; clip-rule:evenodd"
viewBox="0 0 2048 2048"
 xmlns:xlink="http://www.w3.org/1999/xlink">
 <defs>
  <style type="text/css">
   <![CDATA[
    .fil2 {fill:none}
    .fil12 {fill:#00B8D4}
    .fil13 {fill:#37474F}
    .fil8 {fill:#455A64}
    .fil6 {fill:#546E7A}
    .fil5 {fill:#78909C}
    .fil7 {fill:#80D8FF}
    .fil1 {fill:#F06292}
    .fil0 {fill:#F48FB1}
    .fil3 {fill:#263238;fill-rule:nonzero}
    .fil4 {fill:#37474F;fill-rule:nonzero}
    .fil11 {fill:#7CB342;fill-rule:nonzero}
    .fil9 {fill:#EF5350;fill-rule:nonzero}
    .fil10 {fill:#FFAB40;fill-rule:nonzero}
   ]]>
  </style>
   <clipPath id="id0">
    <path d="M1024 -0.0011811c565.539,0 1024,458.462 1024,1024 0,565.539 -458.462,1024 -1024,1024 -565.539,0 -1024,-458.462 -1024,-1024 0,-565.539 458.462,-1024 1024,-1024z"/>
   </clipPath>
 </defs>
 <g id="Layer_x0020_1">
  <metadata id="CorelCorpID_0Corel-Layer"/>
  <path class="fil0" d="M1024 -0.0011811c565.539,0 1024,458.462 1024,1024 0,565.539 -458.462,1024 -1024,1024 -565.539,0 -1024,-458.462 -1024,-1024 0,-565.539 458.462,-1024 1024,-1024z"/>
  <g style="clip-path:url(#id0)">
   <g id="_289371128">
    <g>
     <polygon id="_2926805361" class="fil1" points="1578.71,585.872 2714.59,1721.75 2715.92,1723.54 2717.09,1725.45 2718.06,1727.47 2718.84,1729.6 2719.41,1731.82 2719.76,1734.12 2719.88,1736.49 1584,600.608 1583.88,598.239 1583.53,595.939 1582.96,593.719 1582.18,591.591 1581.2,589.565 1580.04,587.656 "/>
     <polygon id="_292680464" class="fil1" points="1584,600.608 2719.88,1736.49 2719.88,2248.87 1584,1112.99 "/>
     <polygon id="_292681280" class="fil1" points="1584,1112.99 2719.88,2248.87 2719.88,2402.73 1584,1266.85 "/>
     <polygon id="_292681472" class="fil1" points="1584,1266.85 2719.88,2402.73 2719.76,2405.1 2719.41,2407.4 2718.84,2409.62 2718.06,2411.75 2717.09,2413.77 2715.92,2415.68 2714.59,2417.46 2713.1,2419.11 2711.45,2420.61 2709.67,2421.94 2707.76,2423.1 2705.73,2424.08 2703.6,2424.85 2701.38,2425.42 2699.08,2425.78 2696.72,2425.9 1560.83,1290.01 1563.2,1289.89 1565.5,1289.54 1567.72,1288.97 1569.85,1288.19 1571.88,1287.22 1573.79,1286.06 1575.57,1284.72 1577.21,1283.23 1578.71,1281.58 1580.04,1279.8 1581.2,1277.89 1582.18,1275.86 1582.96,1273.73 1583.53,1271.52 1583.88,1269.21 "/>
     <polygon id="_292681352" class="fil1" points="1560.83,1290.01 2696.72,2425.9 2219.42,2425.9 1083.54,1290.01 "/>
     <polygon id="_292681328" class="fil1" points="1083.54,1290.01 2219.42,2425.9 2219.42,2533.39 1083.54,1397.5 "/>
     <polygon id="_292681160" class="fil1" points="1251.11,1426.2 2386.99,2562.09 2388.54,2563.83 2389.65,2565.62 2390.33,2567.46 2390.56,2569.35 1254.68,1433.47 1254.45,1431.58 1253.77,1429.74 1252.65,1427.95 "/>
     <polygon id="_292681424" class="fil1" points="964.459,1290.01 2100.34,2425.9 1623.05,2425.9 487.165,1290.01 "/>
     <polygon id="_292681448" class="fil1" points="1254.68,1433.47 2390.56,2569.35 2389.23,2573.84 2385.38,2578.04 2379.15,2581.96 2370.73,2585.58 2360.29,2588.91 2347.98,2591.95 2333.99,2594.71 2318.47,2597.17 2301.6,2599.34 2283.55,2601.22 2264.49,2602.82 2244.58,2604.12 2224,2605.14 2202.91,2605.86 2181.48,2606.29 2159.88,2606.44 2138.28,2606.29 2116.85,2605.86 2095.76,2605.14 2075.18,2604.12 2055.27,2602.82 2036.21,2601.22 2018.16,2599.34 2001.29,2597.17 1985.78,2594.71 1971.78,2591.95 1959.48,2588.91 1949.03,2585.58 1940.61,2581.96 1934.39,2578.04 798.506,1442.16 804.729,1446.07 813.148,1449.7 823.595,1453.03 835.901,1456.07 849.896,1458.82 865.411,1461.29 882.278,1463.46 900.328,1465.34 919.391,1466.93 939.3,1468.24 959.884,1469.25 980.974,1469.98 1002.4,1470.41 1024,1470.56 1045.6,1470.41 1067.03,1469.98 1088.12,1469.25 1108.7,1468.24 1128.61,1466.93 1147.67,1465.34 1165.72,1463.46 1182.59,1461.29 1198.11,1458.82 1212.1,1456.07 1224.41,1453.03 1234.85,1449.7 1243.27,1446.07 1249.5,1442.16 1253.35,1437.96 "/>
     <polygon id="_292681208" class="fil1" points="487.165,1290.01 1623.05,2425.9 1620.68,2425.78 1618.38,2425.42 1616.16,2424.85 1614.03,2424.08 1612,2423.1 1610.09,2421.94 1608.31,2420.61 472.429,1284.72 474.213,1286.06 476.123,1287.22 478.148,1288.19 480.277,1288.97 482.496,1289.54 484.797,1289.89 "/>
    </g>
    <path id="_289371464" class="fil1" d="M1560.83 577.443c12.7937,0 23.1662,10.3713 23.1662,23.165l0 512.385 0 153.854c0,12.7937 -10.3724,23.1662 -23.1662,23.1662l-477.293 0 0 107.49c92.4107,3.5504 171.136,15.5398 171.136,35.967 0,49.4504 -461.352,49.4504 -461.352,0 0,-20.4272 78.7253,-32.4166 171.135,-35.967l0 -107.49 -477.294 0c-12.7937,0 -23.1662,-10.3724 -23.1662,-23.1662l0 -153.854 0 -512.385c0,-12.7937 10.3724,-23.165 23.1662,-23.165l1073.67 0z"/>
   </g>
  </g>
  <path class="fil2" d="M1024 -0.0011811c565.539,0 1024,458.462 1024,1024 0,565.539 -458.462,1024 -1024,1024 -565.539,0 -1024,-458.462 -1024,-1024 0,-565.539 458.462,-1024 1024,-1024z"/>
  <path class="fil3" d="M793.325 1433.47c0,49.4504 461.352,49.4504 461.352,0 0,-49.4504 -461.352,-49.4504 -461.352,0z"/>
  <path class="fil4" d="M1083.54 1266.85c0,-12.7937 -26.6587,-23.165 -59.5406,-23.165 -32.8819,0 -59.5406,10.3713 -59.5406,23.165l0 157.018c0,12.7937 26.6587,23.165 59.5406,23.165 32.8819,0 59.5406,-10.3713 59.5406,-23.165l0 -157.018z"/>
  <path class="fil5" d="M487.165 577.443l1073.67 0c12.7937,0 23.1662,10.3713 23.1662,23.165l0 666.239c0,12.7937 -10.3724,23.1662 -23.1662,23.1662l-1073.67 0c-12.7937,0 -23.1662,-10.3724 -23.1662,-23.1662l0 -666.239c0,-12.7937 10.3724,-23.165 23.1662,-23.165z"/>
  <path class="fil6" d="M1584 1112.99l0 153.854c0,12.7937 -10.3724,23.1662 -23.1662,23.1662l-1073.67 0c-12.7937,0 -23.1662,-10.3724 -23.1662,-23.1662l0 -153.854 1120 0z"/>
  <polygon class="fil7" points="1537.67,623.774 510.331,623.774 510.331,1095.63 1537.67,1095.63 "/>
  <polygon class="fil8" points="1171.61,994.696 1171.61,964.758 1389.73,964.758 1389.73,994.696 "/>
  <polygon class="fil8" points="934.059,953.335 1074.66,879.749 934.059,806.795 934.059,765.512 1111.61,860.133 1111.61,898.894 934.059,994.696 "/>
  <polygon class="fil8" points="835.822,994.696 658.274,898.894 658.274,860.133 835.822,765.512 835.822,806.795 695.032,879.749 835.822,953.335 "/>
  <polygon class="fil9" points="1508.3,1186.82 1508.3,1216.19 1537.67,1216.19 1537.67,1186.82 "/>
  <polygon class="fil10" points="1405.45,1216.19 1434.81,1216.19 1434.81,1186.82 1405.45,1186.82 "/>
  <polygon class="fil11" points="1456.8,1186.82 1456.8,1216.19 1486.17,1216.19 1486.17,1186.82 "/>
  <circle class="fil12" cx="1024" cy="1201.5" r="28.32"/>
  <circle class="fil13" cx="1024" cy="1201.5" r="24.0885"/>
 </g>
</svg>
