<?xml version="1.0" encoding="utf-8"?>
<!-- Generator: Adobe Illustrator 24.0.0, SVG Export Plug-In . SVG Version: 6.00 Build 0)  -->
<svg version="1.1" xmlns="http://www.w3.org/2000/svg" xmlns:xlink="http://www.w3.org/1999/xlink" x="0px" y="0px"
	 viewBox="0 0 256 256" enable-background="new 0 0 256 256" xml:space="preserve">
<g id="Layer_2" display="none">
	<rect x="-92" y="-4824" display="inline" fill="#FFFFFF" width="1786" height="5896"/>
</g>
<g id="Layer_1">
	<g>
		<path fill="#72C2E9" d="M244.005,110.705H230.83c-2.64-15.85-8.88-30.48-17.83-43.04l9.315-9.315
			c1.806-1.806,1.969-4.69,0.365-6.677c-5.422-6.717-11.551-12.846-18.268-18.268c-1.987-1.604-4.871-1.441-6.677,0.365
			l-9.315,9.315c-12.56-8.96-27.19-15.19-43.04-17.83V12.08c0-2.555-1.923-4.71-4.463-4.979c-8.614-0.913-17.216-0.913-25.833,0
			c-2.54,0.269-4.463,2.425-4.463,4.979v13.175c-15.85,2.64-30.48,8.87-43.04,17.83l-9.315-9.315
			c-1.806-1.806-4.69-1.969-6.677-0.365c-6.717,5.422-12.846,11.551-18.268,18.268c-1.604,1.987-1.441,4.871,0.365,6.677L43,67.665
			c-8.95,12.56-15.19,27.19-17.83,43.04H11.995c-2.555,0-4.71,1.923-4.979,4.463c-0.913,8.617-0.914,17.216,0,25.833
			c0.269,2.54,2.425,4.463,4.979,4.463H25.17c1.7,10.19,4.88,19.87,9.33,28.82c1.34,2.72,2.8,5.37,4.38,7.95
			c4.21-11.68,10.68-22.27,18.87-31.26c-0.84-2.58-1.54-5.23-2.1-7.93c-9.417-45.487,25.477-88.83,72.35-88.83
			c40.8,0,73.87,33.07,73.87,73.87c0,7.824-1.217,15.568-3.61,22.86c4.6,5.04,8.65,10.59,12.07,16.54
			c2.68,4.67,4.97,9.59,6.81,14.72c1.58-2.58,3.04-5.23,4.38-7.95c4.44-8.95,7.62-18.62,9.31-28.79h13.175
			c2.555,0,4.71-1.923,4.979-4.463c0.913-8.617,0.913-17.216,0-25.833C248.716,112.628,246.56,110.705,244.005,110.705z"/>
		<path fill="#4BA5C8" d="M55.65,143.045c0.56,2.7,1.26,5.35,2.1,7.93c-8.19,8.99-14.66,19.58-18.87,31.26
			c-1.58-2.58-3.04-5.23-4.38-7.95c4.41-10.27,10.47-19.68,18.07-28.02C53.57,145.165,54.59,144.095,55.65,143.045z"/>
		<path fill="#4BA5C8" d="M221.52,174.255c-1.34,2.72-2.8,5.37-4.38,7.95c-1.84-5.13-4.13-10.05-6.81-14.72
			c-3.42-5.95-7.47-11.5-12.07-16.54c0.85-2.59,1.55-5.24,2.11-7.94C209.145,151.863,216.395,162.308,221.52,174.255z"/>
		<path fill="#C5E5FE" d="M216.978,148.514c-1.354-0.271-2.231-1.588-1.96-2.941c0.618-3.092,1.077-6.256,1.364-9.405
			c0.125-1.375,1.343-2.402,2.716-2.263c1.375,0.125,2.388,1.341,2.263,2.716c-0.303,3.326-0.788,6.668-1.441,9.933
			C219.649,147.91,218.328,148.784,216.978,148.514z M219.232,128.904c-1.359,0-2.474-1.09-2.499-2.454
			c-0.42-23.084-9.647-44.789-25.981-61.116c-0.977-0.977-0.977-2.56,0-3.536c0.977-0.976,2.559-0.975,3.536-0.001
			c17.255,17.249,27.002,40.177,27.445,64.562c0.025,1.381-1.074,2.521-2.454,2.546
			C219.264,128.904,219.248,128.904,219.232,128.904z"/>
		<path fill="#F0C020" d="M245.365,231.915c0,9.787-7.952,17.837-17.859,17.837H28.527c-9.875,0-17.859-7.984-17.859-17.837
			c0-10.005,8.147-17.837,17.859-17.837h4.801c0-11.026,1.916-21.767,5.551-31.84c4.215-11.678,10.678-22.269,18.869-31.264
			c13.09-14.361,30.58-24.637,50.34-28.7v-1.434c0-10.994,8.919-19.912,19.912-19.912c10.097,0,19.945,7.512,19.945,21.346
			c19.76,4.052,37.239,14.318,50.318,28.668c4.595,5.041,8.647,10.592,12.069,16.544c8.092,14.087,12.373,30.122,12.373,46.592
			h4.801C237.359,214.078,245.365,222.073,245.365,231.915z"/>
		<path fill="#F8E5B0" d="M227.506,242.252H28.527c-1.381,0-2.5-1.119-2.5-2.5s1.119-2.5,2.5-2.5h198.979
			c2.955,0,5.359-2.395,5.359-5.338c0-2.942-2.404-5.337-5.359-5.337c-1.381,0-2.5-1.119-2.5-2.5s1.119-2.5,2.5-2.5
			c5.712,0,10.359,4.637,10.359,10.337S233.218,242.252,227.506,242.252z"/>
		<path fill="#F8E5B0" d="M212.705,216.577c-1.381,0-2.5-1.119-2.5-2.5c0-34.186-21.534-64.897-53.585-76.422
			c-1.299-0.467-1.974-1.899-1.507-3.198s1.901-1.974,3.198-1.507c34.03,12.236,56.894,44.839,56.894,81.127
			C215.205,215.458,214.085,216.577,212.705,216.577z"/>
		<g>
			<path d="M251.47,114.904c-0.41-3.819-3.62-6.699-7.47-6.699h-11.07c-0.06-0.311-0.12-0.62-0.18-0.92
				c-0.26-1.33-1.6-2.25-2.93-1.971c-1.431,0.282-2.236,1.65-1.98,2.931c0.19,0.96,0.37,1.93,0.52,2.869
				c0.21,1.211,1.24,2.091,2.47,2.091h13.18c1.29,0,2.36,0.96,2.49,2.229c0.861,8.204,0.922,16.518,0,25.3
				c-0.13,1.25-1.22,2.23-2.5,2.23h-13.17c-1.23,0-2.26,0.88-2.47,2.09c-1.62,9.76-4.67,19.21-9.08,28.09
				c-0.548,1.108-1.133,2.208-1.727,3.304c-1.485-3.506-3.165-6.926-5.053-10.203c-3.272-5.696-7.124-11.038-11.446-15.925
				c2.058-6.769,3.316-13.908,3.316-22.235c0-42.177-34.173-76.37-76.37-76.37c-48.525,0-84.565,44.604-74.8,91.83
				c0.481,2.322,1.088,4.599,1.764,6.821c-6.919,7.83-12.46,16.586-16.5,26.117c-0.591-1.091-1.174-2.189-1.724-3.298
				c-4.41-8.87-7.47-18.33-9.1-28.13c-0.21-1.21-1.24-2.09-2.47-2.09H11.99c-1.27,0-2.36-0.98-2.49-2.23
				c-0.889-8.523-0.896-16.77,0-25.3c0.13-1.25,1.22-2.229,2.5-2.229h13.17c1.23,0,2.26-0.88,2.47-2.091
				c2.5-15.01,8.52-29.539,17.4-42c0.71-1,0.59-2.35-0.27-3.22l-9.32-9.31c-0.896-0.917-0.991-2.335-0.19-3.34
				c5.32-6.58,11.34-12.601,17.9-17.891c0.996-0.813,2.423-0.719,3.34,0.181l9.31,9.319c0.84,0.84,2.25,0.96,3.22,0.26
				c12.45-8.88,26.97-14.89,42-17.399c1.21-0.2,2.09-1.23,2.09-2.46v-13.18c0-1.271,0.98-2.36,2.23-2.49
				c8.42-0.891,16.88-0.891,25.3,0c1.25,0.13,2.23,1.22,2.23,2.49v13.18c0,1.229,0.88,2.26,2.09,2.46
				c15.03,2.51,29.55,8.52,42,17.399c0.97,0.7,2.38,0.58,3.22-0.26l9.31-9.319c0.904-0.887,2.325-1.002,3.34-0.19
				c6.56,5.3,12.58,11.32,17.89,17.9c0.78,0.953,0.745,2.404-0.19,3.34l-9.31,9.31c-0.86,0.87-0.98,2.22-0.27,3.22
				c4.54,6.37,8.34,13.261,11.29,20.471c0.51,1.25,2.01,1.88,3.26,1.37c1.28-0.53,1.89-1.99,1.37-3.261
				c-2.82-6.909-6.4-13.55-10.63-19.739l7.83-7.841c2.76-2.758,2.905-7.093,0.54-10.01c-5.52-6.85-11.79-13.12-18.64-18.649
				c-2.899-2.368-7.271-2.19-10.01,0.55l-7.84,7.83c-12.21-8.351-25.75-13.96-40.25-16.681V12.075c0-3.841-2.88-7.051-6.7-7.46
				c-8.78-0.931-17.69-0.931-26.36,0c-3.82,0.409-6.7,3.619-6.7,7.46v11.079c-14.5,2.721-28.04,8.33-40.25,16.681l-7.84-7.83
				c-2.72-2.721-7.07-2.934-10.01-0.55c-6.85,5.529-13.12,11.8-18.64,18.649c-2.429,2.97-2.148,7.323,0.54,10.01l7.83,7.841
				c-8.36,12.229-13.97,25.77-16.68,40.25H12c-3.85,0-7.06,2.88-7.47,6.699c-0.897,8.523-0.966,17.162,0,26.36
				c0.41,3.82,3.62,6.7,7.47,6.7h11.07c2.295,12.217,6.643,23.716,13.079,34.544c-3.247,9.353-5.03,19.123-5.289,29.066h-2.33
				c-11.066,0.02-20.36,8.907-20.36,20.34c0,11.273,9.129,20.34,20.36,20.34h198.98c11.22-0.01,20.35-9.13,20.36-20.34
				c-0.01-11.21-9.14-20.33-20.36-20.34h-2.34c-0.26-10.037-2.051-19.819-5.298-29.099c1.379-2.321,2.694-4.7,3.888-7.122
				c4.31-8.68,7.39-17.89,9.17-27.39H244c3.85,0,7.06-2.88,7.47-6.7C252.399,132.418,252.405,123.794,251.47,114.904z M59.6,152.654
				c2.79-3.069,5.83-5.97,9.02-8.64c1.06-0.88,1.2-2.46,0.32-3.52c-0.85-1.021-2.51-1.17-3.53-0.311
				c-2.243,1.871-4.401,3.864-6.467,5.932c-0.308-1.183-0.594-2.378-0.843-3.582c-9.176-44.101,24.535-85.82,69.9-85.82
				c39.373,0,71.37,31.846,71.37,71.37c0,5.907-0.72,11.977-2.294,18.003c-12.486-12.515-28.508-21.713-46.636-25.833
				c-0.309-12.083-10.206-21.83-22.44-21.83c-12.13,0-22.077,9.646-22.41,21.83c-8.05,1.84-15.83,4.71-23.14,8.54
				c-1.262,0.663-1.669,2.193-1.05,3.37c0.642,1.24,2.156,1.683,3.37,1.06c6.609-3.462,13.596-6.089,20.819-7.829v86.187H35.883
				C36.472,189.685,44.763,168.936,59.6,152.654z M222.769,216.575h4.74c8.45,0.02,15.34,6.899,15.36,15.34
				c-0.02,8.439-6.91,15.319-15.36,15.34H28.53c-8.46-0.021-15.35-6.9-15.36-15.34c0.01-8.45,6.9-15.33,15.36-15.34h4.732
				c0.023,0,0.045,0.007,0.068,0.007c7.559,0,181.831,0,189.372,0C222.725,216.582,222.746,216.576,222.769,216.575z
				 M220.155,211.582H150.44v-29.308c0-1.38-1.12-2.5-2.5-2.5s-2.5,1.12-2.5,2.5v29.308h-34.851c0-9.588,0.001-81.151,0.001-90.747
				c0.01-9.58,7.83-17.391,17.41-17.41c8.549,0.018,17.44,6.325,17.44,18.85v40c0,1.38,1.12,2.5,2.5,2.5s2.5-1.12,2.5-2.5V125.4
				c25.311,6.071,45.693,22.371,57.72,43.334C215.372,181.231,219.72,195.948,220.155,211.582z"/>
			<path d="M225.5,98.774c0.384,1.262,1.731,2.097,3.11,1.681c1.314-0.391,2.077-1.763,1.68-3.101v-0.01
				c-0.38-1.28-1.82-2.07-3.11-1.68C225.832,96.064,225.109,97.478,225.5,98.774z"/>
			<circle cx="147.94" cy="172.274" r="2.5"/>
			<path d="M73.63,134.035c-1.141,0.752-1.456,2.31-0.69,3.47c0.786,1.154,2.319,1.449,3.47,0.689c0-0.01,0.01-0.01,0.01-0.01
				c1.122-0.755,1.449-2.317,0.68-3.46C76.36,133.614,74.74,133.295,73.63,134.035z"/>
		</g>
	</g>
</g>
</svg>
