<?xml version="1.0" encoding="utf-8"?>
<!-- Generator: Adobe Illustrator 24.0.0, SVG Export Plug-In . SVG Version: 6.00 Build 0)  -->
<svg version="1.1" xmlns="http://www.w3.org/2000/svg" xmlns:xlink="http://www.w3.org/1999/xlink" x="0px" y="0px"
	 viewBox="0 0 256 256" enable-background="new 0 0 256 256" xml:space="preserve">
<g id="Layer_2">
</g>
<g id="Layer_1">
	<g>
	</g>
	<g>
		<path fill="#FC5D3D" d="M104,15.33v56.84c-13.48,5.78-25.29,16.8-31.68,31.5H15.67c-2.76,0-5-2.24-5-5V15.33c0-2.76,2.24-5,5-5H99
			C101.76,10.33,104,12.57,104,15.33z"/>
		<path fill="#B34F33" d="M104,64.76v7.41c-13.48,5.78-25.29,16.8-31.68,31.5h-7.44C71.78,85.78,86.06,71.56,104,64.76z"/>
		<path fill="#72C2E9" d="M245.33,15.33v83.34c0,2.76-2.24,5-5,5h-56.65c-5.99-13.74-17.19-25.28-31.68-31.49V15.33
			c0-2.76,2.24-5,5-5h83.33C243.09,10.33,245.33,12.57,245.33,15.33z"/>
		<path fill="#4BA5C8" d="M191.12,103.67h-7.44c-5.99-13.74-17.19-25.28-31.68-31.49v-7.42C169.94,71.56,184.22,85.78,191.12,103.67
			z"/>
		<path fill="#F0C020" d="M104,183.87v56.8c0,2.76-2.24,5-5,5H15.67c-2.76,0-5-2.24-5-5v-83.34c0-2.76,2.24-5,5-5h56.65
			C78.58,166.29,90,177.68,104,183.87z"/>
		<path fill="#E8A521" d="M104,183.87v7.37c-17.94-6.8-32.22-21.02-39.12-38.91h7.44C78.58,166.29,90,177.68,104,183.87z"/>
		<path fill="#13BF6D" d="M245.33,157.33v83.34c0,2.76-2.24,5-5,5H157c-2.76,0-5-2.24-5-5v-56.85
			c14.14-6.08,25.51-17.39,31.68-31.49h56.65C243.09,152.33,245.33,154.57,245.33,157.33z"/>
		<path fill="#139C6E" d="M183.68,152.33h7.44c-6.9,17.89-21.18,32.11-39.12,38.91v-7.42C166.14,177.74,177.51,166.43,183.68,152.33
			z"/>
		<path fill="#AFAFAF" d="M183.68,152.33c-6.17,14.1-17.54,25.41-31.68,31.49c-16.85,7.26-33.76,6.35-48,0.05
			c-14-6.19-25.42-17.58-31.68-31.54c-6.47-14.44-7.43-31.63,0-48.66c6.39-14.7,18.2-25.72,31.68-31.5
			c15.39-6.63,32.82-6.51,48,0.01c14.49,6.21,25.69,17.75,31.68,31.49C190.45,119.11,190.44,136.88,183.68,152.33z"/>
		<path fill="#EFEFEF" d="M149.744,102.368l-32.704,32.704l-10.783-10.783c-3.417-3.417-8.957-3.417-12.374,0l0,0
			c-3.417,3.417-3.417,8.957,0,12.374l16.971,16.971c3.417,3.417,8.957,3.417,12.374,0l38.891-38.891
			c3.417-3.417,3.417-8.957,0-12.374l0,0C158.701,98.951,153.161,98.951,149.744,102.368z"/>
		<g>
			<g>
				<path fill="#EFEFEF" d="M128,182.256c-11.224,0-21.994-3.397-31.146-9.824c-1.13-0.793-1.403-2.353-0.609-3.482
					c0.794-1.131,2.353-1.403,3.482-0.609c8.306,5.833,18.083,8.916,28.272,8.916c27.157,0,49.25-22.098,49.25-49.26
					c0-11.891-4.291-23.368-12.082-32.317c-0.906-1.042-0.797-2.621,0.244-3.527c1.042-0.906,2.621-0.797,3.527,0.244
					c8.583,9.859,13.311,22.502,13.311,35.601C182.25,157.915,157.914,182.256,128,182.256z M88.912,165.62
					c-0.85-0.884-1.681-1.81-2.471-2.751c-0.888-1.058-0.75-2.634,0.308-3.522s2.635-0.75,3.522,0.308
					c0.718,0.855,1.474,1.697,2.246,2.501c0.957,0.996,0.925,2.578-0.071,3.535C91.451,166.648,89.868,166.616,88.912,165.62z"/>
			</g>
		</g>
		<path d="M25.2,31h34.883c1.381,0,2.5-1.119,2.5-2.5s-1.119-2.5-2.5-2.5H25.2c-1.381,0-2.5,1.119-2.5,2.5S23.819,31,25.2,31z"/>
		<path d="M82.083,40.333H25.2c-1.381,0-2.5,1.119-2.5,2.5s1.119,2.5,2.5,2.5h56.883c1.381,0,2.5-1.119,2.5-2.5
			S83.464,40.333,82.083,40.333z"/>
		<path d="M54.833,57.874H25.2c-1.381,0-2.5,1.119-2.5,2.5s1.119,2.5,2.5,2.5h29.633c1.381,0,2.5-1.119,2.5-2.5
			S56.214,57.874,54.833,57.874z"/>
		<path d="M54.833,70.624H25.2c-1.381,0-2.5,1.119-2.5,2.5s1.119,2.5,2.5,2.5h29.633c1.381,0,2.5-1.119,2.5-2.5
			S56.214,70.624,54.833,70.624z"/>
		<path d="M54.833,83.374H25.2c-1.381,0-2.5,1.119-2.5,2.5s1.119,2.5,2.5,2.5h29.633c1.381,0,2.5-1.119,2.5-2.5
			S56.214,83.374,54.833,83.374z"/>
		<path d="M230.8,26h-34.883c-1.381,0-2.5,1.119-2.5,2.5s1.119,2.5,2.5,2.5H230.8c1.381,0,2.5-1.119,2.5-2.5S232.181,26,230.8,26z"
			/>
		<path d="M230.8,40.333h-56.883c-1.381,0-2.5,1.119-2.5,2.5s1.119,2.5,2.5,2.5H230.8c1.381,0,2.5-1.119,2.5-2.5
			S232.181,40.333,230.8,40.333z"/>
		<circle cx="192.29" cy="10.33" r="2.5"/>
		<path d="M230.8,57.874h-29.633c-1.381,0-2.5,1.119-2.5,2.5s1.119,2.5,2.5,2.5H230.8c1.381,0,2.5-1.119,2.5-2.5
			S232.181,57.874,230.8,57.874z"/>
		<path d="M230.8,70.624h-29.633c-1.381,0-2.5,1.119-2.5,2.5s1.119,2.5,2.5,2.5H230.8c1.381,0,2.5-1.119,2.5-2.5
			S232.181,70.624,230.8,70.624z"/>
		<path d="M230.8,83.374h-29.633c-1.381,0-2.5,1.119-2.5,2.5s1.119,2.5,2.5,2.5H230.8c1.381,0,2.5-1.119,2.5-2.5
			S232.181,83.374,230.8,83.374z"/>
		<path d="M25.2,173h34.883c1.381,0,2.5-1.119,2.5-2.5s-1.119-2.5-2.5-2.5H25.2c-1.381,0-2.5,1.119-2.5,2.5S23.819,173,25.2,173z"/>
		<path d="M80,184.833c0-1.381-1.119-2.5-2.5-2.5H25.2c-1.381,0-2.5,1.119-2.5,2.5s1.119,2.5,2.5,2.5h52.3
			C78.881,187.333,80,186.214,80,184.833z"/>
		<circle cx="63.7" cy="245.67" r="2.5"/>
		<path d="M15.67,248.17H53.7c1.38,0,2.5-1.12,2.5-2.5c0-1.37-1.12-2.49-2.49-2.5H53.7H15.67c-1.38,0-2.5-1.12-2.5-2.5v-83.34
			c0-1.38,1.12-2.5,2.5-2.5h55.075c6.584,13.732,17.62,24.407,30.755,30.629v55.211c0,1.38-1.12,2.5-2.5,2.5H73.7
			c-1.38,0-2.5,1.12-2.5,2.5s1.12,2.5,2.5,2.5H99c4.13,0,7.5-3.37,7.5-7.5v-53.095c6.86,2.554,14,3.855,21.28,3.855h0.03
			c7.315,0,14.593-1.329,21.69-3.93v53.171c0,4.136,3.364,7.5,7.5,7.5h83.33c4.136,0,7.5-3.364,7.5-7.5v-83.34
			c0-4.136-3.364-7.5-7.5-7.5h-52.962c2.575-6.984,3.882-14.308,3.882-21.84c0-7.537-1.306-14.858-3.878-21.82h52.958
			c4.13,0,7.5-3.37,7.5-7.5V15.33c0-4.13-3.37-7.5-7.5-7.5h-38.04c-1.38,0-2.5,1.12-2.5,2.5c0,1.38,1.12,2.5,2.5,2.5h38.04
			c1.38,0,2.5,1.12,2.5,2.5v83.34c0,1.38-1.12,2.5-2.5,2.5h-55.056c-6.31-13.494-17.177-24.346-30.773-30.596V15.33
			c0-1.38,1.13-2.5,2.5-2.5h25.29c1.38,0,2.5-1.12,2.5-2.5c0-1.38-1.12-2.5-2.5-2.5H157c-4.13,0-7.5,3.37-7.5,7.5v53.184
			c-6.9-2.499-14.135-3.775-21.54-3.775c-7.39,0-14.587,1.273-21.46,3.762V15.33c0-4.136-3.364-7.5-7.5-7.5H15.67
			c-4.136,0-7.5,3.364-7.5,7.5v83.34c0,4.136,3.364,7.5,7.5,7.5h52.961c-0.897,2.413-1.662,4.858-2.261,7.32
			c-0.343,1.375,0.549,2.712,1.84,3.01c1.32,0.33,2.7-0.51,3.02-1.83c6.53-26.844,30.152-44.93,56.73-44.93
			c32.106,0,58.29,25.952,58.29,58.25c0,32.184-26.143,58.44-58.46,58.44c-29.698,0-55.037-23.785-57.91-52.75
			c-0.14-1.37-1.37-2.38-2.74-2.24c-1.328,0.141-2.369,1.3-2.24,2.74c0.535,5.342,1.785,10.588,3.7,15.65H15.67
			c-4.13,0-7.5,3.37-7.5,7.5v83.34C8.17,244.8,11.54,248.17,15.67,248.17z M70.725,101.17H15.67c-1.378,0-2.5-1.122-2.5-2.5V15.33
			c0-1.378,1.122-2.5,2.5-2.5H99c1.378,0,2.5,1.122,2.5,2.5v55.23C88.085,76.744,77.083,87.524,70.725,101.17z M185.271,154.83
			h55.059c1.378,0,2.5,1.122,2.5,2.5v83.34c0,1.378-1.122,2.5-2.5,2.5H157c-1.378,0-2.5-1.122-2.5-2.5v-55.242
			C167.7,179.332,178.749,168.738,185.271,154.83z"/>
		<path d="M54.833,199.874H25.2c-1.381,0-2.5,1.119-2.5,2.5s1.119,2.5,2.5,2.5h29.633c1.381,0,2.5-1.119,2.5-2.5
			S56.214,199.874,54.833,199.874z"/>
		<path d="M54.833,212.624H25.2c-1.381,0-2.5,1.119-2.5,2.5s1.119,2.5,2.5,2.5h29.633c1.381,0,2.5-1.119,2.5-2.5
			S56.214,212.624,54.833,212.624z"/>
		<path d="M54.833,225.374H25.2c-1.381,0-2.5,1.119-2.5,2.5s1.119,2.5,2.5,2.5h29.633c1.381,0,2.5-1.119,2.5-2.5
			S56.214,225.374,54.833,225.374z"/>
		<path d="M195.917,173H230.8c1.381,0,2.5-1.119,2.5-2.5s-1.119-2.5-2.5-2.5h-34.883c-1.381,0-2.5,1.119-2.5,2.5
			S194.536,173,195.917,173z"/>
		<path d="M179.75,187.333H230.8c1.381,0,2.5-1.119,2.5-2.5s-1.119-2.5-2.5-2.5H179.75c-1.381,0-2.5,1.119-2.5,2.5
			S178.37,187.333,179.75,187.333z"/>
		<path d="M230.8,199.874h-29.633c-1.381,0-2.5,1.119-2.5,2.5s1.119,2.5,2.5,2.5H230.8c1.381,0,2.5-1.119,2.5-2.5
			S232.181,199.874,230.8,199.874z"/>
		<path d="M230.8,212.624h-29.633c-1.381,0-2.5,1.119-2.5,2.5s1.119,2.5,2.5,2.5H230.8c1.381,0,2.5-1.119,2.5-2.5
			S232.181,212.624,230.8,212.624z"/>
		<path d="M230.8,225.374h-29.633c-1.381,0-2.5,1.119-2.5,2.5s1.119,2.5,2.5,2.5H230.8c1.381,0,2.5-1.119,2.5-2.5
			S232.181,225.374,230.8,225.374z"/>
		<path d="M124.995,155.401l38.891-38.891c4.397-4.397,4.397-11.513,0-15.91c-4.386-4.387-11.523-4.387-15.909,0l-30.936,30.936
			l-9.016-9.016c-4.386-4.386-11.523-4.387-15.91,0c-4.387,4.386-4.387,11.523,0,15.91l16.971,16.971
			C113.471,159.788,120.609,159.788,124.995,155.401z M95.649,126.056c2.436-2.436,6.402-2.437,8.839,0l10.784,10.784
			c0.938,0.938,2.598,0.938,3.535,0l32.704-32.704c2.442-2.441,6.396-2.443,8.839,0.001c2.442,2.441,2.443,6.395,0,8.838
			l-38.891,38.891c-2.438,2.436-6.402,2.437-8.839,0l-16.971-16.971C93.208,132.453,93.207,128.499,95.649,126.056z"/>
		<path d="M67.25,126.44c1.31,0,2.4-1.02,2.5-2.32c0,0,0-0.01-0.01-0.01c0.102-1.337-0.894-2.554-2.31-2.66
			c-1.39-0.1-2.57,0.95-2.67,2.31C64.651,125.225,65.806,126.44,67.25,126.44z"/>
	</g>
</g>
</svg>
