<?xml version="1.0" encoding="UTF-8"?>
<!DOCTYPE svg PUBLIC "-//W3C//DTD SVG 1.1//EN" "http://www.w3.org/Graphics/SVG/1.1/DTD/svg11.dtd">
<!-- Creator: CorelDRAW -->
<svg xmlns="http://www.w3.org/2000/svg" xml:space="preserve" width="6.82666in" height="6.82666in" style="shape-rendering:geometricPrecision; text-rendering:geometricPrecision; image-rendering:optimizeQuality; fill-rule:evenodd; clip-rule:evenodd"
viewBox="0 0 6.82666 6.82666"
 xmlns:xlink="http://www.w3.org/1999/xlink"
 version="1.1">
 <defs>
  <style type="text/css">
   <![CDATA[
    .fil11 {fill:none}
    .fil4 {fill:#39B54A}
    .fil7 {fill:#414042}
    .fil10 {fill:#7A5C53}
    .fil9 {fill:#8E6F64}
    .fil1 {fill:#A7BDC6}
    .fil2 {fill:#BE1E2D}
    .fil8 {fill:#DCC9BD}
    .fil0 {fill:#DDE2E4}
    .fil6 {fill:#E8D7CB}
    .fil5 {fill:#FEC245}
    .fil3 {fill:#FFDE17}
   ]]>
  </style>
 </defs>
 <g id="Layer_x0020_1">
  <metadata id="CorelCorpID_0Corel-Layer"/>
  <g id="_743427792">
   <g id="Guides">
   </g>
   <g id="Layer_2">
   </g>
   <g id="Layer_3">
   </g>
   <g id="Layer_4">
   </g>
   <g id="Layer_5">
   </g>
   <g id="Layer_6">
   </g>
   <g id="Layer_7">
   </g>
   <g id="Layer_8">
   </g>
   <g id="Layer_9">
   </g>
   <g id="Layer_10">
   </g>
   <g id="Layer_11">
   </g>
   <g id="Layer_12">
   </g>
   <g id="Layer_13">
   </g>
   <g id="Layer_14">
   </g>
   <g id="Layer_15">
   </g>
   <g id="Layer_16">
   </g>
   <g id="Layer_17">
   </g>
   <g id="Layer_18">
   </g>
   <g id="Layer_19">
   </g>
   <g id="Layer_20">
   </g>
   <g id="Layer_21">
    <g>
     <g>
      <g>
       <rect id="_743434008" class="fil0" x="0.957201" y="2.07287" width="4.91226" height="3.17646"/>
      </g>
      <g>
       <g>
        <rect id="_743434608" class="fil1" x="0.957201" y="1.57734" width="4.91226" height="0.495531"/>
       </g>
       <g>
        <g>
         <path id="_743434032" class="fil2" d="M1.36733 1.90354l-0.0791299 0c-0.0392008,0 -0.0709685,-0.0317677 -0.0709685,-0.0709685l0 -0.00333465c0,-0.0392008 0.0317677,-0.0709685 0.0709685,-0.0709685l0.0791299 3.93701e-006c0.0392008,0 0.0709685,0.0317677 0.0709685,0.0709685l0 0.00333465c0,0.0391969 -0.0317677,0.0709646 -0.0709685,0.0709646z"/>
        </g>
        <g>
         <path id="_743434536" class="fil3" d="M1.7153 1.90354l-0.0791339 0c-0.0392008,0 -0.0709685,-0.0317677 -0.0709685,-0.0709685l0 -0.00333465c0,-0.0392008 0.0317677,-0.0709685 0.0709685,-0.0709685l0.0791339 3.93701e-006c0.0392008,0 0.0709685,0.0317677 0.0709685,0.0709685l0 0.00333465c3.14961e-005,0.0391969 -0.0317677,0.0709646 -0.0709685,0.0709646z"/>
        </g>
        <g>
         <path id="_743434392" class="fil4" d="M2.0633 1.90354l-0.0791339 0c-0.0392008,0 -0.0709685,-0.0317677 -0.0709685,-0.0709685l0 -0.00333465c0,-0.0392008 0.0317677,-0.0709685 0.0709685,-0.0709685l0.0791339 3.93701e-006c0.0392008,0 0.0709685,0.0317677 0.0709685,0.0709685l0 0.00333465c-3.93701e-006,0.0391969 -0.0317677,0.0709646 -0.0709685,0.0709646z"/>
        </g>
       </g>
      </g>
     </g>
     <g>
      <g>
       <g>
        <g>
         <g>
          <rect id="_743434680" class="fil5" transform="matrix(0.771699 0.636 -0.636 0.771699 4.77866 2.98108)" width="0.472835" height="1.64443"/>
         </g>
         <g>
          <rect id="_743433912" class="fil2" transform="matrix(0.771699 0.636 -0.636 0.771699 5.03572 2.66883)" width="0.472835" height="0.404402"/>
         </g>
         <g>
          <polygon id="_743433888" class="fil6" points="3.64223,4.73183 3.64223,4.73183 3.73273,4.25017 4.09759,4.5509 "/>
         </g>
         <g>
          <polygon id="_743433672" class="fil7" points="5.13196,3.2953 4.76713,2.99457 4.79139,2.96497 5.15622,3.2657 "/>
         </g>
         <g>
          <polygon id="_743433552" class="fil7" points="3.64223,4.73183 3.64223,4.73183 3.65523,4.66263 3.70763,4.70583 "/>
         </g>
        </g>
       </g>
      </g>
      <g>
       <g>
        <rect id="_743433528" class="fil6" x="1.42637" y="2.6572" width="1.52876" height="2.0863"/>
       </g>
       <g>
        <rect id="_743433576" class="fil8" x="2.19074" y="2.6572" width="0.764397" height="2.0863"/>
       </g>
       <g>
        <g>
         <g>
          <rect id="_743433096" class="fil9" x="1.90033" y="4.1698" width="0.808232" height="0.0347677"/>
         </g>
        </g>
        <g>
         <g>
          <rect id="_743433192" class="fil9" x="1.90033" y="4.41323" width="0.808232" height="0.0347677"/>
         </g>
        </g>
        <g>
         <g>
          <rect id="_743432784" class="fil9" x="1.90033" y="3.9264" width="0.808232" height="0.0347677"/>
         </g>
        </g>
        <g>
         <g>
          <rect id="_743433144" class="fil9" x="1.90033" y="3.68297" width="0.808232" height="0.0347677"/>
         </g>
        </g>
        <g>
         <g>
          <rect id="_743432664" class="fil9" x="1.90033" y="3.43953" width="0.808232" height="0.0347677"/>
         </g>
        </g>
        <g>
         <g>
          <rect id="_743431896" class="fil9" x="1.90033" y="3.19614" width="0.808232" height="0.0347677"/>
         </g>
        </g>
        <g>
         <g>
          <rect id="_743432304" class="fil9" x="1.90033" y="2.9527" width="0.808232" height="0.0347677"/>
         </g>
        </g>
       </g>
       <g>
        <g>
         <g>
          <rect id="_743432088" class="fil9" x="1.6729" y="4.1698" width="0.032" height="0.0347677"/>
         </g>
        </g>
        <g>
         <g>
          <rect id="_743431872" class="fil9" x="1.6729" y="4.41323" width="0.032" height="0.0347677"/>
         </g>
        </g>
        <g>
         <g>
          <rect id="_743431488" class="fil9" x="1.6729" y="3.9264" width="0.032" height="0.0347677"/>
         </g>
        </g>
        <g>
         <g>
          <rect id="_743431632" class="fil9" x="1.6729" y="3.68297" width="0.032" height="0.0347677"/>
         </g>
        </g>
        <g>
         <g>
          <rect id="_743431080" class="fil9" x="1.6729" y="3.43953" width="0.032" height="0.0347677"/>
         </g>
        </g>
        <g>
         <g>
          <rect id="_743431368" class="fil9" x="1.6729" y="3.19614" width="0.032" height="0.0347677"/>
         </g>
        </g>
        <g>
         <g>
          <rect id="_743430768" class="fil9" x="1.6729" y="2.9527" width="0.032" height="0.0347677"/>
         </g>
        </g>
       </g>
       <g>
        <g>
         <g>
          <rect id="_743430744" class="fil10" x="2.19073" y="4.1698" width="0.517834" height="0.0347677"/>
         </g>
        </g>
        <g>
         <g>
          <rect id="_743430840" class="fil10" x="2.19073" y="4.41323" width="0.517834" height="0.0347677"/>
         </g>
        </g>
        <g>
         <g>
          <rect id="_743430816" class="fil10" x="2.19073" y="3.9264" width="0.517834" height="0.0347677"/>
         </g>
        </g>
        <g>
         <g>
          <rect id="_743429520" class="fil10" x="2.19073" y="3.68297" width="0.517834" height="0.0347677"/>
         </g>
        </g>
        <g>
         <g>
          <rect id="_743429976" class="fil10" x="2.19073" y="3.43953" width="0.517834" height="0.0347677"/>
         </g>
        </g>
        <g>
         <g>
          <rect id="_743429760" class="fil10" x="2.19073" y="3.19614" width="0.517834" height="0.0347677"/>
         </g>
        </g>
        <g>
         <g>
          <rect id="_743428944" class="fil10" x="2.19073" y="2.9527" width="0.517834" height="0.0347677"/>
         </g>
        </g>
       </g>
      </g>
     </g>
    </g>
   </g>
   <g id="Layer_22">
   </g>
   <g id="Layer_23">
   </g>
   <g id="Layer_24">
   </g>
   <g id="Layer_25">
   </g>
   <g id="Layer_26">
   </g>
  </g>
 </g>
 <rect class="fil11" width="6.82666" height="6.82666"/>
</svg>
