<?xml version="1.0" encoding="utf-8"?>
<!-- Generator: Adobe Illustrator 16.0.0, SVG Export Plug-In . SVG Version: 6.00 Build 0)  -->
<!DOCTYPE svg PUBLIC "-//W3C//DTD SVG 1.1//EN" "http://www.w3.org/Graphics/SVG/1.1/DTD/svg11.dtd">
<svg version="1.1" id="icons" xmlns="http://www.w3.org/2000/svg" xmlns:xlink="http://www.w3.org/1999/xlink" x="0px" y="0px"
	 width="64px" height="64px" viewBox="0 0 64 64" enable-background="new 0 0 64 64" xml:space="preserve">
<g>
	<path d="M36.982,11.004H3.006c-1.654,0-3,1.346-3,3v37.992c0,0.553,0.447,1,1,1h37.977c0.553,0,1-0.447,1-1V14.004
		C39.982,12.35,38.637,11.004,36.982,11.004z M2.006,17.004h35.977v33.992H2.006V17.004z M3.006,13.004h1.02
		c-0.552,0-0.994,0.447-0.994,1s0.452,1,1.005,1c0.552,0,1-0.447,1-1s-0.448-1-1-1h2.988c-0.552,0-0.994,0.447-0.994,1
		s0.452,1,1.005,1c0.552,0,1-0.447,1-1s-0.448-1-1-1h2.992c-0.552,0-0.994,0.447-0.994,1s0.452,1,1.005,1c0.552,0,1-0.447,1-1
		s-0.448-1-1-1h26.944c0.552,0,1,0.448,1,1v1H10.038H7.035H4.036h-2.03v-1C2.006,13.452,2.454,13.004,3.006,13.004z"/>
	<path d="M10.994,25.987h16.999c0.553,0,1-0.447,1-1s-0.447-1-1-1H10.994c-0.553,0-1,0.447-1,1S10.441,25.987,10.994,25.987z"/>
	<path d="M32.994,32.987L32.994,32.987l-0.001-8c0,0,0,0,0-0.001l0,0c0-2.207-1.795-4.002-4.002-4.002
		c-0.005,0-0.01,0.003-0.015,0.003H9.996c-2.206,0-4,1.794-4,4V42.98c0,0.004-0.002,0.006-0.002,0.01
		c0,2.207,1.795,4.002,4.002,4.002c0.004,0,0.006-0.002,0.01-0.002h19.985c1.655,0,3.002-1.347,3.002-3.002v-3h0.001
		c0.553,0,1-0.447,1-1v-6.001C33.994,33.435,33.547,32.987,32.994,32.987z M27.527,38.988l-1.335-2.001l1.335-2h4.467v4.001H27.527z
		 M9.996,22.987H28.99c0.004,0,0.007-0.002,0.01-0.002c1.1,0.005,1.993,0.9,1.993,2.001l0,0c0,0.001,0,0.001,0,0.001v2.556
		c-0.591-0.345-1.27-0.557-2.002-0.557c-0.002,0-0.003,0.001-0.005,0.001H9.996c-1.103,0-2-0.897-2-2S8.894,22.987,9.996,22.987z
		 M30.993,43.988c0,0.553-0.449,1.002-1.002,1.002H9.997c-0.002,0-0.005,0.001-0.007,0.001c-1.099-0.003-1.992-0.896-1.995-1.994
		c0-0.003,0.001-0.005,0.001-0.007v-14.56c0.591,0.345,1.269,0.557,2,0.557H28.99c0.001,0,0.002-0.001,0.004-0.001
		c1.102,0.002,1.999,0.899,1.999,2.002v1.999h-4.001c-0.334,0-0.646,0.167-0.832,0.445l-2.002,3c-0.224,0.336-0.224,0.773,0,1.109
		l2.002,3.001c0.186,0.278,0.498,0.445,0.832,0.445h4.001V43.988z"/>
	<path d="M52.994,35.999c-1.654,0-3,1.346-3,3c0,1.302,0.839,2.401,2,2.815V44c0,0.553,0.447,1,1,1s1-0.447,1-1v-2.186
		c1.161-0.414,2-1.514,2-2.815C55.994,37.345,54.648,35.999,52.994,35.999z M52.994,39.999c-0.552,0-1-0.448-1-1s0.448-1,1-1
		s1,0.448,1,1S53.546,39.999,52.994,39.999z"/>
	<path d="M60.994,31.002v-8.015c0-4.411-3.589-8-8-8s-8,3.589-8,8v8.015c-1.654,0-3,1.346-3,3v12.997c0,1.654,1.346,3,3,3h16
		c1.654,0,3-1.346,3-3V34.002C63.994,32.348,62.648,31.002,60.994,31.002z M46.994,22.987c0-3.309,2.691-6,6-6s6,2.691,6,6v8.015h-1
		v-8.015c0-2.757-2.243-5-5-5s-5,2.243-5,5v8.015h-1V22.987z M49.994,31.002v-8.015c0-1.654,1.346-3,3-3s3,1.346,3,3v8.015H49.994z
		 M61.994,46.999c0,0.552-0.448,1-1,1h-16c-0.552,0-1-0.448-1-1V34.002c0-0.552,0.448-1,1-1h16c0.552,0,1,0.448,1,1V46.999z"/>
	<path d="M29.02,35.999h-0.011c-0.552,0-0.994,0.447-0.994,1s0.452,1,1.005,1c0.552,0,1-0.447,1-1S29.571,35.999,29.02,35.999z"/>
</g>
</svg>
