<svg id="artwork" xmlns="http://www.w3.org/2000/svg" viewBox="0 0 512 512"><title>QR_code</title><g id="QR_code"><rect x="109.1" y="33.8" width="319.21" height="447.4" style="fill:#def1f9"/><rect x="109.11" y="31.8" width="319.21" height="49.96" style="fill:#3e4757"/><rect x="110.05" y="414.16" width="316.24" height="67.04" style="fill:#3e4757"/><rect x="109.1" y="387.77" width="319.21" height="23.64" style="fill:#9dc0d1"/><rect x="109.1" y="83.76" width="319.21" height="28.32" style="fill:#9dc0d1"/><path d="M300.66,444.8a19.21,19.21,0,1,1-19.21-19.21A19.21,19.21,0,0,1,300.66,444.8Z" style="fill:#2f353f"/><circle cx="268.21" cy="444.8" r="13.63" transform="translate(-235.97 319.93) rotate(-45)" style="fill:#fff"/><rect x="253.26" y="51.91" width="26.48" height="12" style="fill:#fff"/><polygon points="379.47 358.83 366.97 358.83 366.97 346.83 367.47 346.83 367.47 346.33 379.47 346.33 379.47 358.83" style="fill:#ffaf9f"/><path d="M355.66,358.83H343.4v-12h12.26Zm-23.57,0H319.83v-12h12.26Zm-23.57,0H296.27v-12h12.25Zm-23.56,0H272.7v-12H285Zm-23.57,0H249.13v-12h12.26Zm-23.57,0H225.57v-12h12.25Zm-23.56,0H202v-12h12.26Zm-23.57,0H178.43v-12h12.26Z" style="fill:#ffaf9f"/><polygon points="167.12 358.83 154.62 358.83 154.62 346.33 166.62 346.33 166.62 346.83 167.12 346.83 167.12 358.83" style="fill:#ffaf9f"/><path d="M166.62,335h-12V322.77h12Zm0-23.57h-12V299.2h12Zm0-23.56h-12V275.63h12Zm0-23.57h-12V252.07h12Zm0-23.57h-12V228.5h12Zm0-23.56h-12V204.93h12Zm0-23.57h-12V181.37h12Zm0-23.57h-12V157.8h12Z" style="fill:#ffaf9f"/><polygon points="166.62 146.49 154.62 146.49 154.62 133.99 167.12 133.99 167.12 145.99 166.62 145.99 166.62 146.49" style="fill:#ffaf9f"/><path d="M355.66,146H343.4V134h12.26Zm-23.57,0H319.83V134h12.26Zm-23.57,0H296.27V134h12.25ZM285,146H272.7V134H285Zm-23.57,0H249.13V134h12.26Zm-23.57,0H225.57V134h12.25Zm-23.56,0H202V134h12.26Zm-23.57,0H178.43V134h12.26Z" style="fill:#ffaf9f"/><polygon points="379.47 146.49 367.47 146.49 367.47 145.99 366.97 145.99 366.97 133.99 379.47 133.99 379.47 146.49" style="fill:#ffaf9f"/><path d="M379.47,335h-12V322.77h12Zm0-23.57h-12V299.2h12Zm0-23.56h-12V275.63h12Zm0-23.57h-12V252.07h12Zm0-23.57h-12V228.5h12Zm0-23.56h-12V204.93h12Zm0-23.57h-12V181.37h12Zm0-23.57h-12V157.8h12Z" style="fill:#ffaf9f"/><polygon points="336.67 123.28 391.68 123.28 391.68 178.29 403.68 178.29 403.68 111.28 336.67 111.28 336.67 123.28" style="fill:#f47a53"/><polygon points="391.68 371.32 336.67 371.32 336.67 383.32 403.68 383.32 403.68 316.31 391.68 316.31 391.68 371.32" style="fill:#f47a53"/><polygon points="143.62 316.31 131.62 316.31 131.62 383.32 198.63 383.32 198.63 371.32 143.62 371.32 143.62 316.31" style="fill:#f47a53"/><polygon points="131.62 178.29 143.62 178.29 143.62 123.28 198.63 123.28 198.63 111.28 131.62 111.28 131.62 178.29" style="fill:#f47a53"/><path d="M241.2,156.08H176.84v64.35H241.2Zm-12,52.35H188.84V168.08H229.2Z"/><rect x="195.19" y="174.27" width="27.67" height="27.67"/><path d="M176.84,335.86H241.2V271.51H176.84Zm12-52.35H229.2v40.35H188.84Z"/><rect x="195.19" y="289.7" width="27.67" height="27.67"/><path d="M356.63,155.93H292.27v64.35h64.36Zm-12,52.35H304.27V167.93h40.36Z"/><rect x="310.62" y="174.12" width="27.67" height="27.67"/><rect x="252.9" y="271.51" width="57.72" height="12"/><polygon points="273.23 172.29 252.9 172.29 252.9 184.29 273.23 184.29 273.23 236.75 285.23 236.75 285.23 161.93 273.23 161.93 273.23 172.29"/><polygon points="257.41 239.62 266.06 239.62 266.06 227.62 225.68 227.62 225.68 239.62 245.41 239.62 245.41 251.5 222.85 251.5 222.85 263.5 257.41 263.5 257.41 239.62"/><rect x="249.13" y="192.57" width="12" height="26.77"/><polygon points="292.27 227.62 292.27 251.5 272.98 251.5 272.98 263.5 304.27 263.5 304.27 239.62 327.67 239.62 327.67 245.03 319.39 245.03 319.39 257.02 350.63 257.02 350.63 245.03 339.67 245.03 339.67 227.62 292.27 227.62"/><polygon points="339.67 264.86 327.67 264.86 327.67 290.99 315.97 290.99 315.97 302.99 339.67 302.99 339.67 264.86"/><polygon points="280.77 302.99 298.27 302.99 298.27 290.99 268.77 290.99 268.77 329.86 280.77 329.86 280.77 302.99"/><rect x="246.9" y="296.99" width="12" height="32.88"/><polygon points="316.62 329.86 316.62 307.43 290.38 307.43 290.38 319.43 304.62 319.43 304.62 329.86 316.62 329.86"/><polygon points="356.63 308.14 344.63 308.14 344.63 323.86 324.82 323.86 324.82 335.86 356.63 335.86 356.63 308.14"/><polygon points="176.84 247.68 188.84 247.68 188.84 239.62 203.02 239.62 203.02 261.74 215.02 261.74 215.02 227.62 176.84 227.62 176.84 247.68"/><path d="M268.05,464a19.24,19.24,0,1,0-19.24-19.24A19.27,19.27,0,0,0,268.05,464Zm0-26.48a7.24,7.24,0,1,1-7.24,7.24A7.25,7.25,0,0,1,268.05,437.56Z"/><path d="M102.44,26.93V485.07H433.65v-349h-12v267.8H114.44v-317H421.65v31.36h12V26.93H102.44Zm319.21,389v57.16H114.44V415.91Zm-307.21-341V38.93H421.65V74.88Z"/></g></svg>