<?xml version="1.0" encoding="iso-8859-1"?>
<!-- Generator: Adobe Illustrator 19.0.0, SVG Export Plug-In . SVG Version: 6.00 Build 0)  -->
<svg xmlns="http://www.w3.org/2000/svg" xmlns:xlink="http://www.w3.org/1999/xlink" version="1.1" id="Layer_1" x="0px" y="0px" viewBox="0 0 512 512" style="enable-background:new 0 0 512 512;" xml:space="preserve">
<path style="fill:#AFB9D2;" d="M503.409,301.817c0,10.08-8.247,18.327-18.327,18.327H26.917c-10.122,0-18.327-8.205-18.327-18.327  v-91.633c0-10.08,8.247-18.327,18.327-18.327h458.166c10.122,0,18.327,8.205,18.327,18.327V301.817z"/>
<circle style="fill:#B4E66E;" cx="256" cy="256" r="27.49"/>
<path style="fill:#959CB5;" d="M36.081,301.817v-91.633c0-10.08,8.247-18.327,18.327-18.327h-27.49  c-10.08,0-18.327,8.247-18.327,18.327v91.633c0,10.121,8.206,18.327,18.327,18.327h27.49  C44.286,320.143,36.081,311.937,36.081,301.817z"/>
<path style="fill:#AFB9D2;" d="M503.409,136.877c0,10.08-8.247,18.327-18.327,18.327H26.917c-10.122,0-18.327-8.205-18.327-18.327  V45.244c0-10.08,8.247-18.327,18.327-18.327h458.166c10.122,0,18.327,8.205,18.327,18.327V136.877z"/>
<circle style="fill:#FFDC64;" cx="256" cy="91.06" r="27.49"/>
<path style="fill:#959CB5;" d="M36.081,136.877V45.244c0-10.08,8.247-18.327,18.327-18.327h-27.49  c-10.08,0-18.327,8.247-18.327,18.327v91.633c0,10.121,8.206,18.327,18.327,18.327h27.49  C44.286,155.204,36.081,146.998,36.081,136.877z"/>
<path style="fill:#AFB9D2;" d="M503.409,466.756c0,10.08-8.247,18.327-18.327,18.327H26.917c-10.122,0-18.327-8.205-18.327-18.327  v-91.633c0-10.08,8.247-18.327,18.327-18.327h458.166c10.122,0,18.327,8.205,18.327,18.327V466.756z"/>
<circle style="fill:#FFDC64;" cx="256" cy="420.94" r="27.49"/>
<path style="fill:#959CB5;" d="M36.081,466.756v-91.633c0-10.08,8.247-18.327,18.327-18.327h-27.49  c-10.08,0-18.327,8.247-18.327,18.327v91.633c0,10.121,8.206,18.327,18.327,18.327h27.49  C44.286,485.083,36.081,476.877,36.081,466.756z"/>
<path d="M219.919,256c0,19.895,16.186,36.081,36.081,36.081s36.081-16.186,36.081-36.081c0-4.744-3.846-8.591-8.591-8.591  s-8.591,3.846-8.591,8.591c0,10.421-8.478,18.899-18.899,18.899s-18.899-8.478-18.899-18.899s8.478-18.899,18.899-18.899  c4.744,0,8.591-3.846,8.591-8.591c0-4.744-3.846-8.591-8.591-8.591C236.105,219.919,219.919,236.105,219.919,256z"/>
<path d="M448.43,292.081c4.744,0,8.591-3.846,8.591-8.591v-54.98c0-4.744-3.846-8.591-8.591-8.591s-8.591,3.846-8.591,8.591v54.98  C439.839,288.234,443.684,292.081,448.43,292.081z"/>
<path d="M411.776,292.081c4.744,0,8.591-3.846,8.591-8.591v-54.98c0-4.744-3.846-8.591-8.591-8.591  c-4.744,0-8.591,3.846-8.591,8.591v54.98C403.186,288.234,407.031,292.081,411.776,292.081z"/>
<path d="M338.47,292.081c4.744,0,8.591-3.846,8.591-8.591v-54.98c0-4.744-3.846-8.591-8.591-8.591c-4.744,0-8.591,3.846-8.591,8.591  v54.98C329.879,288.234,333.724,292.081,338.47,292.081z"/>
<path d="M375.123,292.081c4.744,0,8.591-3.846,8.591-8.591v-54.98c0-4.744-3.846-8.591-8.591-8.591s-8.591,3.846-8.591,8.591v54.98  C366.532,288.234,370.378,292.081,375.123,292.081z"/>
<path d="M173.53,229.083H63.57c-4.744,0-8.591,3.846-8.591,8.591c0,4.744,3.846,8.591,8.591,8.591h109.96  c4.744,0,8.591-3.846,8.591-8.591C182.121,232.929,178.275,229.083,173.53,229.083z"/>
<path d="M173.53,265.736H63.57c-4.744,0-8.591,3.846-8.591,8.591c0,4.744,3.846,8.591,8.591,8.591h109.96  c4.744,0,8.591-3.846,8.591-8.591C182.121,269.582,178.275,265.736,173.53,265.736z"/>
<path d="M485.083,163.794c14.842,0,26.917-12.075,26.917-26.917V45.244c0-14.842-12.075-26.917-26.917-26.917H26.917  C12.075,18.327,0,30.402,0,45.244v91.633c0,14.842,12.075,26.917,26.917,26.917h220.492v19.472H26.917  C12.075,183.266,0,195.341,0,210.183v91.633c0,14.842,12.075,26.917,26.917,26.917h220.492v19.472H26.917  C12.075,348.206,0,360.281,0,375.123v91.633c0,14.842,12.075,26.917,26.917,26.917h458.166c14.842,0,26.917-12.075,26.917-26.917  v-91.633c0-14.842-12.075-26.917-26.917-26.917H264.591v-19.472h220.492c14.842,0,26.917-12.075,26.917-26.917v-91.633  c0-14.842-12.075-26.917-26.917-26.917H264.591v-19.472H485.083z M494.819,375.123v91.633c0,5.369-4.367,9.736-9.736,9.736H26.917  c-5.369,0-9.736-4.367-9.736-9.736v-91.633c0-5.369,4.367-9.736,9.736-9.736h458.166  C490.451,365.387,494.819,369.754,494.819,375.123z M494.819,210.183v91.633c0,5.369-4.367,9.736-9.736,9.736H26.917  c-5.369,0-9.736-4.367-9.736-9.736v-91.633c0-5.369,4.367-9.736,9.736-9.736h458.166  C490.451,200.447,494.819,204.815,494.819,210.183z M17.181,136.877V45.244c0-5.369,4.367-9.736,9.736-9.736h458.166  c5.369,0,9.736,4.367,9.736,9.736v91.633c0,5.369-4.367,9.736-9.736,9.736H26.917C21.549,146.613,17.181,142.246,17.181,136.877z"/>
<path d="M292.081,91.06c0-4.744-3.846-8.591-8.591-8.591s-8.591,3.846-8.591,8.591c0,10.421-8.478,18.899-18.899,18.899  s-18.899-8.478-18.899-18.899S245.579,72.161,256,72.161c4.744,0,8.591-3.846,8.591-8.591S260.744,54.98,256,54.98  c-19.895,0-36.081,16.186-36.081,36.081s16.186,36.081,36.081,36.081S292.081,110.955,292.081,91.06z"/>
<path d="M448.43,127.141c4.744,0,8.591-3.846,8.591-8.591V63.57c0-4.744-3.846-8.591-8.591-8.591s-8.591,3.846-8.591,8.591v54.98  C439.839,123.295,443.684,127.141,448.43,127.141z"/>
<path d="M411.776,127.141c4.744,0,8.591-3.846,8.591-8.591V63.57c0-4.744-3.846-8.591-8.591-8.591c-4.744,0-8.591,3.846-8.591,8.591  v54.98C403.186,123.295,407.031,127.141,411.776,127.141z"/>
<path d="M338.47,127.141c4.744,0,8.591-3.846,8.591-8.591V63.57c0-4.744-3.846-8.591-8.591-8.591c-4.744,0-8.591,3.846-8.591,8.591  v54.98C329.879,123.295,333.724,127.141,338.47,127.141z"/>
<path d="M375.123,127.141c4.744,0,8.591-3.846,8.591-8.591V63.57c0-4.744-3.846-8.591-8.591-8.591s-8.591,3.846-8.591,8.591v54.98  C366.532,123.295,370.378,127.141,375.123,127.141z"/>
<path d="M173.53,64.143H63.57c-4.744,0-8.591,3.846-8.591,8.591s3.846,8.591,8.591,8.591h109.96c4.744,0,8.591-3.846,8.591-8.591  S178.275,64.143,173.53,64.143z"/>
<path d="M173.53,100.796H63.57c-4.744,0-8.591,3.846-8.591,8.591s3.846,8.591,8.591,8.591h109.96c4.744,0,8.591-3.846,8.591-8.591  S178.275,100.796,173.53,100.796z"/>
<path d="M219.919,420.94c0,19.895,16.186,36.081,36.081,36.081s36.081-16.186,36.081-36.081c0-4.744-3.846-8.591-8.591-8.591  s-8.591,3.846-8.591,8.591c0,10.421-8.478,18.899-18.899,18.899s-18.899-8.478-18.899-18.899S245.579,402.04,256,402.04  c4.744,0,8.591-3.846,8.591-8.591c0-4.744-3.846-8.591-8.591-8.591C236.105,384.859,219.919,401.045,219.919,420.94z"/>
<path d="M448.43,457.02c4.744,0,8.591-3.846,8.591-8.591v-54.98c0-4.744-3.846-8.591-8.591-8.591s-8.591,3.846-8.591,8.591v54.98  C439.839,453.174,443.684,457.02,448.43,457.02z"/>
<path d="M411.776,457.02c4.744,0,8.591-3.846,8.591-8.591v-54.98c0-4.744-3.846-8.591-8.591-8.591c-4.744,0-8.591,3.846-8.591,8.591  v54.98C403.186,453.174,407.031,457.02,411.776,457.02z"/>
<path d="M338.47,457.02c4.744,0,8.591-3.846,8.591-8.591v-54.98c0-4.744-3.846-8.591-8.591-8.591c-4.744,0-8.591,3.846-8.591,8.591  v54.98C329.879,453.174,333.724,457.02,338.47,457.02z"/>
<path d="M375.123,457.02c4.744,0,8.591-3.846,8.591-8.591v-54.98c0-4.744-3.846-8.591-8.591-8.591s-8.591,3.846-8.591,8.591v54.98  C366.532,453.174,370.378,457.02,375.123,457.02z"/>
<path d="M173.53,394.022H63.57c-4.744,0-8.591,3.846-8.591,8.591s3.846,8.591,8.591,8.591h109.96c4.744,0,8.591-3.846,8.591-8.591  S178.275,394.022,173.53,394.022z"/>
<path d="M173.53,430.676H63.57c-4.744,0-8.591,3.846-8.591,8.591c0,4.744,3.846,8.591,8.591,8.591h109.96  c4.744,0,8.591-3.846,8.591-8.591C182.121,434.522,178.275,430.676,173.53,430.676z"/>
<g>
</g>
<g>
</g>
<g>
</g>
<g>
</g>
<g>
</g>
<g>
</g>
<g>
</g>
<g>
</g>
<g>
</g>
<g>
</g>
<g>
</g>
<g>
</g>
<g>
</g>
<g>
</g>
<g>
</g>
</svg>
