<?xml version="1.0" encoding="UTF-8"?>
<!DOCTYPE svg PUBLIC "-//W3C//DTD SVG 1.1//EN" "http://www.w3.org/Graphics/SVG/1.1/DTD/svg11.dtd">
<!-- Creator: CorelDRAW -->
<svg xmlns="http://www.w3.org/2000/svg" xml:space="preserve" width="6.82666in" height="6.82666in" style="shape-rendering:geometricPrecision; text-rendering:geometricPrecision; image-rendering:optimizeQuality; fill-rule:evenodd; clip-rule:evenodd"
viewBox="0 0 6.82666 6.82666"
 xmlns:xlink="http://www.w3.org/1999/xlink">
 <defs>
  <style type="text/css">
   <![CDATA[
    .fil0 {fill:#66BB6A}
    .fil2 {fill:#FFFFFE}
    .fil1 {fill:#FFFFFE;fill-rule:nonzero}
   ]]>
  </style>
 </defs>
 <g id="Layer_x0020_1">
  <metadata id="CorelCorpID_0Corel-Layer"/>
  <rect class="fil0" width="6.82666" height="6.82666"/>
  <path class="fil1" d="M0.96 2.67592l2.88 0 0.106669 0 0 0.106669 0 0.790299 0 0.106669 -0.106669 0 -2.88 0 -0.106669 0 0 -0.106669 0 -0.790299 0 -0.106669 0.106669 0zm2.77333 0.213339l-2.66666 0 0 0.576961 2.66666 0 0 -0.576961z"/>
  <path class="fil1" d="M0.96 3.80491l2.88 0 0.106669 0 0 0.106669 0 0.790299 0 0.106669 -0.106669 0 -2.88 0 -0.106669 0 0 -0.106669 0 -0.790299 0 -0.106669 0.106669 0zm2.77333 0.213339l-2.66666 0 0 0.576961 2.66666 0 0 -0.576961z"/>
  <path class="fil1" d="M0.96 4.93391l2.88 0 0.106669 0 0 0.106669 0 0.790299 0 0.106669 -0.106669 0 -2.88 0 -0.106669 0 0 -0.106669 0 -0.790299 0 -0.106669 0.106669 0zm2.77333 0.213339l-2.66666 0 0 0.576961 2.66666 0 0 -0.576961z"/>
  <ellipse class="fil2" cx="1.34505" cy="3.1398" rx="0.103201" ry="0.0946672"/>
  <ellipse class="fil2" cx="1.78561" cy="3.1398" rx="0.103201" ry="0.0946672"/>
  <ellipse class="fil2" cx="2.22618" cy="3.1398" rx="0.103201" ry="0.0946672"/>
  <ellipse class="fil2" cx="1.34505" cy="4.30673" rx="0.103201" ry="0.0946672"/>
  <ellipse class="fil2" cx="1.78561" cy="4.30673" rx="0.103201" ry="0.0946672"/>
  <ellipse class="fil2" cx="2.22618" cy="4.30673" rx="0.103201" ry="0.0946672"/>
  <ellipse class="fil2" cx="1.34505" cy="5.43573" rx="0.103201" ry="0.0946672"/>
  <ellipse class="fil2" cx="1.78561" cy="5.43573" rx="0.103201" ry="0.0946672"/>
  <ellipse class="fil2" cx="2.22618" cy="5.43573" rx="0.103201" ry="0.0946672"/>
  <g id="_409695312">
   <path id="_409695336" class="fil1" d="M4.86534 1.45367c0.144563,0 0.275453,0.0586102 0.370201,0.15335 0.0947402,0.094748 0.15335,0.225638 0.15335,0.370201 0,0.144563 -0.0586102,0.275457 -0.15335,0.370201 -0.094748,0.094748 -0.225638,0.15335 -0.370201,0.15335 -0.144563,0 -0.275457,-0.0586024 -0.370201,-0.15335 -0.094748,-0.0947441 -0.15335,-0.225638 -0.15335,-0.370201 0,-0.144563 0.0586024,-0.275453 0.15335,-0.370201 0.0947441,-0.0947402 0.225638,-0.15335 0.370201,-0.15335zm0.246587 0.276965c-0.0630945,-0.0630984 -0.15028,-0.10213 -0.246587,-0.10213 -0.0963071,0 -0.183492,0.0390315 -0.246587,0.10213 -0.0631024,0.0630984 -0.10213,0.15028 -0.10213,0.246587 0,0.0963071 0.0390315,0.183492 0.10213,0.246587 0.0630945,0.0630984 0.15028,0.10213 0.246587,0.10213 0.0963071,0 0.183488,-0.0390276 0.246587,-0.10213 0.0630984,-0.0630945 0.10213,-0.15028 0.10213,-0.246587 0,-0.0963071 -0.0390315,-0.183492 -0.10213,-0.246587z"/>
   <path id="_409695288" class="fil1" d="M5.0985 1.1505c0.0324567,0.00917323 0.0642559,0.0202362 0.095248,0.0330787 0.0313268,0.0129764 0.0617717,0.0277992 0.0912008,0.0443307l0.0897717 -0.0897717c0.0347795,-0.0347835 0.0805354,-0.0521811 0.126213,-0.0521811 0.0456772,0 0.0914252,0.0173976 0.126213,0.0521811l0.0772874 0.0772835c0.0347835,0.0347913 0.0521811,0.0805354 0.0521811,0.126213 0,0.045685 -0.0173976,0.0914331 -0.0521811,0.126213l-0.0897717 0.0897756c0.0165315,0.0294291 0.0313543,0.059874 0.0443346,0.0912008 0.0128425,0.0309921 0.0239055,0.0627874 0.0330748,0.0952441l0.126783 0c0.0491732,0 0.0938268,0.0200591 0.126134,0.0523701 0.0323071,0.032311 0.0523661,0.0769646 0.0523661,0.126138l0 0.109299c0,0.0491732 -0.0200591,0.0938268 -0.0523701,0.126134 -0.0323031,0.032311 -0.0769528,0.0523701 -0.12613,0.0523701l-0.12678 0c-0.00916929,0.0324567 -0.0202362,0.064248 -0.0330748,0.0952402 -0.0129803,0.0313268 -0.0278071,0.0617756 -0.0443386,0.0912047l0.0897717 0.0897756c0.0347835,0.0347874 0.0521811,0.0805354 0.0521811,0.126213 0,0.0456772 -0.0173976,0.0914291 -0.0521811,0.126213l-0.0772874 0.0772835c-0.0347835,0.0347835 -0.0805354,0.0521811 -0.126213,0.0521811l0 -0.00034252c-0.0458858,3.93701e-006 -0.0916535,-0.0172795 -0.126209,-0.0518346l-0.0897756 -0.0897717c-0.029437,0.0165354 -0.0598898,0.0313622 -0.0912244,0.0443425 -0.0309843,0.0128386 -0.0627717,0.0239016 -0.0952244,0.0330748l0 0.126776c0,0.0491772 -0.0200591,0.0938268 -0.0523701,0.12613 -0.0323071,0.032311 -0.0769606,0.0523701 -0.126134,0.0523701l-0.109299 0c-0.0491732,0 -0.0938268,-0.0200591 -0.126138,-0.0523661 -0.032311,-0.0323071 -0.0523701,-0.0769606 -0.0523701,-0.126134l0 -0.126776c-0.0324528,-0.00917323 -0.0642402,-0.0202362 -0.0952323,-0.0330748 -0.0313307,-0.0129803 -0.0617835,-0.0278031 -0.0912165,-0.0443386l-0.0897717 0.0897677c-0.0347795,0.0347835 -0.0805276,0.0521811 -0.126213,0.0521811 -0.0456772,0 -0.0914213,-0.0173976 -0.126213,-0.0521811l-0.0772835 -0.0772874c-0.0347874,-0.0347835 -0.0521811,-0.0805354 -0.0521811,-0.126213 0,-0.0456772 0.0173937,-0.0914291 0.0521811,-0.126213l0.0897756 -0.0897756c-0.0165394,-0.0294409 -0.0313661,-0.0598937 -0.0443465,-0.0912283 -0.0128386,-0.0309843 -0.0239016,-0.0627638 -0.0330709,-0.0952165l-0.12678 0c-0.0491772,0 -0.0938268,-0.0200591 -0.12613,-0.0523701 -0.032311,-0.0323071 -0.0523701,-0.0769606 -0.0523701,-0.126134l0 -0.109299c0,-0.0491732 0.0200591,-0.0938268 0.0523661,-0.126138 0.0323071,-0.032311 0.0769606,-0.0523701 0.126134,-0.0523701l0.12678 0c0.00916929,-0.0324606 0.0202402,-0.064252 0.0330827,-0.095252 0.0129764,-0.0313189 0.0277953,-0.0617638 0.0443268,-0.0911929l-0.0897717 -0.0897756c-0.0345551,-0.0345551 -0.0518386,-0.0803228 -0.0518346,-0.126209l-0.00034252 0c0,-0.0456811 0.0173976,-0.0914252 0.0521811,-0.126217l0.0772835 -0.0772874c0.0347913,-0.0347835 0.0805354,-0.0521772 0.126213,-0.0521772 0.0456772,0 0.0914252,0.0173937 0.126213,0.0521772l0.0897795 0.0897756c0.0294409,-0.0165394 0.0598937,-0.0313661 0.0912244,-0.0443425 0.0309843,-0.0128386 0.0627677,-0.0239016 0.0952165,-0.0330709l0 -0.12678c0,-0.0491732 0.0200591,-0.0938268 0.0523701,-0.126134 0.032311,-0.0323071 0.0769646,-0.0523661 0.126138,-0.0523661l0.109299 0c0.0491732,0 0.0938268,0.0200591 0.126134,0.0523701 0.032311,0.0323031 0.0523701,0.0769528 0.0523701,0.12613l0 0.126783zm0.0290039 0.194252c-0.0419685,-0.0173858 -0.0864055,-0.0307638 -0.132811,-0.0396378l-0.0710276 -0.0135866 0 -0.0721181 0 -0.195693c0,-0.000917323 -0.000440945,-0.00181496 -0.00114567,-0.00251969 -0.000704724,-0.000704724 -0.0016063,-0.00114567 -0.00252362,-0.00114567l-0.109299 0c-0.00092126,0 -0.00182283,0.000440945 -0.00252756,0.00114173 -0.000700787,0.000704724 -0.00114567,0.0016063 -0.00114567,0.00252362l0 0.195693 0 0.072126 -0.0710276 0.0135787c-0.0463976,0.00887008 -0.0908189,0.0222441 -0.132776,0.039626 -0.0431654,0.0178819 -0.0839567,0.0399409 -0.121835,0.0656417l-0.0598071 0.0405827 -0.0508268 -0.0508268 -0.138394 -0.138394c-0.000633858,-0.000633858 -0.00158661,-0.000952756 -0.00260236,-0.000952756 -0.00101181,0 -0.00196457,0.000318898 -0.00259843,0.000952756l-0.0772874 0.0772913c-0.000633858,0.000633858 -0.000952756,0.00158661 -0.000952756,0.00260236l-0.00034252 0c0,0.000799213 0.000429134,0.00173622 0.00129134,0.00259843l0.138398 0.138394 0.0508386 0.0508346 -0.0405945 0.0597992c-0.0257047,0.0378701 -0.0477559,0.0786496 -0.0656339,0.121799 -0.0173858,0.0419646 -0.0307638,0.0864055 -0.0396378,0.132811l-0.0135827 0.0710276 -0.072122 0 -0.195693 0c-0.000917323,0 -0.0018189,0.000444882 -0.00252362,0.00114567 -0.000700787,0.000700787 -0.00114173,0.0016063 -0.00114173,0.00252756l0 0.109299c0,0.000917323 0.000440945,0.0018189 0.00114567,0.00252362 0.000704724,0.000704724 0.0016063,0.00114567 0.00251969,0.00114567l0.195693 0 0.072126 0 0.0135787 0.0710276c0.00887402,0.0463976 0.022248,0.0908189 0.0396299,0.132776 0.017878,0.0431693 0.039937,0.0839606 0.0656417,0.121839l0.0405827 0.0598071 -0.0508268 0.0508268 -0.138394 0.13839c-0.000633858,0.000637795 -0.000952756,0.00158661 -0.000952756,0.00260236 0,0.00101181 0.000318898,0.00196457 0.000952756,0.00259843l0.0772874 0.0772913c0.000633858,0.000633858 0.00158661,0.000952756 0.00259843,0.000952756 0.00101575,0 0.0019685,-0.000318898 0.00260236,-0.000952756l0.138394 -0.138394 0.0508346 -0.0508346 0.0597992 0.0405906c0.0378701,0.0257047 0.0786575,0.0477638 0.121819,0.0656417 0.0419606,0.0173819 0.0863858,0.0307598 0.132791,0.0396299l0.0710276 0.0135709 0 0.0721339 0 0.195693c0,0.000917323 0.000444882,0.0018189 0.00114567,0.00252362 0.000704724,0.000700787 0.0016063,0.00114173 0.00252756,0.00114173l0.109299 0c0.000917323,0 0.0018189,-0.000440945 0.00252362,-0.00114567 0.000704724,-0.000704724 0.00114567,-0.0016063 0.00114567,-0.00251969l0 -0.195693 0 -0.0721299 0.0710276 -0.0135748c0.0463976,-0.00887008 0.0908307,-0.0222441 0.132787,-0.0396299 0.0431614,-0.017878 0.0839528,-0.039937 0.121827,-0.0656417l0.0598071 -0.0405866 0.0508268 0.0508307 0.138394 0.138394c0.000862205,0.000862205 0.00179921,0.00129528 0.00259843,0.00129528l0 -0.00034252c0.00101181,0 0.00196457,-0.000318898 0.00259843,-0.000956693l0.0772913 -0.0772874c0.000633858,-0.000633858 0.000952756,-0.00158661 0.000952756,-0.00259843 0,-0.00101575 -0.000318898,-0.00196457 -0.000952756,-0.00260236l-0.13839 -0.13839 -0.0508307 -0.0508307 0.0405866 -0.0598031c0.0257008,-0.0378701 0.0477559,-0.0786535 0.0656378,-0.121811 0.0173819,-0.0419685 0.0307598,-0.0864016 0.0396299,-0.132803l0.0135827 -0.0710276 0.072122 0 0.195693 0c0.000913386,0 0.00181496,-0.000440945 0.00251969,-0.00114567 0.000704724,-0.000704724 0.00114567,-0.0016063 0.00114567,-0.00252362l0 -0.109299c0,-0.00092126 -0.000440945,-0.00182677 -0.00114173,-0.00252756 -0.000704724,-0.000700787 -0.0016063,-0.00114567 -0.00252362,-0.00114567l-0.195693 0 -0.0721181 0 -0.0135866 -0.0710276c-0.00887402,-0.0464055 -0.022252,-0.0908425 -0.0396339,-0.132807 -0.017878,-0.0431535 -0.0399331,-0.0839331 -0.0656378,-0.121803l-0.0405827 -0.0598071 0.0508268 -0.0508268 0.138394 -0.138394c0.000633858,-0.000633858 0.000952756,-0.00158661 0.000952756,-0.00260236 0,-0.00101181 -0.000318898,-0.00196457 -0.000952756,-0.00259843l-0.0772913 -0.0772874c-0.000633858,-0.000633858 -0.00158661,-0.000952756 -0.00259843,-0.000952756 -0.00101575,0 -0.00196457,0.000318898 -0.00260236,0.000952756l-0.13839 0.138394 -0.0508307 0.0508307 -0.0598031 -0.0405866c-0.0378661,-0.0257047 -0.0786496,-0.0477559 -0.121803,-0.0656339z"/>
  </g>
  <g id="_409695696">
   <path id="_409695720" class="fil1" d="M4.97996 3.78382c0.0880236,0 0.16772,0.035685 0.225413,0.093374 0.057689,0.0576929 0.093374,0.13739 0.093374,0.225413 0,0.0880236 -0.035685,0.167724 -0.093374,0.225413 -0.0576929,0.0576929 -0.13739,0.093374 -0.225413,0.093374 -0.0880236,0 -0.167724,-0.0356811 -0.225413,-0.093374 -0.0576929,-0.057689 -0.093374,-0.13739 -0.093374,-0.225413 0,-0.0880236 0.0356811,-0.16772 0.093374,-0.225413 0.057689,-0.057689 0.13739,-0.093374 0.225413,-0.093374zm0.150146 0.168642c-0.0384173,-0.0384213 -0.0915039,-0.062185 -0.150146,-0.062185 -0.0586417,0 -0.111728,0.0237638 -0.150146,0.062185 -0.0384213,0.0384213 -0.062185,0.0915039 -0.062185,0.150146 0,0.0586417 0.0237638,0.111728 0.062185,0.150146 0.0384173,0.0384213 0.0915039,0.062185 0.150146,0.062185 0.0586417,0 0.111724,-0.0237638 0.150146,-0.062185 0.0384213,-0.0384173 0.062185,-0.0915039 0.062185,-0.150146 0,-0.0586417 -0.0237638,-0.111728 -0.062185,-0.150146z"/>
   <path id="_409695768" class="fil1" d="M5.12193 3.59922c0.0197638,0.00558661 0.039126,0.0123228 0.0579961,0.0201417 0.0190748,0.00790157 0.0376142,0.0169252 0.0555354,0.0269921l0.0546614 -0.0546614c0.0211772,-0.0211772 0.0490354,-0.0317717 0.0768465,-0.0317717 0.027815,0 0.0556693,0.0105945 0.0768504,0.0317717l0.047063 0.0470591c0.0211772,0.0211811 0.0317717,0.0490394 0.0317717,0.0768504 0,0.027815 -0.0105945,0.0556732 -0.0317717,0.0768504l-0.0546614 0.0546614c0.0100669,0.0179213 0.0190906,0.0364606 0.0269961,0.0555354 0.0078189,0.0188701 0.0145551,0.0382283 0.0201378,0.0579921l0.0771969 0c0.0299409,0 0.0571299,0.0122126 0.0768031,0.0318858 0.0196732,0.0196772 0.0318858,0.0468661 0.0318858,0.0768071l0 0.0665512c0,0.0299409 -0.0122126,0.0571299 -0.0318858,0.0768031 -0.0196693,0.0196732 -0.0468583,0.0318858 -0.0768031,0.0318858l-0.0771969 0c-0.00558268,0.0197638 -0.0123189,0.039122 -0.0201378,0.0579921 -0.00790157,0.0190748 -0.0169291,0.0376142 -0.0269961,0.0555354l0.0546614 0.0546654c0.0211772,0.0211811 0.0317717,0.0490354 0.0317717,0.0768465 0,0.027815 -0.0105945,0.0556732 -0.0317717,0.0768504l-0.047063 0.047063c-0.0211772,0.0211772 -0.0490354,0.0317677 -0.0768504,0.0317677l0 -0.000204724c-0.027937,0 -0.0558071,-0.0105236 -0.0768465,-0.031563l-0.0546614 -0.0546614c-0.0179252,0.0100669 -0.0364685,0.0190945 -0.0555472,0.027 -0.0188661,0.00781496 -0.0382244,0.0145551 -0.0579843,0.0201378l0 0.0771929c0,0.0299449 -0.0122126,0.0571339 -0.0318858,0.0768031 -0.0196732,0.0196732 -0.0468622,0.0318858 -0.0768031,0.0318858l-0.0665512 0c-0.0299409,0 -0.0571299,-0.0122126 -0.0768071,-0.0318858 -0.0196732,-0.0196732 -0.0318858,-0.0468622 -0.0318858,-0.0768031l0 -0.0771929c-0.0197598,-0.00558268 -0.0391181,-0.0123228 -0.0579843,-0.0201378 -0.0190787,-0.00790551 -0.037622,-0.0169291 -0.0555433,-0.027l-0.0546614 0.0546614c-0.0211772,0.0211772 -0.0490354,0.0317717 -0.0768504,0.0317717 -0.027811,0 -0.0556693,-0.0105945 -0.0768504,-0.0317717l-0.0470591 -0.047063c-0.0211811,-0.0211772 -0.0317717,-0.0490354 -0.0317717,-0.0768504 0,-0.027811 0.0105906,-0.0556693 0.0317717,-0.0768465l0.0546654 -0.0546654c-0.0100709,-0.0179252 -0.0190984,-0.0364685 -0.0270039,-0.0555512 -0.00781496,-0.0188622 -0.0145512,-0.0382165 -0.0201339,-0.0579764l-0.0771969 0c-0.0299449,0 -0.0571339,-0.0122126 -0.0768031,-0.0318858 -0.0196732,-0.0196732 -0.0318858,-0.0468622 -0.0318858,-0.0768031l0 -0.0665512c0,-0.0299409 0.0122126,-0.0571299 0.0318858,-0.0768071 0.0196732,-0.0196732 0.0468622,-0.0318858 0.0768031,-0.0318858l0.0771969 0c0.00558268,-0.0197638 0.0123228,-0.039126 0.0201417,-0.0579961 0.00790157,-0.0190748 0.0169252,-0.0376102 0.0269921,-0.0555315l-0.0546654 -0.0546614c-0.0210394,-0.0210394 -0.031563,-0.0489094 -0.0315591,-0.0768465l-0.000208661 0c0,-0.027815 0.0105945,-0.0556732 0.0317717,-0.0768543l0.0470591 -0.047063c0.0211811,-0.0211772 0.0490394,-0.0317677 0.0768504,-0.0317677 0.027811,0 0.0556693,0.0105906 0.0768504,0.0317677l0.0546654 0.0546654c0.0179252,-0.0100709 0.0364685,-0.0190984 0.0555472,-0.027 0.0188661,-0.00781496 0.0382205,-0.0145551 0.0579764,-0.0201339l0 -0.0771969c0,-0.0299409 0.0122126,-0.0571299 0.0318858,-0.0768031 0.0196772,-0.0196732 0.0468661,-0.0318858 0.0768071,-0.0318858l0.0665512 0c0.0299409,0 0.0571299,0.0122126 0.0768031,0.0318858 0.0196732,0.0196693 0.0318858,0.0468583 0.0318858,0.0768031l0 0.0771969zm0.0176614 0.11828c-0.0255551,-0.0105866 -0.0526102,-0.0187323 -0.0808661,-0.0241339l-0.043252 -0.00827165 0 -0.0439173 0 -0.119154c0,-0.000559055 -0.000267717,-0.0011063 -0.00069685,-0.00153543 -0.000425197,-0.000429134 -0.000976378,-0.00069685 -0.00153543,-0.00069685l-0.0665512 0c-0.000559055,0 -0.00111024,0.000267717 -0.00153937,0.00069685 -0.000429134,0.000425197 -0.00069685,0.000976378 -0.00069685,0.00153543l0 0.119154 0 0.0439213 -0.043248 0.00826772c-0.028252,0.00540157 -0.0552992,0.0135433 -0.0808465,0.024126 -0.0262835,0.0108898 -0.051122,0.0243189 -0.074185,0.0399685l-0.0364173 0.0247126 -0.0309488 -0.0309488 -0.0842677 -0.0842677c-0.000385827,-0.000385827 -0.000964567,-0.00057874 -0.00158268,-0.00057874 -0.00061811,0 -0.00119685,0.000192913 -0.00158268,0.00057874l-0.0470591 0.047063c-0.000389764,0.000385827 -0.000582677,0.000964567 -0.000582677,0.00158661l-0.000208661 0c0,0.000484252 0.00026378,0.00105512 0.000787402,0.00157874l0.0842677 0.0842677 0.0309567 0.0309528 -0.0247165 0.0364134c-0.0156535,0.0230591 -0.0290787,0.0478858 -0.0399646,0.0741614 -0.0105866,0.0255551 -0.0187323,0.0526102 -0.0241339,0.0808701l-0.00827165 0.043248 -0.0439173 0 -0.119154 0c-0.000559055,0 -0.00111024,0.000267717 -0.00153543,0.00069685 -0.000429134,0.000425197 -0.00069685,0.000976378 -0.00069685,0.00153937l0 0.0665512c0,0.000559055 0.000267717,0.00111024 0.00069685,0.00153543 0.000429134,0.000429134 0.000980315,0.00069685 0.00153543,0.00069685l0.119154 0 0.0439173 0 0.00827165 0.043252c0.00540157,0.028252 0.0135433,0.0552992 0.0241299,0.0808465 0.0108858,0.0262835 0.0243189,0.051122 0.0399685,0.074185l0.0247126 0.0364173 -0.0309528 0.0309488 -0.0842638 0.0842638c-0.000389764,0.000389764 -0.000582677,0.000968504 -0.000582677,0.00158268 0,0.00061811 0.000192913,0.00119685 0.000582677,0.00158661l0.0470591 0.0470591c0.000385827,0.000389764 0.000964567,0.000582677 0.00158268,0.000582677 0.00061811,0 0.00119685,-0.000192913 0.00158268,-0.000582677l0.0842677 -0.0842638 0.0309528 -0.0309567 0.0364134 0.0247165c0.0230591,0.0156535 0.0478937,0.0290827 0.0741732,0.0399685 0.0255512,0.0105866 0.0526024,0.0187283 0.0808583,0.0241299l0.043248 0.00826772 0 0.0439213 0 0.119154c0,0.000559055 0.000267717,0.00111024 0.00069685,0.00153543 0.000429134,0.000429134 0.000980315,0.00069685 0.00153937,0.00069685l0.0665512 0c0.000559055,0 0.00111024,-0.000267717 0.00153543,-0.00069685 0.000429134,-0.000429134 0.00069685,-0.000980315 0.00069685,-0.00153543l0 -0.119154 0 -0.0439213 0.043252 -0.00826772c0.028252,-0.00540157 0.0553031,-0.0135433 0.0808504,-0.0241299 0.0262835,-0.0108858 0.0511181,-0.024315 0.0741811,-0.0399685l0.0364173 -0.0247126 0.0309488 0.0309528 0.0842677 0.0842638c0.000523622,0.000527559 0.00109449,0.000787402 0.00157874,0.000787402l0 -0.000208661c0.00061811,0 0.00119685,-0.000192913 0.00158661,-0.00057874l0.0470591 -0.0470591c0.000389764,-0.000389764 0.000582677,-0.000968504 0.000582677,-0.00158661 0,-0.000614173 -0.000192913,-0.00119291 -0.000582677,-0.00158268l-0.0842638 -0.0842638 -0.0309488 -0.0309528 0.0247126 -0.0364134c0.0156496,-0.0230591 0.0290748,-0.0478898 0.0399646,-0.0741693 0.0105866,-0.0255551 0.0187283,-0.0526102 0.0241299,-0.0808622l0.00827165 -0.043252 0.0439173 0 0.119154 0c0.000555118,0 0.0011063,-0.000267717 0.00153543,-0.00069685 0.000429134,-0.000425197 0.00069685,-0.000976378 0.00069685,-0.00153543l0 -0.0665512c0,-0.000562992 -0.000267717,-0.00111417 -0.00069685,-0.00153937 -0.000425197,-0.000429134 -0.000976378,-0.00069685 -0.00153543,-0.00069685l-0.119154 0 -0.0439173 0 -0.00827165 -0.043248c-0.00540157,-0.0282559 -0.0135472,-0.055315 -0.0241339,-0.0808661 -0.0108858,-0.0262756 -0.024315,-0.0511063 -0.0399646,-0.0741654l-0.0247126 -0.0364173 0.0309528 -0.0309488 0.0842638 -0.0842677c0.000389764,-0.000385827 0.000582677,-0.000964567 0.000582677,-0.00158268 0,-0.00061811 -0.000192913,-0.00119685 -0.000582677,-0.00158268l-0.0470591 -0.0470591c-0.000389764,-0.000389764 -0.000968504,-0.000582677 -0.00158661,-0.000582677 -0.000614173,0 -0.00119291,0.000192913 -0.00158268,0.000582677l-0.0842638 0.0842638 -0.0309528 0.0309528 -0.0364134 -0.0247126c-0.0230551,-0.0156496 -0.0478898,-0.0290787 -0.0741654,-0.0399646z"/>
  </g>
  <g id="_409694400">
   <path id="_409694808" class="fil1" d="M2.83072 1.44526c0.0880236,0 0.16772,0.035685 0.225413,0.093374 0.057689,0.0576929 0.093374,0.13739 0.093374,0.225413 0,0.0880236 -0.035685,0.167724 -0.093374,0.225413 -0.0576929,0.0576929 -0.13739,0.093374 -0.225413,0.093374 -0.0880236,0 -0.167724,-0.0356811 -0.225413,-0.093374 -0.0576929,-0.057689 -0.093374,-0.13739 -0.093374,-0.225413 0,-0.0880236 0.0356811,-0.16772 0.093374,-0.225413 0.057689,-0.057689 0.13739,-0.093374 0.225413,-0.093374zm0.150146 0.168642c-0.0384173,-0.0384213 -0.0915039,-0.062185 -0.150146,-0.062185 -0.0586417,0 -0.111728,0.0237638 -0.150146,0.062185 -0.0384213,0.0384213 -0.062185,0.0915039 -0.062185,0.150146 0,0.0586417 0.0237638,0.111728 0.062185,0.150146 0.0384173,0.0384213 0.0915039,0.062185 0.150146,0.062185 0.0586417,0 0.111724,-0.0237638 0.150146,-0.062185 0.0384213,-0.0384173 0.062185,-0.0915039 0.062185,-0.150146 0,-0.0586417 -0.0237638,-0.111728 -0.062185,-0.150146z"/>
   <path id="_409694712" class="fil1" d="M2.97269 1.26066c0.0197638,0.00558661 0.039126,0.0123228 0.0579961,0.0201417 0.0190748,0.00790157 0.0376142,0.0169252 0.0555354,0.0269921l0.0546614 -0.0546614c0.0211772,-0.0211772 0.0490354,-0.0317717 0.0768465,-0.0317717 0.027815,0 0.0556693,0.0105945 0.0768504,0.0317717l0.047063 0.0470591c0.0211772,0.0211811 0.0317717,0.0490394 0.0317717,0.0768504 0,0.027815 -0.0105945,0.0556732 -0.0317717,0.0768504l-0.0546614 0.0546614c0.0100669,0.0179213 0.0190906,0.0364606 0.0269961,0.0555354 0.0078189,0.0188701 0.0145551,0.0382283 0.0201378,0.0579921l0.0771969 0c0.0299409,0 0.0571299,0.0122126 0.0768031,0.0318858 0.0196732,0.0196772 0.0318858,0.0468661 0.0318858,0.0768071l0 0.0665512c0,0.0299409 -0.0122126,0.0571299 -0.0318858,0.0768031 -0.0196693,0.0196732 -0.0468583,0.0318858 -0.0768031,0.0318858l-0.0771969 0c-0.00558268,0.0197638 -0.0123189,0.039122 -0.0201378,0.0579921 -0.00790157,0.0190748 -0.0169291,0.0376142 -0.0269961,0.0555354l0.0546614 0.0546654c0.0211772,0.0211811 0.0317717,0.0490354 0.0317717,0.0768465 0,0.027815 -0.0105945,0.0556732 -0.0317717,0.0768504l-0.047063 0.047063c-0.0211772,0.0211772 -0.0490354,0.0317677 -0.0768504,0.0317677l0 -0.000204724c-0.027937,0 -0.0558071,-0.0105236 -0.0768465,-0.031563l-0.0546614 -0.0546614c-0.0179252,0.0100669 -0.0364685,0.0190945 -0.0555472,0.027 -0.0188661,0.00781496 -0.0382244,0.0145551 -0.0579843,0.0201378l0 0.0771929c0,0.0299449 -0.0122126,0.0571339 -0.0318858,0.0768031 -0.0196732,0.0196732 -0.0468622,0.0318858 -0.0768031,0.0318858l-0.0665512 0c-0.0299409,0 -0.0571299,-0.0122126 -0.0768071,-0.0318858 -0.0196732,-0.0196732 -0.0318858,-0.0468622 -0.0318858,-0.0768031l0 -0.0771929c-0.0197598,-0.00558268 -0.0391181,-0.0123228 -0.0579843,-0.0201378 -0.0190787,-0.00790551 -0.037622,-0.0169291 -0.0555433,-0.027l-0.0546614 0.0546614c-0.0211772,0.0211772 -0.0490354,0.0317717 -0.0768504,0.0317717 -0.027811,0 -0.0556693,-0.0105945 -0.0768504,-0.0317717l-0.0470591 -0.047063c-0.0211811,-0.0211772 -0.0317717,-0.0490354 -0.0317717,-0.0768504 0,-0.027811 0.0105906,-0.0556693 0.0317717,-0.0768465l0.0546654 -0.0546654c-0.0100709,-0.0179252 -0.0190984,-0.0364685 -0.0270039,-0.0555512 -0.00781496,-0.0188622 -0.0145512,-0.0382165 -0.0201339,-0.0579764l-0.0771969 0c-0.0299449,0 -0.0571339,-0.0122126 -0.0768031,-0.0318858 -0.0196732,-0.0196732 -0.0318858,-0.0468622 -0.0318858,-0.0768031l0 -0.0665512c0,-0.0299409 0.0122126,-0.0571299 0.0318858,-0.0768071 0.0196732,-0.0196732 0.0468622,-0.0318858 0.0768031,-0.0318858l0.0771969 0c0.00558268,-0.0197638 0.0123228,-0.039126 0.0201417,-0.0579961 0.00790157,-0.0190748 0.0169252,-0.0376102 0.0269921,-0.0555315l-0.0546654 -0.0546614c-0.0210394,-0.0210394 -0.031563,-0.0489094 -0.0315591,-0.0768465l-0.000208661 0c0,-0.027815 0.0105945,-0.0556732 0.0317717,-0.0768543l0.0470591 -0.047063c0.0211811,-0.0211772 0.0490394,-0.0317677 0.0768504,-0.0317677 0.027811,0 0.0556693,0.0105906 0.0768504,0.0317677l0.0546654 0.0546654c0.0179252,-0.0100709 0.0364685,-0.0190984 0.0555472,-0.027 0.0188661,-0.00781496 0.0382205,-0.0145551 0.0579764,-0.0201339l0 -0.0771969c0,-0.0299409 0.0122126,-0.0571299 0.0318858,-0.0768031 0.0196772,-0.0196732 0.0468661,-0.0318858 0.0768071,-0.0318858l0.0665512 0c0.0299409,0 0.0571299,0.0122126 0.0768031,0.0318858 0.0196732,0.0196693 0.0318858,0.0468583 0.0318858,0.0768031l0 0.0771969zm0.0176614 0.11828c-0.0255551,-0.0105866 -0.0526102,-0.0187323 -0.0808661,-0.0241339l-0.043252 -0.00827165 0 -0.0439173 0 -0.119154c0,-0.000559055 -0.000267717,-0.0011063 -0.00069685,-0.00153543 -0.000425197,-0.000429134 -0.000976378,-0.00069685 -0.00153543,-0.00069685l-0.0665512 0c-0.000559055,0 -0.00111024,0.000267717 -0.00153937,0.00069685 -0.000429134,0.000425197 -0.00069685,0.000976378 -0.00069685,0.00153543l0 0.119154 0 0.0439213 -0.043248 0.00826772c-0.028252,0.00540157 -0.0552992,0.0135433 -0.0808465,0.024126 -0.0262835,0.0108898 -0.051122,0.0243189 -0.074185,0.0399685l-0.0364173 0.0247126 -0.0309488 -0.0309488 -0.0842677 -0.0842677c-0.000385827,-0.000385827 -0.000964567,-0.00057874 -0.00158268,-0.00057874 -0.00061811,0 -0.00119685,0.000192913 -0.00158268,0.00057874l-0.0470591 0.047063c-0.000389764,0.000385827 -0.000582677,0.000964567 -0.000582677,0.00158661l-0.000208661 0c0,0.000484252 0.00026378,0.00105512 0.000787402,0.00157874l0.0842677 0.0842677 0.0309567 0.0309528 -0.0247165 0.0364134c-0.0156535,0.0230591 -0.0290787,0.0478858 -0.0399646,0.0741614 -0.0105866,0.0255551 -0.0187323,0.0526102 -0.0241339,0.0808701l-0.00827165 0.043248 -0.0439173 0 -0.119154 0c-0.000559055,0 -0.00111024,0.000267717 -0.00153543,0.00069685 -0.000429134,0.000425197 -0.00069685,0.000976378 -0.00069685,0.00153937l0 0.0665512c0,0.000559055 0.000267717,0.00111024 0.00069685,0.00153543 0.000429134,0.000429134 0.000980315,0.00069685 0.00153543,0.00069685l0.119154 0 0.0439173 0 0.00827165 0.043252c0.00540157,0.028252 0.0135433,0.0552992 0.0241299,0.0808465 0.0108858,0.0262835 0.0243189,0.051122 0.0399685,0.074185l0.0247126 0.0364173 -0.0309528 0.0309488 -0.0842638 0.0842638c-0.000389764,0.000389764 -0.000582677,0.000968504 -0.000582677,0.00158268 0,0.00061811 0.000192913,0.00119685 0.000582677,0.00158661l0.0470591 0.0470591c0.000385827,0.000389764 0.000964567,0.000582677 0.00158268,0.000582677 0.00061811,0 0.00119685,-0.000192913 0.00158268,-0.000582677l0.0842677 -0.0842638 0.0309528 -0.0309567 0.0364134 0.0247165c0.0230591,0.0156535 0.0478937,0.0290827 0.0741732,0.0399685 0.0255512,0.0105866 0.0526024,0.0187283 0.0808583,0.0241299l0.043248 0.00826772 0 0.0439213 0 0.119154c0,0.000559055 0.000267717,0.00111024 0.00069685,0.00153543 0.000429134,0.000429134 0.000980315,0.00069685 0.00153937,0.00069685l0.0665512 0c0.000559055,0 0.00111024,-0.000267717 0.00153543,-0.00069685 0.000429134,-0.000429134 0.00069685,-0.000980315 0.00069685,-0.00153543l0 -0.119154 0 -0.0439213 0.043252 -0.00826772c0.028252,-0.00540157 0.0553031,-0.0135433 0.0808504,-0.0241299 0.0262835,-0.0108858 0.0511181,-0.024315 0.0741811,-0.0399685l0.0364173 -0.0247126 0.0309488 0.0309528 0.0842677 0.0842638c0.000523622,0.000527559 0.00109449,0.000787402 0.00157874,0.000787402l0 -0.000208661c0.00061811,0 0.00119685,-0.000192913 0.00158661,-0.00057874l0.0470591 -0.0470591c0.000389764,-0.000389764 0.000582677,-0.000968504 0.000582677,-0.00158661 0,-0.000614173 -0.000192913,-0.00119291 -0.000582677,-0.00158268l-0.0842638 -0.0842638 -0.0309488 -0.0309528 0.0247126 -0.0364134c0.0156496,-0.0230591 0.0290748,-0.0478898 0.0399646,-0.0741693 0.0105866,-0.0255551 0.0187283,-0.0526102 0.0241299,-0.0808622l0.00827165 -0.043252 0.0439173 0 0.119154 0c0.000555118,0 0.0011063,-0.000267717 0.00153543,-0.00069685 0.000429134,-0.000425197 0.00069685,-0.000976378 0.00069685,-0.00153543l0 -0.0665512c0,-0.000562992 -0.000267717,-0.00111417 -0.00069685,-0.00153937 -0.000425197,-0.000429134 -0.000976378,-0.00069685 -0.00153543,-0.00069685l-0.119154 0 -0.0439173 0 -0.00827165 -0.043248c-0.00540157,-0.0282559 -0.0135472,-0.055315 -0.0241339,-0.0808661 -0.0108858,-0.0262756 -0.024315,-0.0511063 -0.0399646,-0.0741654l-0.0247126 -0.0364173 0.0309528 -0.0309488 0.0842638 -0.0842677c0.000389764,-0.000385827 0.000582677,-0.000964567 0.000582677,-0.00158268 0,-0.00061811 -0.000192913,-0.00119685 -0.000582677,-0.00158268l-0.0470591 -0.0470591c-0.000389764,-0.000389764 -0.000968504,-0.000582677 -0.00158661,-0.000582677 -0.000614173,0 -0.00119291,0.000192913 -0.00158268,0.000582677l-0.0842638 0.0842638 -0.0309528 0.0309528 -0.0364134 -0.0247126c-0.0230551,-0.0156496 -0.0478898,-0.0290787 -0.0741654,-0.0399646z"/>
  </g>
 </g>
</svg>
