<svg xmlns="http://www.w3.org/2000/svg" width="48" height="48.002" viewBox="0 0 48 48.002">
  <g>
    <path d="M48,12.364V4.606a.729.729,0,0,0-.213-.514L43.908.213A.725.725,0,0,0,43.394,0H4.606a.725.725,0,0,0-.514.213L.213,4.092A.727.727,0,0,0,0,4.606v7.758a.729.729,0,0,0,.213.514l3.365,3.365L.213,19.608A.724.724,0,0,0,0,20.122V27.88a.729.729,0,0,0,.213.514l3.365,3.365L.213,35.122A.732.732,0,0,0,0,35.638v7.756a.734.734,0,0,0,.213.516l3.879,3.879A.725.725,0,0,0,4.606,48H43.394a.725.725,0,0,0,.514-.213l3.879-3.879A.732.732,0,0,0,48,43.394V35.638a.734.734,0,0,0-.213-.516l-3.365-3.363,3.365-3.365A.727.727,0,0,0,48,27.88V20.122a.726.726,0,0,0-.213-.514l-3.365-3.365,3.365-3.365A.729.729,0,0,0,48,12.364ZM46.545,43.092l-3.453,3.453H4.907L1.454,43.092V35.938l3.453-3.453H43.093l3.453,3.453v7.154Zm0-15.513L43.092,31.03H4.907L1.454,27.579V20.423L4.907,16.97H43.093l3.453,3.453v7.156Zm0-15.516-3.453,3.451H4.907L1.454,12.063V4.907L4.907,1.454H43.093l3.453,3.453v7.156Z" fill="#1a171b"/>
    <path d="M8.485,4.848a3.637,3.637,0,1,0,3.636,3.637A3.641,3.641,0,0,0,8.485,4.848Zm0,5.819a2.182,2.182,0,1,1,2.182-2.182A2.185,2.185,0,0,1,8.485,10.667Z" fill="#1a171b"/>
    <path d="M19.152,4.848a3.637,3.637,0,1,0,3.637,3.637A3.641,3.641,0,0,0,19.152,4.848Zm0,5.819a2.182,2.182,0,1,1,2.182-2.182A2.185,2.185,0,0,1,19.152,10.667Z" fill="#1a171b"/>
    <path d="M41.94,5.333H27.4a.728.728,0,0,0-.728.729V10.91a.729.729,0,0,0,.728.729H41.94a.728.728,0,0,0,.727-.729V6.062A.728.728,0,0,0,41.94,5.333Zm-.728,4.849H28.121v-3.4H41.212Z" fill="#1a171b"/>
    <path d="M8.485,20.364A3.637,3.637,0,1,0,12.121,24,3.64,3.64,0,0,0,8.485,20.364Zm0,5.818A2.182,2.182,0,1,1,10.667,24,2.185,2.185,0,0,1,8.485,26.182Z" fill="#1a171b"/>
    <path d="M19.152,20.364A3.637,3.637,0,1,0,22.789,24,3.64,3.64,0,0,0,19.152,20.364Zm0,5.818A2.182,2.182,0,1,1,21.334,24,2.185,2.185,0,0,1,19.152,26.182Z" fill="#1a171b"/>
    <path d="M41.94,20.848H27.4a.728.728,0,0,0-.728.729v4.848a.727.727,0,0,0,.728.727H41.94a.726.726,0,0,0,.727-.727V21.577A.728.728,0,0,0,41.94,20.848Zm-.728,4.85H28.121V22.3H41.212Z" fill="#1a171b"/>
    <path d="M8.485,35.88a3.636,3.636,0,1,0,3.636,3.637A3.64,3.64,0,0,0,8.485,35.88Zm0,5.818a2.183,2.183,0,1,1,2.182-2.182A2.185,2.185,0,0,1,8.485,41.7Z" fill="#1a171b"/>
    <path d="M19.152,35.88a3.636,3.636,0,1,0,3.637,3.637A3.64,3.64,0,0,0,19.152,35.88Zm0,5.818a2.183,2.183,0,1,1,2.182-2.182A2.185,2.185,0,0,1,19.152,41.7Z" fill="#1a171b"/>
    <path d="M41.94,36.364H27.4a.728.728,0,0,0-.728.727v4.85a.729.729,0,0,0,.728.727H41.94a.728.728,0,0,0,.727-.727v-4.85A.728.728,0,0,0,41.94,36.364Zm-.728,4.848H28.121V37.819H41.212Z" fill="#1a171b"/>
  </g>
</svg>
