<svg xmlns="http://www.w3.org/2000/svg" width="96" height="96" viewBox="0 0 96 96"><defs><style>.cls-1{fill:#e5eefd;}.cls-2{fill:#c3d4ef;}.cls-3{fill:#fff;}.cls-4{fill:#fc9a9a;}.cls-5{fill:#a9ebc8;}.cls-6{fill:#283d54;}</style></defs><title>20.File transfer</title><g id="_20.File_transfer" data-name="20.File transfer"><path class="cls-1" d="M81,35V55a3,3,0,0,1-3,3H8a3,3,0,0,1-3-3V35a3,3,0,0,1,3-3H78A3,3,0,0,1,81,35Z"/><polygon class="cls-2" points="75 32 11 32 16 27 70 27 75 32"/><circle class="cls-3" cx="17" cy="45" r="6"/><circle class="cls-3" cx="35" cy="45" r="6"/><path class="cls-1" d="M81,66V86a3,3,0,0,1-3,3H8a3,3,0,0,1-3-3V66a3,3,0,0,1,3-3H78A3,3,0,0,1,81,66Z"/><polygon class="cls-1" points="75 63 11 63 16 58 70 58 75 63"/><polygon class="cls-1" points="76 95 10 95 16 89 70 89 76 95"/><polygon class="cls-2" points="70 58 16 58 14 60 72 60 70 58"/><polygon class="cls-2" points="70 89 16 89 14 91 72 91 70 89"/><circle class="cls-3" cx="35" cy="76" r="6"/><circle class="cls-3" cx="17" cy="76" r="6"/><path class="cls-4" d="M52,3V32l7,7H48l-7-7V3a2.006,2.006,0,0,1,2-2H54A2.006,2.006,0,0,0,52,3Z"/><path class="cls-3" d="M63,3V32l7,7H59l-7-7V3a2.006,2.006,0,0,1,2-2H65A2.006,2.006,0,0,0,63,3Z"/><path class="cls-3" d="M70,34v5l-7-7h5A2.006,2.006,0,0,1,70,34Z"/><path class="cls-5" d="M91,3V37a2.006,2.006,0,0,1-2,2H70V34a2.006,2.006,0,0,0-2-2H63V3a2.006,2.006,0,0,1,2-2H89A2.006,2.006,0,0,1,91,3Z"/><path class="cls-6" d="M81,42a1,1,0,0,0-1,1V55a2,2,0,0,1-2,2H8a2,2,0,0,1-2-2V35a2,2,0,0,1,2-2H35a1,1,0,0,0,0-2H13.414l3-3H35a1,1,0,0,0,0-2H16a1,1,0,0,0-.707.293L10.586,31H8a4,4,0,0,0-4,4V55a4,4,0,0,0,4,4h5.586l-3,3H8a4,4,0,0,0-4,4V86a4,4,0,0,0,4,4h5.586l-4,4H5a1,1,0,0,0,0,2H22a1,1,0,0,0,0-2H12.414l4-4H69.586l4,4H28a1,1,0,0,0,0,2H81a1,1,0,0,0,0-2H76.414l-4-4H78a4,4,0,0,0,4-4V66a4,4,0,0,0-4-4H75.414l-3-3H78a4,4,0,0,0,4-4V43A1,1,0,0,0,81,42ZM80,66V86a2,2,0,0,1-2,2H8a2,2,0,0,1-2-2V66a2,2,0,0,1,2-2H78A2,2,0,0,1,80,66Zm-7.414-4H13.414l3-3H69.586Z"/><path class="cls-6" d="M10,45a7,7,0,1,0,7-7A7.009,7.009,0,0,0,10,45Zm12,0a5,5,0,1,1-5-5A5.006,5.006,0,0,1,22,45Z"/><path class="cls-6" d="M17,69a7,7,0,1,0,7,7A7.009,7.009,0,0,0,17,69Zm0,12a5,5,0,1,1,5-5A5.006,5.006,0,0,1,17,81Z"/><path class="cls-6" d="M28,45a7,7,0,1,0,7-7A7.009,7.009,0,0,0,28,45Zm12,0a5,5,0,1,1-5-5A5.006,5.006,0,0,1,40,45Z"/><path class="cls-6" d="M35,69a7,7,0,1,0,7,7A7.009,7.009,0,0,0,35,69Zm0,12a5,5,0,1,1,5-5A5.006,5.006,0,0,1,35,81Z"/><path class="cls-6" d="M15,45a1,1,0,0,0,1,1h2a1,1,0,0,0,0-2H16A1,1,0,0,0,15,45Z"/><path class="cls-6" d="M18,75H16a1,1,0,0,0,0,2h2a1,1,0,0,0,0-2Z"/><path class="cls-6" d="M33,45a1,1,0,0,0,1,1h2a1,1,0,0,0,0-2H34A1,1,0,0,0,33,45Z"/><path class="cls-6" d="M36,75H34a1,1,0,0,0,0,2h2a1,1,0,0,0,0-2Z"/><path class="cls-6" d="M47,43v5a1,1,0,0,0,2,0V43a1,1,0,0,0-2,0Z"/><path class="cls-6" d="M53,46v2a1,1,0,0,0,2,0V46a1,1,0,0,0-2,0Z"/><path class="cls-6" d="M59,46v2a1,1,0,0,0,2,0V46a1,1,0,0,0-2,0Z"/><path class="cls-6" d="M65,46v2a1,1,0,0,0,2,0V46a1,1,0,0,0-2,0Z"/><path class="cls-6" d="M71,46v2a1,1,0,0,0,2,0V46a1,1,0,0,0-2,0Z"/><path class="cls-6" d="M48,72a1,1,0,0,0-1,1v6a1,1,0,0,0,2,0V73A1,1,0,0,0,48,72Z"/><path class="cls-6" d="M54,72a1,1,0,0,0-1,1v6a1,1,0,0,0,2,0V73A1,1,0,0,0,54,72Z"/><path class="cls-6" d="M60,72a1,1,0,0,0-1,1v6a1,1,0,0,0,2,0V73A1,1,0,0,0,60,72Z"/><path class="cls-6" d="M66,72a1,1,0,0,0-1,1v6a1,1,0,0,0,2,0V73A1,1,0,0,0,66,72Z"/><path class="cls-6" d="M72,72a1,1,0,0,0-1,1v6a1,1,0,0,0,2,0V73A1,1,0,0,0,72,72Z"/><path class="cls-6" d="M63,19a1,1,0,0,0-1,1V32a1.009,1.009,0,0,0,.294.708l7,7A1.009,1.009,0,0,0,70,40h8a1,1,0,0,0,0-2H71V34a3,3,0,0,0-3-3H64V20A1,1,0,0,0,63,19Zm6,15v2.586L65.414,33H68A1,1,0,0,1,69,34Z"/><path class="cls-6" d="M89,0H65a3,3,0,0,0-3,3V13.988A.918.918,0,0,1,61,15H59a1,1,0,0,0,0,2h2a2.916,2.916,0,0,0,3-3V3a1,1,0,0,1,1-1H89a1,1,0,0,1,1,1V37a1,1,0,0,1-1,1H83a1,1,0,0,0,0,2h6a3,3,0,0,0,3-3V3A3,3,0,0,0,89,0Z"/><path class="cls-6" d="M58.293,39.707A1,1,0,0,0,59,40h5a1,1,0,0,0,0-2H59.414L53,31.586V3a1,1,0,0,1,1-1h5a1,1,0,0,0,0-2H54a3,3,0,0,0-3,3V32a1,1,0,0,0,.293.707Z"/><path class="cls-6" d="M41,19a1,1,0,0,0,1-1V3a1,1,0,0,1,1-1h5a1,1,0,0,0,0-2H43a3,3,0,0,0-3,3V18A1,1,0,0,0,41,19Z"/><path class="cls-6" d="M47.293,39.707A1,1,0,0,0,48,40h5a1,1,0,0,0,0-2H48.414L42,31.586V24.012A.918.918,0,0,1,43,23h3a1,1,0,0,0,0-2H43a2.916,2.916,0,0,0-3,3v8a1,1,0,0,0,.293.707Z"/><path class="cls-6" d="M70,13a1,1,0,0,0,1,1H82.586l-1.293,1.293a1,1,0,1,0,1.414,1.414l3-3a.99.99,0,0,0,.217-.326,1,1,0,0,0,0-.764.99.99,0,0,0-.217-.326l-3-3a1,1,0,0,0-1.414,1.414L82.586,12H71A1,1,0,0,0,70,13Z"/><path class="cls-6" d="M69.077,22.618a1,1,0,0,0,0,.764.99.99,0,0,0,.217.326l3,3a1,1,0,0,0,1.414-1.414L72.414,24H84a1,1,0,0,0,0-2H72.414l1.293-1.293a1,1,0,0,0-1.414-1.414l-3,3A.99.99,0,0,0,69.077,22.618Z"/></g></svg>