<?xml version="1.0" encoding="utf-8"?>
<!-- Generator: Adobe Illustrator 24.0.0, SVG Export Plug-In . SVG Version: 6.00 Build 0)  -->
<svg version="1.1" id="Layer_1" xmlns="http://www.w3.org/2000/svg" xmlns:xlink="http://www.w3.org/1999/xlink" x="0px" y="0px"
	 viewBox="0 0 256 256" style="enable-background:new 0 0 256 256;" xml:space="preserve">
<style type="text/css">
	.st0{fill:#FC5D3D;}
	.st1{fill:#AFAFAF;}
	.st2{fill:#72C2E9;}
	.st3{fill:#FFFFFF;}
	.st4{fill:#EFEFEF;}
	.st5{fill:#878787;}
	.st6{fill:#F0C020;}
	.st7{fill:#F8E5B0;}
	.st8{fill:#B34F33;}
	.st9{fill:#FFCBC3;}
	.st10{fill:#FFB69F;}
	.st11{fill:#C5E5FE;}
	.st12{fill:#13BF6D;}
	.st13{fill:#F9E5AF;}
	.st14{fill:#7A7380;}
	.st15{fill:#72C1E8;}
	.st16{fill:#C5E5FF;}
	.st17{fill:#FFCBC2;}
	.st18{fill:#6E6D6C;}
	.st19{fill:#F2E1D7;}
	.st20{fill:#7D7B79;}
	.st21{fill:#D6C0B3;}
	.st22{fill:#76FFBB;}
	.st23{fill:#CF941C;}
	.st24{fill:#7C7B7A;}
	.st25{fill:#FEB69F;}
	.st26{fill:#E8A61E;}
	.st27{fill:#EFF0F0;}
	.st28{fill:#EDC21D;}
	.st29{fill:#4BA5C8;}
	.st30{fill:#E8A61F;}
	.st31{fill:#823A26;}
	.st32{fill:#4C4944;}
	.st33{fill:#4C4945;}
</style>
<g>
	<polygon class="st2" points="128.433,7 15.948,62.593 15.948,193.407 128.433,249 240.051,193.407 240.051,62.593 	"/>
	<path class="st11" d="M127.396,236.393L26.067,186.37c-0.854-0.421-1.394-1.29-1.394-2.242V83.874c0-1.381,1.119-2.5,2.5-2.5
		s2.5,1.119,2.5,2.5v98.7l98.822,48.786l84.896-42.33c1.233-0.615,2.736-0.114,3.353,1.122s0.114,2.737-1.122,3.353l-86.005,42.884
		C128.922,236.736,128.098,236.74,127.396,236.393z M221.219,187.921c-0.616-1.236-0.114-2.737,1.122-3.353l5.369-2.677
		c1.233-0.616,2.737-0.114,3.353,1.122c0.616,1.236,0.114,2.737-1.122,3.353l-5.369,2.677
		C223.343,189.657,221.837,189.161,221.219,187.921z"/>
	<path class="st0" d="M200.96,110.75h-12.63c-1.42-5.36-3.54-10.41-6.25-15.09l8.94-8.93c1.87-1.87,1.87-4.91,0-6.78L175.2,64.13
		c-1.87-1.87-4.9-1.87-6.78,0l-8.94,8.95c-4.67-2.72-9.73-4.84-15.07-6.26V54.19c0-2.65-2.15-4.79-4.79-4.79h-22.37
		c-2.64,0-4.79,2.14-4.79,4.79v12.63c-19.87,5.31-10.29,11.05-24.01-2.69c-1.88-1.87-4.92-1.87-6.78,0L65.85,79.95
		c-1.88,1.87-1.88,4.91,0,6.78l8.94,8.93c-2.68,4.62-4.81,9.64-6.25,15.09H55.9c-2.64,0-4.79,2.14-4.79,4.78v22.38
		c0,2.64,2.15,4.78,4.79,4.78h12.64c1.41,5.35,3.54,10.41,6.25,15.08l-8.94,8.94c-1.88,1.87-1.88,4.9,0,6.78l15.82,15.82
		c1.86,1.86,4.9,1.86,6.78,0l8.94-8.95c1.004,0.503,6.454,3.961,15.07,6.26v12.62c0,2.66,2.15,4.8,4.79,4.8h22.37
		c2.64,0,4.79-2.14,4.79-4.8v-12.62c5.34-1.43,10.4-3.54,15.07-6.26l8.94,8.95c1.88,1.86,4.91,1.86,6.78,0l15.82-15.82
		c1.87-1.88,1.87-4.91,0-6.78l-8.94-8.94c2.71-4.67,4.83-9.73,6.25-15.08h12.63c2.65,0,4.8-2.14,4.8-4.78v-22.38
		C205.76,112.89,203.61,110.75,200.96,110.75z M138.68,170.26c-6.72,1.59-13.88,1.57-20.49,0c-19.66-4.59-34.49-22.27-34.49-43.54
		c0-24.76,20.09-44.73,44.74-44.73c24.7,0,44.73,20.03,44.73,44.73C173.17,147.9,158.45,165.64,138.68,170.26z"/>
	<path class="st27" d="M153.29,124.62c0,10.07-6,18.74-14.61,22.64v23c-6.72,1.59-13.88,1.57-20.49,0v-23
		c-8.61-3.9-14.61-12.57-14.61-22.64c0-9.9,5.78-18.45,14.16-22.45v26.86h21.39v-26.86C147.5,106.17,153.29,114.72,153.29,124.62z"
		/>
	<circle cx="15.95" cy="167.12" r="2.5"/>
	<path d="M13.45,193.41c0,0.94,0.54,1.82,1.39,2.24l112.479,55.59c0.748,0.363,1.543,0.334,2.23,0l111.61-55.6
		c0.859-0.42,1.39-1.28,1.39-2.23V62.59c0-0.911-0.538-1.81-1.39-2.24L129.55,4.76c-0.7-0.34-1.54-0.34-2.23,0
		C126.866,4.984,15.201,60.163,14.757,60.406c-0.835,0.455-1.307,1.313-1.307,2.183v94.53c0,1.38,1.119,2.5,2.5,2.5
		c1.38,0,2.5-1.12,2.5-2.5V66.621l33.651,16.631c1.237,0.612,2.737,0.104,3.349-1.134c0.611-1.238,0.104-2.737-1.134-3.349
		L21.592,62.597L128.43,9.79L234.45,62.596l-32.048,15.963c-1.236,0.616-1.739,2.117-1.123,3.353
		c0.616,1.24,2.121,1.737,3.352,1.123l32.919-16.396V191.86l-106.617,53.104v-30.241c0-1.381-1.119-2.5-2.5-2.5s-2.5,1.119-2.5,2.5
		v30.253L18.45,191.85v-14.73c0-1.38-1.131-2.5-2.5-2.5c-1.381,0-2.5,1.12-2.5,2.5V193.41z"/>
	<path d="M185.14,74.07c0.974-0.975,0.974-2.565,0-3.54c-0.95-0.94-2.59-0.94-3.54,0c-0.974,0.975-0.974,2.565,0,3.54
		C182.572,75.043,184.164,75.047,185.14,74.07z"/>
	<path d="M66.64,108.25h-10.74c-4.02,0-7.29,3.26-7.29,7.28v22.38c0,4.01,3.271,7.28,7.29,7.28h10.74
		c1.25,4.18,2.94,8.27,5.04,12.15l-7.6,7.6c-2.841,2.82-2.857,7.464,0,10.32l15.819,15.81c2.818,2.837,7.459,2.839,10.311,0.01
		l7.609-7.62c3.841,2.09,7.921,3.79,12.141,5.05v10.74c0,4.01,3.27,7.28,7.29,7.29h22.359c4.03,0,7.301-3.27,7.301-7.29v-10.74
		c4.199-1.26,8.29-2.96,12.14-5.05l7.6,7.61c2.887,2.885,7.536,2.794,10.311,0l15.82-15.81c2.854-2.855,2.841-7.498,0-10.32
		l-7.601-7.6c2.101-3.89,3.8-7.98,5.04-12.15h10.75c4.01,0,7.28-3.27,7.29-7.28v-22.38c-0.01-4.02-3.28-7.28-7.29-7.28h-10.75
		c-1.24-4.18-2.939-8.27-5.04-12.16l7.601-7.6c2.84-2.82,2.856-7.452,0-10.31l-0.57-0.58c-0.95-0.94-2.601-0.94-3.54,0.01
		c-0.97,0.97-0.97,2.56,0,3.53l0.58,0.57c0.896,0.897,0.898,2.361,0,3.24l-8.94,8.95c-0.8,0.8-0.96,2.04-0.399,3.02
		c2.649,4.57,4.67,9.44,6,14.47c0.29,1.09,1.279,1.86,2.42,1.86h12.64c1.26,0,2.28,1.02,2.29,2.28v22.38
		c-0.01,1.25-1.03,2.28-2.29,2.28h-12.64c-1.141,0-2.13,0.76-2.42,1.86c-1.33,5.03-3.351,9.9-6,14.47
		c-0.561,0.97-0.4,2.22,0.399,3.02l8.94,8.94c0.883,0.864,0.911,2.327,0,3.24l-15.82,15.82c-0.921,0.9-2.373,0.866-3.25-0.01
		l-8.93-8.94c-0.79-0.79-2.07-0.95-3.03-0.39c-4.53,2.63-9.39,4.65-14.46,6c-1.09,0.29-1.85,1.29-1.85,2.42v12.63
		c0,1.26-1.03,2.29-2.301,2.29H117.25c-1.26,0-2.29-1.03-2.29-2.29v-12.63c0-1.13-0.771-2.13-1.86-2.42
		c-5.624-1.499-9.671-3.367-14.219-5.871c-1.365-0.752-2.505-0.504-3.26,0.261l-8.94,8.95c-0.885,0.866-2.329,0.899-3.25,0
		l-15.81-15.82c-0.917-0.916-0.898-2.332-0.011-3.24l8.95-8.94c0.8-0.8,0.96-2.04,0.391-3.02c-2.65-4.57-4.66-9.44-6-14.47
		c-0.29-1.1-1.28-1.86-2.41-1.86H55.899c-1.26,0-2.29-1.03-2.29-2.28v-22.38c0-1.26,1.03-2.28,2.29-2.28H68.54
		c1.13,0,2.12-0.77,2.41-1.86c1.358-5.092,3.359-9.928,6-14.47c0.569-0.98,0.409-2.22-0.391-3.02l-8.939-8.94
		c-0.904-0.903-0.917-2.314,0-3.25L83.43,65.9c0.892-0.891,2.329-0.901,3.25,0l8.94,8.95c0.791,0.792,1.918,0.987,3.295,0.239
		c1.27-0.69,6.403-3.784,14.184-5.858c1.09-0.29,1.86-1.28,1.86-2.41V54.19c0-1.26,1.03-2.29,2.29-2.29h22.359
		c1.271,0,2.301,1.03,2.301,2.29v12.63c0,1.13,0.76,2.12,1.85,2.41c5.07,1.35,9.93,3.37,14.46,6.01c0.96,0.56,2.25,0.39,3.03-0.39
		l8.939-8.95c0.908-0.907,2.377-0.884,3.24,0l1.101,1.1c0.939,0.94,2.59,0.94,3.539,0c0.976-0.995,0.976-2.545,0-3.54l-1.109-1.1
		c-2.834-2.833-7.442-2.847-10.311,0l-7.6,7.61c-3.85-2.09-7.94-3.78-12.14-5.04V54.19c0-4.02-3.271-7.29-7.301-7.29H117.25
		c-4.021,0-7.29,3.28-7.29,7.29v10.74c-4.22,1.26-8.3,2.96-12.141,5.05l-7.609-7.62c-2.938-2.918-7.548-2.762-10.311,0L64.08,78.18
		c-2.842,2.842-2.861,7.47,0.01,10.32l7.59,7.59C69.72,99.824,68.115,103.329,66.64,108.25z"/>
	<path d="M84.149,119.86c1.529,0.268,2.707-0.716,2.96-1.93c0-0.01,0-0.01,0-0.02c0.279-1.271-0.518-2.636-1.93-2.94
		c-1.32-0.28-2.68,0.6-2.96,1.93C81.929,118.251,82.797,119.572,84.149,119.86z"/>
	<path d="M81.2,127.38c0.919,62.2,94.47,61.022,94.47-0.66c0-26.144-21.194-47.23-47.23-47.23c-18.834,0-35.348,11.086-42.89,27.4
		c-0.58,1.25-0.04,2.74,1.21,3.32c1.22,0.56,2.75,0,3.32-1.2c0-0.01,0-0.01,0-0.02c6.899-14.88,21.96-24.5,38.359-24.5
		c23.333,0,42.23,18.888,42.23,42.23c0,18.639-11.969,34.768-29.49,40.263V148.82c9.01-4.75,14.61-14.02,14.61-24.2
		c0-10.881-6.363-20.302-15.58-24.7c-1.649-0.792-3.58,0.417-3.58,2.25v24.36h-16.4v-24.36c0-1.871-1.951-3.029-3.569-2.25
		c-9.349,4.45-15.569,13.931-15.591,24.7c0.011,10.18,5.61,19.45,14.62,24.2v18.162c-17.276-5.418-29.244-21.306-29.489-39.672
		c-0.021-1.36-1.141-2.47-2.5-2.47h-0.03C82.271,124.86,81.178,126.011,81.2,127.38z M106.069,124.62c0-7.11,3.421-13.85,9.16-18.05
		v22.46c0,1.346,1.101,2.5,2.511,2.5h21.39c1.385,0,2.5-1.111,2.5-2.5v-22.46c5.74,4.2,9.16,10.94,9.16,18.05
		c0,8.75-5.16,16.74-13.141,20.36c-0.89,0.4-1.47,1.3-1.47,2.28v20.965c-4.985,0.924-10.246,0.978-15.49-0.001V147.26
		c0-0.98-0.58-1.88-1.47-2.28C111.229,141.36,106.069,133.37,106.069,124.62z"/>
</g>
</svg>
