<?xml version="1.0" encoding="utf-8"?>
<!-- Generator: Adobe Illustrator 24.0.0, SVG Export Plug-In . SVG Version: 6.00 Build 0)  -->
<svg version="1.1" xmlns="http://www.w3.org/2000/svg" xmlns:xlink="http://www.w3.org/1999/xlink" x="0px" y="0px"
	 viewBox="0 0 256 256" enable-background="new 0 0 256 256" xml:space="preserve">
<g id="Layer_2">
</g>
<g id="Layer_1">
	<g>
	</g>
	<g>
		<rect x="5" y="15.878" fill="#72C2E9" width="246" height="224.243"/>
		<polygon fill="#EFEFEF" points="251,240.122 5,240.122 5,15.878 57.5,15.878 76,42.702 251,42.702 		"/>
		<rect x="224.176" y="15.878" fill="#FC5D3D" width="26.824" height="26.824"/>
		<path fill="#F0C020" d="M117.342,116.215c0,16.165-8.22,30.413-20.707,38.799c-7.431,4.982-16.365,7.888-25.979,7.888
			s-18.548-2.906-25.979-7.888c-12.487-8.386-20.707-22.634-20.707-38.799c0-25.78,20.906-46.687,46.687-46.687
			S117.342,90.435,117.342,116.215z"/>
		<path fill="#72C2E9" d="M96.634,146.728v8.286c-7.431,4.982-16.365,7.888-25.979,7.888s-18.548-2.906-25.979-7.888v-8.286
			c0-8.627,6.999-15.626,15.626-15.626h20.707C89.635,131.102,96.634,138.101,96.634,146.728z"/>
		<path fill="#7C7B7A" d="M84.269,107.815H57.447l0.006-7.762c0.002-2.611,2.119-4.727,4.731-4.727h13.84
			c1.679,0,3.332-0.406,4.821-1.183l5.781-3.018C89.549,96.963,88.328,103.492,84.269,107.815z"/>
		<path fill="#FFB69F" d="M70.855,131.099L70.855,131.099c-7.405,0-13.408-6.003-13.408-13.408v-9.876h26.817v9.876
			C84.264,125.096,78.261,131.099,70.855,131.099z"/>
		<path fill="#7C7B7A" d="M84.269,107.815H57.447l0.006-7.762c0.002-2.611,2.119-4.727,4.731-4.727h13.84
			c1.679,0,3.332-0.406,4.821-1.183l5.781-3.018C89.549,96.963,88.328,103.492,84.269,107.815z"/>
		<path fill="#FFB69F" d="M70.855,131.099L70.855,131.099c-7.405,0-13.408-6.003-13.408-13.408v-9.876h26.817v9.876
			C84.264,125.096,78.261,131.099,70.855,131.099z"/>
		<path fill="#FC5D3D" d="M183.609,115.525h-45.5V93.149h45.5c2.761,0,5,2.239,5,5v12.376
			C188.609,113.287,186.371,115.525,183.609,115.525z"/>
		<path fill="#13BF6C" d="M183.609,193.752h-45.5v-22.376h45.5c2.761,0,5,2.239,5,5v12.376
			C188.609,191.513,186.371,193.752,183.609,193.752z"/>
		<path fill="#F0C020" d="M214.609,154.638h-76.5v-22.376h76.5c2.761,0,5,2.239,5,5v12.376
			C219.609,152.4,217.371,154.638,214.609,154.638z"/>
		<g>
			<path fill="#F8E5B0" d="M93.673,142.485c-0.981-0.971-0.99-2.554-0.02-3.535c6.012-6.079,9.323-14.152,9.323-22.732
				c0-8.65-3.358-16.772-9.455-22.87c-0.977-0.977-0.977-2.559,0-3.535s2.559-0.977,3.535,0c7.042,7.042,10.92,16.419,10.92,26.405
				c0,9.905-3.824,19.228-10.769,26.248C96.234,143.449,94.653,143.455,93.673,142.485z"/>
		</g>
		<g>
			<path fill="#C5E5FE" d="M65.733,153.212c-1.369-0.18-2.332-1.436-2.152-2.805c0.18-1.368,1.423-2.334,2.805-2.152
				c9.714,1.278,19.717-1.754,27.277-9.314c0.977-0.977,2.559-0.977,3.535,0s0.977,2.559,0,3.535
				C88.569,151.105,77.05,154.7,65.733,153.212z M55.451,150.321c-1.302-0.578-2.584-1.239-3.811-1.964
				c-1.189-0.702-1.583-2.235-0.881-3.424c0.703-1.189,2.238-1.583,3.424-0.881c1.062,0.627,2.171,1.198,3.297,1.698
				c1.262,0.561,1.83,2.038,1.271,3.3C58.191,150.311,56.716,150.883,55.451,150.321z"/>
		</g>
		<path d="M45.5,35c1.38,0,2.5-1.12,2.5-2.5S46.88,30,45.5,30H25.359c-1.38,0-2.5,1.12-2.5,2.5s1.12,2.5,2.5,2.5H45.5z"/>
		<circle cx="5" cy="116.12" r="2.5"/>
		<path d="M251,13.38c-10.587,0-235.741,0-246,0c-1.368,0-2.5,1.111-2.5,2.5v90.24c0,1.38,1.12,2.5,2.5,2.5s2.5-1.12,2.5-2.5V18.38
			h48.684l17.755,25.74C74.41,44.8,75.18,45.2,76,45.2c10.674,0,166.478,0,172.5,0v192.42H7.5v-111.5c0-1.37-1.12-2.5-2.5-2.5
			s-2.5,1.13-2.5,2.5v114c0,1.396,1.122,2.5,2.5,2.5h246c1.381,0,2.5-1.108,2.5-2.5c0-6.799,0-213.267,0-224.24
			C253.5,14.503,252.397,13.38,251,13.38z M62.263,18.38H221.68V40.2H77.31L62.263,18.38z M226.67,40.2V18.38h21.83V40.2H226.67z"/>
		<path d="M243.52,23.359c-0.939-0.949-2.59-0.949-3.54,0l-2.395,2.395l-2.395-2.395c-0.939-0.949-2.59-0.949-3.529,0
			c-0.98,0.971-0.98,2.561-0.011,3.53l2.4,2.4l-2.4,2.4c-0.959,0.961-0.99,2.552,0.011,3.53c0.94,0.961,2.542,0.987,3.529,0
			l2.395-2.395l2.395,2.395c1.04,1.016,2.627,0.934,3.54,0c0.979-0.977,0.97-2.56,0-3.53l-2.4-2.4l2.4-2.4
			C244.488,25.923,244.5,24.34,243.52,23.359z"/>
		<path d="M70.66,165.399c27.295,0,49.18-22.149,49.18-49.18c0-4.04-0.49-8.05-1.45-11.92c-0.33-1.32-1.72-2.16-3.03-1.82
			c-1.352,0.334-2.141,1.684-1.829,3.011v0.01c0.869,3.49,1.31,7.09,1.31,10.72c0,13.102-5.802,25.395-15.705,33.762v-3.254
			c0-9.546-7.421-17.373-16.795-18.059c2.733-2.858,4.424-6.721,4.424-10.979v-8.942c4.4-5.301,5.2-12.581,2.096-18.739
			c-0.651-1.302-2.221-1.725-3.39-1.1c-6.162,3.219-6.999,3.92-9.45,3.92h-13.83c-3.989,0-7.229,3.239-7.239,7.22
			c0,4.44-0.003,8.948-0.003,17.641c0,4.248,1.684,8.103,4.406,10.959c-9.553,0.498-17.178,8.403-17.178,18.078v3.254
			c-9.904-8.367-15.706-20.66-15.706-33.762c0-24.411,19.75-44.19,44.19-44.19c13.51,0,26.1,6.07,34.55,16.65
			c0.83,1.03,2.47,1.22,3.51,0.39c1.088-0.855,1.255-2.451,0.4-3.51c-9.086-11.379-22.991-18.53-38.46-18.53
			c-27.15,0-49.19,21.992-49.19,49.19C21.47,143.437,43.522,165.399,70.66,165.399z M59.947,110.319h21.816v7.371
			c0,6.015-4.894,10.908-10.908,10.908s-10.908-4.894-10.908-10.908V110.319z M62.189,97.83h13.83c3.749,0,5.879-1.418,9.28-3.19
			c1.013,3.633,0.221,7.636-2.176,10.675H59.95v-5.265C59.95,98.83,60.96,97.83,62.189,97.83z M60.302,133.602h20.707
			c7.237,0,13.126,5.889,13.126,13.126v6.924c-7.029,4.416-15.116,6.748-23.475,6.748c-8.369,0-16.455-2.332-23.484-6.748v-6.924
			C47.176,139.49,53.064,133.602,60.302,133.602z"/>
		<path d="M113.63,97.779c1.306-0.653,1.714-2.2,1.13-3.35c-0.6-1.21-2.13-1.74-3.35-1.14c-1.23,0.609-1.74,2.109-1.141,3.34
			l0.011,0.01C110.91,97.929,112.448,98.357,113.63,97.779z"/>
		<path d="M70.556,123.643c3.197,0,6.001-2.151,6.817-5.23c0.354-1.335-0.442-2.703-1.776-3.058
			c-1.336-0.354-2.704,0.441-3.058,1.776c-0.235,0.891-1.051,1.512-1.983,1.512s-1.748-0.621-1.983-1.512
			c-0.354-1.335-1.721-2.131-3.058-1.776c-1.334,0.354-2.13,1.723-1.776,3.058C64.555,121.491,67.358,123.643,70.556,123.643z"/>
		<path d="M104.95,173.81H36.37c-1.38,0-2.511,1.13-2.511,2.5c0,1.38,1.131,2.51,2.511,2.51h68.58c1.38,0,2.5-1.13,2.5-2.51
			C107.45,174.939,106.33,173.81,104.95,173.81z"/>
		<path d="M104.95,187.229H36.359c-1.369,0-2.489,1.12-2.489,2.5s1.12,2.5,2.489,2.5h68.591c1.38,0,2.5-1.12,2.5-2.5
			S106.33,187.229,104.95,187.229z"/>
		<path d="M104.939,214.06h-68.58c-1.369,0-2.5,1.12-2.5,2.49c0,1.38,1.131,2.51,2.5,2.51h68.58c1.38,0,2.511-1.13,2.511-2.51
			C107.45,215.18,106.319,214.06,104.939,214.06z"/>
		<path d="M138.109,67.029c-1.38,0-2.5,1.12-2.5,2.5c0,18.829,0,129.596,0,147.841c0,1.386,1.114,2.5,2.5,2.5h43.921
			c1.38,0,2.5-1.12,2.5-2.5s-1.12-2.5-2.5-2.5h-41.421v-18.62h43c4.131,0,7.49-3.37,7.5-7.5v-12.38c-0.01-4.13-3.369-7.49-7.5-7.49
			h-43v-11.741h74c4.136,0,7.5-3.364,7.5-7.5v-12.376c0-4.136-3.364-7.5-7.5-7.5h-74v-11.733h43c4.131-0.01,7.5-3.369,7.5-7.5
			v-12.38c0-4.14-3.369-7.5-7.5-7.5h-43v-21.12C140.609,68.149,139.49,67.029,138.109,67.029z M183.609,173.87
			c1.381,0.01,2.5,1.13,2.5,2.5v12.38c0,1.38-1.119,2.5-2.5,2.5h-43v-17.38H183.609z M214.609,134.763c1.379,0,2.5,1.121,2.5,2.5
			v12.376c0,1.379-1.121,2.5-2.5,2.5h-74v-17.376H214.609z M183.609,95.649c1.37,0,2.5,1.12,2.5,2.5v12.38c0,1.37-1.13,2.49-2.5,2.5
			h-43v-17.38H183.609z"/>
		<circle cx="192.03" cy="217.37" r="2.5"/>
		<path d="M199.53,217.37c0,1.38,1.119,2.5,2.5,2.5h30c1.38,0,2.5-1.12,2.5-2.5s-1.12-2.5-2.5-2.5h-30
			C200.649,214.87,199.53,215.99,199.53,217.37z"/>
	</g>
</g>
</svg>
