<svg xmlns="http://www.w3.org/2000/svg" viewBox="0 0 512 512"><title>Artboard 119</title><g id="Father"><rect x="341.33333" y="192" width="42.66667" height="64" rx="21.33331" ry="21.33331" style="fill:#f9c450"/><rect x="128" y="192" width="42.66667" height="64" rx="21.33331" ry="21.33331" style="fill:#fad47f"/><path d="M192,277.33333v64a21.33334,21.33334,0,0,1-21.33333,21.33334h-64A85.33333,85.33333,0,0,0,21.33333,448v42.66667H490.66667V448a85.33333,85.33333,0,0,0-85.33334-85.33333h-64A21.33334,21.33334,0,0,1,320,341.33333v-64Z" style="fill:#fad47f"/><path d="M341.33333,362.66667A21.33356,21.33356,0,0,1,320,341.33333v-64H256v85.33334l21.33333,0V384l-42.66666,0v21.33331a21.33333,21.33333,0,1,0,42.66666,0h128V362.66667Z" style="fill:#f9c450"/><path d="M188.33984,344.99349A85.33342,85.33342,0,1,0,67.66016,465.67318c3.86067,3.86067,13.08854,13.08724,24.99479,24.99349H334.01432C312.80208,469.45443,204.54948,361.20312,188.33984,344.99349Z" style="fill:#f73478"/><path d="M188.33984,344.99349A85.33342,85.33342,0,1,0,67.66016,465.67318c3.86067,3.86067,13.08854,13.08724,24.99479,24.99349H334.01432C312.80208,469.45443,204.54948,361.20312,188.33984,344.99349Z" style="fill:#f9578f"/><rect x="245.33447" y="402.74517" width="21.33105" height="90.50967" transform="translate(-241.80317 312.2355) rotate(-45)" style="fill:#fb91b5"/><path d="M128,490.66667A85.33334,85.33334,0,0,1,128,320v21.33333a63.99316,63.99316,0,0,0-45.25,109.25c24.16667,24.1875,66.33333,24.1875,90.5,0l15.08333,15.08334A84.722,84.722,0,0,1,128,490.66667Z" style="fill:#e41a67"/><circle cx="128" cy="405.33333" r="64" style="fill:#fde7b8"/><path d="M165.70833,443.04167A53.32764,53.32764,0,1,1,90.29167,367.625" style="fill:#fde7b8"/><path d="M128,469.33333a63.99316,63.99316,0,0,1-45.25-109.25l15.08333,15.08334a42.65111,42.65111,0,0,0,0,60.33333c16.125,16.125,44.20834,16.125,60.33334,0L173.25,450.58333A63.59852,63.59852,0,0,1,128,469.33333Z" style="fill:#fad47f"/><circle cx="117.33333" cy="416" r="10.66667" style="fill:#38395e"/><circle cx="160" cy="373.33333" r="10.66667" style="fill:#38395e"/><circle cx="160" cy="416" r="10.66667" style="fill:#fa7ca7"/><path d="M213.33333,369.987V490.66667H256v-78.013C240.55339,397.207,225.51432,382.16667,213.33333,369.987Z" style="fill:#7cd5e5"/><path d="M213.33333,412.65365v78.013H256V455.32031C240.55339,439.8737,225.51432,424.83333,213.33333,412.65365Z" style="fill:#27b9d4"/><rect x="234.66781" y="407.16344" width="21.33105" height="60.33978" transform="translate(-237.3849 301.56883) rotate(-45)" style="fill:#b4e7f0"/><path d="M298.66667,490.66667h35.34765c-6.05078-6.05078-19.28906-19.28776-35.34765-35.34636Z" style="fill:#009fc2"/><path d="M117.33333,384H106.66667V362.66667h10.66666a10.66667,10.66667,0,0,0,0-21.33334H106.66667V320h10.66666a32,32,0,0,1,0,64Z" style="fill:#38395e"/><rect x="149.33333" y="42.66667" width="213.33333" height="298.66656" rx="106.66656" ry="106.66656" style="fill:#fde7b8"/><path d="M320,63.99518V213.33331A21.33335,21.33335,0,1,1,320,256H256v64h21.3335v19.19745l.00244-.00049v-.01337h.06982a106.7025,106.7025,0,0,0,85.26074-104.517V149.33319A106.50268,106.50268,0,0,0,320,63.99518Z" style="fill:#fad47f"/><polygon points="234.667 234.667 234.667 256 277.333 256 277.333 192 320 192 320 170.667 256 170.667 256 234.667 234.667 234.667" style="fill:#f9c450"/><rect x="298.66667" y="192" width="21.33333" height="21.33333" style="fill:#2b2c53"/><rect x="192" y="192" width="21.33333" height="21.33333" style="fill:#2b2c53"/><rect x="234.66667" y="277.33333" width="42.66667" height="21.33333" style="fill:#e41a67"/><rect x="277.33333" y="149.33333" width="42.66667" height="21.33333" style="fill:#fad47f"/><path d="M170.66667,64s-21.33334,0-21.33334-21.33333,21.33334-21.33334,21.33334-21.33334,0,21.33334,21.33333,21.33334,42.66667-21.33334,85.33333-21.33334c64,0,85.33334,42.66667,85.33334,64,0,0,42.66666,21.33334,42.66666,64S362.66667,192,362.66667,192v21.33333H341.33333V106.66667L320,85.98824S288,96,256,128c0,0-42.66667,0-64-42.66667l-21.33333,21.33334V213.33331H149.33333V192s-42.66666,0-42.66666-42.66667C106.66667,85.33333,170.66667,64,170.66667,64Z" style="fill:#38395e"/><path d="M248.35417,108.8125l-7.14584-2.97917c-28.5625-11.97916-47.14583-46-47.9375-47.4375l18.77084-10.13541c.14583.26041,12.85416,23.375,31.08333,34.61458,11.72917-11.5625,39.95833-35.59375,75.52083-40.125l2.70834,21.16667c-37.95834,4.83333-67.64584,38.70833-67.9375,39.05208Z" style="fill:#5b5c7a"/><path d="M106.66667,149.33333C106.66667,192,149.33333,192,149.33333,192v21.33333h21.33334V106.66667L192,85.33333,170.66667,64S106.66667,85.33333,106.66667,149.33333Z" style="fill:#4a4b6c"/><rect x="149.33333" y="106.66667" width="21.33333" height="21.33333" style="fill:#6b6c87"/><rect x="149.33333" y="149.33333" width="21.33333" height="21.33333" style="fill:#6b6c87"/><rect x="341.33333" y="149.33333" width="21.33333" height="21.33333" style="fill:#5b5c7a"/><rect x="341.33333" y="106.66667" width="21.33333" height="21.33333" style="fill:#5b5c7a"/></g></svg>