<svg xmlns="http://www.w3.org/2000/svg" xmlns:xlink="http://www.w3.org/1999/xlink" viewBox="0 0 48 48"><defs><style>.cls-1{fill:#ffb369;}.cls-2{fill:url(#linear-gradient);}.cls-3{fill:#54a5ff;}.cls-4{fill:url(#linear-gradient-2);}.cls-5{fill:url(#linear-gradient-3);}.cls-6{fill:url(#linear-gradient-4);}.cls-7{fill:url(#linear-gradient-5);}.cls-8{fill:url(#linear-gradient-6);}.cls-9{fill:url(#linear-gradient-7);}.cls-10{fill:url(#linear-gradient-8);}.cls-11{fill:url(#linear-gradient-9);}.cls-12{fill:url(#linear-gradient-10);}.cls-13{fill:url(#linear-gradient-11);}.cls-14{fill:url(#linear-gradient-12);}</style><linearGradient id="linear-gradient" x1="10" y1="5" x2="38" y2="5" gradientUnits="userSpaceOnUse"><stop offset="0" stop-color="#54a5ff"/><stop offset="1" stop-color="#8ad3fe"/></linearGradient><linearGradient id="linear-gradient-2" x1="13.01" y1="5" x2="16.99" y2="5" gradientUnits="userSpaceOnUse"><stop offset="0" stop-color="#d3e6f5"/><stop offset="1" stop-color="#f0f7fc"/></linearGradient><linearGradient id="linear-gradient-3" x1="33" x2="35" xlink:href="#linear-gradient-2"/><linearGradient id="linear-gradient-4" y1="17" y2="17" xlink:href="#linear-gradient"/><linearGradient id="linear-gradient-5" x1="13.01" y1="17" x2="16.99" y2="17" xlink:href="#linear-gradient-2"/><linearGradient id="linear-gradient-6" x1="33" y1="17" x2="35" y2="17" xlink:href="#linear-gradient-2"/><linearGradient id="linear-gradient-7" y1="29" y2="29" xlink:href="#linear-gradient"/><linearGradient id="linear-gradient-8" x1="13.01" y1="29" x2="16.99" y2="29" xlink:href="#linear-gradient-2"/><linearGradient id="linear-gradient-9" x1="33" y1="29" x2="35" y2="29" xlink:href="#linear-gradient-2"/><linearGradient id="linear-gradient-10" x1="22" y1="45" x2="26" y2="45" xlink:href="#linear-gradient"/><linearGradient id="linear-gradient-11" x1="7" y1="39" x2="11" y2="39" xlink:href="#linear-gradient"/><linearGradient id="linear-gradient-12" x1="37" y1="41" x2="41" y2="41" xlink:href="#linear-gradient"/></defs><title>Server</title><g id="Server"><path class="cls-1" d="M23,43V33a1,1,0,0,1,2,0V43A1,1,0,0,1,23,43Z"/><path class="cls-1" d="M18,40H11a1,1,0,0,1,0-2h7a1,1,0,0,0,1-1V33a1,1,0,0,1,2,0v4A3,3,0,0,1,18,40Z"/><path class="cls-1" d="M37,42H30a3,3,0,0,1-3-3V33a1,1,0,0,1,2,0v6a1,1,0,0,0,1,1h7A1,1,0,0,1,37,42Z"/><rect class="cls-2" x="10" y="1" width="28" height="8" rx="1"/><rect class="cls-3" x="12" y="9" width="24" height="4"/><path class="cls-4" d="M16,6H14a1,1,0,0,1,0-2h2A1,1,0,0,1,16,6Z"/><path class="cls-5" d="M35,5a1,1,0,0,0-2,0A1,1,0,0,0,35,5Z"/><rect class="cls-6" x="10" y="13" width="28" height="8" rx="1"/><path class="cls-7" d="M16,18H14a1,1,0,0,1,0-2h2A1,1,0,0,1,16,18Z"/><path class="cls-8" d="M35,17a1,1,0,0,0-2,0A1,1,0,0,0,35,17Z"/><rect class="cls-9" x="10" y="25" width="28" height="8" rx="1"/><path class="cls-10" d="M16,30H14a1,1,0,0,1,0-2h2A1,1,0,0,1,16,30Z"/><path class="cls-11" d="M35,29a1,1,0,0,0-2,0A1,1,0,0,0,35,29Z"/><rect class="cls-3" x="12" y="21" width="24" height="4"/><circle class="cls-12" cx="24" cy="45" r="2"/><circle class="cls-13" cx="9" cy="39" r="2"/><circle class="cls-14" cx="39" cy="41" r="2"/></g></svg>