<?xml version="1.0" encoding="utf-8"?>
<!-- Generator: Adobe Illustrator 18.0.0, SVG Export Plug-In . SVG Version: 6.00 Build 0)  -->
<!DOCTYPE svg PUBLIC "-//W3C//DTD SVG 1.1//EN" "http://www.w3.org/Graphics/SVG/1.1/DTD/svg11.dtd">
<svg version="1.1" id="Layer_1" xmlns="http://www.w3.org/2000/svg" xmlns:xlink="http://www.w3.org/1999/xlink" x="0px" y="0px"
	 width="256px" height="256px" viewBox="0 0 256 256" enable-background="new 0 0 256 256" xml:space="preserve">
<g>
	<g>
		<g>
			<g>
				<path fill="#E0E0E0" d="M226.6,118.2l7.7-57.6c8.6,2,15.1,9.7,15.1,18.9v38.7H226.6z"/>
			</g>
		</g>
		<g>
			<g>
				<path fill="#E0E0E0" d="M177.3,118.2V79.5c0-8.7,8.1-16.9,17.6-18.9l7.8,57.6H177.3z"/>
			</g>
		</g>
		<g>
			<g>
				<path fill="#E0E0E0" d="M226.6,243.9l7.7-57.6c8.6,2,15.1,9.7,15.1,18.9v38.7H226.6z"/>
			</g>
		</g>
		<g>
			<g>
				<path fill="#E0E0E0" d="M177.3,243.9v-38.7c0-8.7,8.1-16.9,17.6-18.9l7.8,57.6H177.3z"/>
			</g>
		</g>
		<g>
			<path fill="#4A555F" d="M214.5,182.3c-12.3,0-22.4-10-22.4-22.4c0-12.3,10-22.4,22.4-22.4c12.3,0,22.4,10,22.4,22.4
				C236.9,172.3,226.9,182.3,214.5,182.3z M214.5,140.5c-10.7,0-19.4,8.7-19.4,19.4s8.7,19.4,19.4,19.4c10.7,0,19.4-8.7,19.4-19.4
				S225.2,140.5,214.5,140.5z"/>
		</g>
		<g>
			<path fill="#FFD552" d="M214.5,175.9c-8.8,0-16-7.2-16-16c0-8.8,7.2-16,16-16s16,7.2,16,16C230.5,168.8,223.3,175.9,214.5,175.9z
				"/>
		</g>
		<g>
			<path fill="#FFD552" d="M214.5,50.2c-8.8,0-16-7.2-16-16s7.2-16,16-16s16,7.2,16,16C230.5,43.1,223.3,50.2,214.5,50.2z"/>
		</g>
		<g>
			<path fill="#4A555F" d="M256,243.9h-3v-38c0-13-10.6-23.5-23.5-23.5h-32.1c-13,0-23.5,10.6-23.5,23.5v38h-3v-38
				c0-14.6,11.9-26.5,26.5-26.5h32.1c14.6,0,26.5,11.9,26.5,26.5V243.9z"/>
		</g>
		<g>
			<path fill="#4A555F" d="M205.9,244.1l-5.3-41l0,0l-3-23.7h7.4l7.4,9l-8.8,15.3l5.2,40.1L205.9,244.1z M200.9,182.3l2.1,16.4
				l5.8-10.1l-5.2-6.3H200.9z"/>
		</g>
		<g>
			<path fill="#4A555F" d="M223.2,244.1l-2.9-0.4l5.2-40.1l-8-15.6l7.4-8.6h6.7l-3,23.7l0,0.1l-0.1,0L223.2,244.1z M220.9,188.4
				l5.1,10l2.1-16.1h-2L220.9,188.4z"/>
		</g>
		<g>
			<rect x="213.1" y="193.3" fill="#4A555F" width="3" height="50.6"/>
		</g>
		<g>
			<polygon fill="#4A555F" points="214.6,195.6 209.5,189.5 211.7,187.6 214.7,191 218,187.2 220.2,189.2 			"/>
		</g>
		<g>
			<circle fill="#4A555F" cx="220.4" cy="206" r="2.2"/>
		</g>
		<g>
			<circle fill="#4A555F" cx="220.4" cy="221.8" r="2.2"/>
		</g>
		<g>
			<circle fill="#4A555F" cx="220.4" cy="236.9" r="2.2"/>
		</g>
	</g>
	<g>
		<rect x="242.8" y="219.6" fill="#4A555F" width="3" height="24.3"/>
	</g>
	<g>
		<rect x="182" y="219.6" fill="#4A555F" width="3" height="24.3"/>
	</g>
	<g>
		<g>
			<path fill="#4A555F" d="M214.5,56.7c-12.3,0-22.4-10-22.4-22.4s10-22.4,22.4-22.4c12.3,0,22.4,10,22.4,22.4
				S226.9,56.7,214.5,56.7z M214.5,14.9c-10.7,0-19.4,8.7-19.4,19.4s8.7,19.4,19.4,19.4c10.7,0,19.4-8.7,19.4-19.4
				S225.2,14.9,214.5,14.9z"/>
		</g>
		<g>
			<path fill="#4A555F" d="M256,118.2h-3v-38c0-13-10.6-23.5-23.5-23.5h-32.1c-13,0-23.5,10.6-23.5,23.5v38h-3v-38
				c0-14.6,11.9-26.5,26.5-26.5h32.1c14.6,0,26.5,11.9,26.5,26.5V118.2z"/>
		</g>
		<g>
			<path fill="#4A555F" d="M205.9,118.4l-5.3-41l0,0l-3-23.7h7.4l7.4,9L203.6,78l5.2,40.1L205.9,118.4z M200.9,56.7l2.1,16.4
				l5.8-10.1l-5.2-6.3H200.9z"/>
		</g>
		<g>
			<path fill="#4A555F" d="M223.2,118.4l-2.9-0.4l5.2-40.1l-8-15.6l7.4-8.6h6.7l-3,23.7l0,0.1l-0.1,0L223.2,118.4z M220.9,62.8
				l5.1,10l2.1-16.1h-2L220.9,62.8z"/>
		</g>
		<g>
			<rect x="213.1" y="67.6" fill="#4A555F" width="3" height="50.6"/>
		</g>
		<g>
			<polygon fill="#4A555F" points="214.6,69.9 209.5,63.8 211.7,61.9 214.7,65.4 218,61.6 220.2,63.5 			"/>
		</g>
		<g>
			<circle fill="#4A555F" cx="220.4" cy="80.3" r="2.2"/>
		</g>
		<g>
			<circle fill="#4A555F" cx="220.4" cy="96.1" r="2.2"/>
		</g>
		<g>
			<circle fill="#4A555F" cx="220.4" cy="111.3" r="2.2"/>
		</g>
	</g>
	<g>
		<rect x="242.8" y="93.9" fill="#4A555F" width="3" height="24.3"/>
	</g>
	<g>
		<rect x="182" y="93.9" fill="#4A555F" width="3" height="24.3"/>
	</g>
	<g>
		<polygon fill="#4A555F" points="161.4,212.5 144.7,212.5 144.7,59 161.4,59 161.4,62 147.7,62 147.7,209.5 161.4,209.5 		"/>
	</g>
	<g>
		<rect x="136.7" y="134.3" fill="#4A555F" width="9.5" height="3"/>
	</g>
	<g>
		<polygon fill="#4A555F" points="154.5,69 152.4,66.9 159.3,60.5 152.4,54.2 154.5,52 163.6,60.5 		"/>
	</g>
	<g>
		<polygon fill="#4A555F" points="154.5,219.5 152.4,217.4 159.3,211 152.4,204.7 154.5,202.5 163.6,211 		"/>
	</g>
	<g>
		<path fill="#E0E0E0" d="M24.5,231.8V203h-6.1c-6.7,0-12.1-5.4-12.1-12.1V133c0-17.3,14.1-31.4,31.4-31.4h0.3l1.3,5.5l0.3,1.1
			L59,196.9l1.9,0l21.2-89.8l1.3-5.5h0.3c17.3,0,31.4,14.1,31.4,31.4v57.9c0,6.7-5.4,12.1-12.1,12.1h-7.8v28.8H24.5z"/>
	</g>
	<g>
		<g>
			<polygon fill="#F68F6F" points="65.1,118.4 69.4,158.5 63.3,185.2 60.2,198.6 57.1,185.2 51.2,157.9 55.4,118.4 52.6,110.5 
				50.5,104.5 70.1,104.5 67.9,110.5 			"/>
		</g>
	</g>
	<g>
		<path fill="#4A555F" d="M60.3,98.2c-17.6,0-31.8-14.3-31.8-31.8s14.3-31.8,31.8-31.8c17.6,0,31.8,14.3,31.8,31.8
			S77.9,98.2,60.3,98.2z M60.3,37.5c-15.9,0-28.9,12.9-28.9,28.9s12.9,28.9,28.9,28.9c15.9,0,28.9-12.9,28.9-28.9
			S76.2,37.5,60.3,37.5z"/>
	</g>
	<g>
		<path fill="#FFD552" d="M60.3,91.8c-14,0-25.4-11.4-25.4-25.4s11.4-25.4,25.4-25.4s25.4,11.4,25.4,25.4S74.3,91.8,60.3,91.8z"/>
	</g>
	<g>
		<path fill="#4A555F" d="M103.2,209.4h-3v-3h3c8.6,0,15.5-7,15.5-15.5V133c0-19.2-15.6-34.8-34.8-34.8H37.8
			C18.6,98.2,3,113.8,3,133v57.9c0,8.6,7,15.5,15.5,15.5h1.1v3h-1.1C8.3,209.4,0,201.1,0,190.9V133c0-20.8,17-37.8,37.8-37.8h46.1
			c20.8,0,37.8,17,37.8,37.8v57.9C121.7,201.1,113.4,209.4,103.2,209.4z"/>
	</g>
	<g>
		<rect x="18.1" y="153.4" fill="#4A555F" width="3" height="78.4"/>
	</g>
	<g>
		<rect x="98.7" y="153.4" fill="#4A555F" width="3" height="78.4"/>
	</g>
	<g>
		<path fill="#4A555F" d="M66.3,119.9H54.4l-6-16.8h23.8L66.3,119.9z M56.5,116.9h7.7L68,106H52.6L56.5,116.9z"/>
	</g>
	<g>
		<polygon fill="#4A555F" points="67.9,158.6 63.9,119.9 56.7,119.9 52.7,158 49.7,157.7 54.1,116.9 66.5,116.9 70.9,158.3 		"/>
	</g>
	<g>
		<path fill="#4A555F" d="M42.8,126l-6.6-30.8l12.5,0l5.5,15.6L42.8,126z M39.9,98.2l4.5,20.9l6.5-8.7l-4.3-12.1L39.9,98.2z"/>
	</g>
	<g>
		<path fill="#4A555F" d="M78.2,126.8l-11.8-16.1l5.5-15.6l13.6,0L78.2,126.8z M69.7,110.3l7,9.6l5-21.7l-7.7,0L69.7,110.3z"/>
	</g>
	<g>
		<path fill="#4A555F" d="M61.6,199.4l-2.9,0l-9-41.2L36.6,97l1.5-1.8h45.5L85,97l-14.2,61.8L61.6,199.4z M39.9,98.2l12.8,59.4
			l7.6,34.7l7.7-34.1l13.8-60H39.9z"/>
	</g>
	<g>
		<rect x="58.8" y="216.9" fill="#4A555F" width="3" height="14.9"/>
	</g>
</g>
</svg>
