<svg xmlns="http://www.w3.org/2000/svg" viewBox="0 0 64 64"><defs><style>.cls-1{fill:#f79341;}.cls-2{fill:#ffb248;}.cls-3{fill:#5b97c4;}.cls-4{fill:#8cbce7;}.cls-5{fill:#2b2b4c;}</style></defs><title> Flight Insurance</title><g id="_Flight_Insurance" data-name=" Flight Insurance"><path class="cls-1" d="M56,35.56v8.58A12.34,12.34,0,0,1,47,56a12.42,12.42,0,0,1-7.43-5.86,12.17,12.17,0,0,1-1.57-6V35.56l5.1-1.45.9-.26L47,33l1.13.32,6.42,1.83Z"/><path class="cls-2" d="M53,34.71v6.43A12.34,12.34,0,0,1,44,53a12.39,12.39,0,0,1-3.77-1.8A12.31,12.31,0,0,1,38,44.14V35.56L47,33Z"/><path class="cls-3" d="M47.9,18.28a10.34,10.34,0,0,1-2.64,4.53l-18.5,18.5L18,46.72l-1,.6A2.44,2.44,0,0,1,14,47a2.41,2.41,0,0,1-.68-1.32,2.45,2.45,0,0,1,.33-1.7l.6-1,5.41-8.74,18.5-18.5a10.27,10.27,0,0,1,8.06-3A10.11,10.11,0,0,1,48,13,10.26,10.26,0,0,1,47.9,18.28Z"/><path class="cls-4" d="M45.9,16.28a10.34,10.34,0,0,1-2.64,4.53l-18.5,18.5L16,44.72l-1,.6a2.45,2.45,0,0,1-1.7.33,2.45,2.45,0,0,1,.33-1.7l.6-1,5.41-8.74,18.5-18.5a10.27,10.27,0,0,1,8.06-3A10.24,10.24,0,0,1,45.9,16.28Z"/><polygon class="cls-3" points="14.28 42.98 8.37 38.48 10.49 36.36 16.98 38.61 14.28 42.98"/><polygon class="cls-3" points="24.64 50.51 22.52 52.63 18.02 46.72 22.39 44.02 24.64 50.51"/><polygon class="cls-3" points="33.12 20.81 26.05 27.88 7.67 15.15 9.62 13.2 11.91 10.91 29.71 19.22 33.12 20.81"/><path class="cls-4" d="M29.71,19.22h0a7.9,7.9,0,0,1-10.08.91l-10-6.93,2.29-2.29Z"/><polygon class="cls-3" points="43.1 34.11 38 35.56 38 42 33.12 34.95 40.19 27.88 43.1 34.11"/><path class="cls-5" d="M46,48a1,1,0,0,1-.71-.29l-2.5-2.5a1,1,0,0,1,1.42-1.42L46,45.59l4.29-4.3a1,1,0,0,1,1.42,1.42l-5,5A1,1,0,0,1,46,48Z"/><path class="cls-5" d="M47,57a.84.84,0,0,1-.27,0,13.43,13.43,0,0,1-8-6.33,12.18,12.18,0,0,1-1.06-2.43,1,1,0,0,1,1.92-.58,10,10,0,0,0,.88,2A11.19,11.19,0,0,0,43.28,53,11.39,11.39,0,0,0,47,55a11.4,11.4,0,0,0,8-10.82V36.32L47,34l-8,2.28V44a1,1,0,0,1-2,0V35.56a1,1,0,0,1,.73-1l9-2.56a1,1,0,0,1,.54,0l9,2.56a1,1,0,0,1,.73,1v8.58A13.39,13.39,0,0,1,47.27,57,.84.84,0,0,1,47,57Z"/><path class="cls-5" d="M15.76,48.69a3.45,3.45,0,0,1-2.93-5.27l6-9.71.14-.18L35.85,16.66a1,1,0,1,1,1.42,1.42L20.48,34.87l-6,9.61a1.45,1.45,0,0,0,2,2l9.61-5.95L44.55,22.1a9.29,9.29,0,0,0,2.58-8.23,9.31,9.31,0,0,0-7.08,1.59,1,1,0,1,1-1.16-1.62,11.25,11.25,0,0,1,9.32-1.78,1,1,0,0,1,.73.73,11.25,11.25,0,0,1-.08,5.76,11.4,11.4,0,0,1-2.89,5L27.47,42l-.18.14-9.71,6A3.47,3.47,0,0,1,15.76,48.69Z"/><path class="cls-5" d="M14.28,44a1,1,0,0,1-.6-.2l-5.91-4.5a1,1,0,0,1-.1-1.5l2.12-2.12a1,1,0,0,1,1-.24l6.49,2.25a1,1,0,0,1,.62.61,1,1,0,0,1-.09.86l-2.71,4.37a1,1,0,0,1-.66.46Zm-4.39-5.6L14,41.52l1.47-2.37-4.72-1.64Z"/><path class="cls-5" d="M22.51,53.63h-.06a1,1,0,0,1-.73-.4l-4.5-5.91a1,1,0,0,1,.27-1.45l4.37-2.71a1,1,0,0,1,.86-.09,1,1,0,0,1,.61.62l2.25,6.49a1,1,0,0,1-.24,1l-2.12,2.12A1,1,0,0,1,22.51,53.63Zm-3-6.64,3.14,4.12.87-.87-1.64-4.72Z"/><path class="cls-5" d="M26.05,28.88a1,1,0,0,1-.57-.18L7.1,16A1,1,0,0,1,7,14.44L11.2,10.2a1,1,0,0,1,1.13-.2l1.61.75a1,1,0,1,1-.84,1.82l-1-.46L9.22,15,25.93,26.58l5.47-5.47L16.56,14.19a1,1,0,1,1,.84-1.82L33.54,19.9a1,1,0,0,1,.56.74,1,1,0,0,1-.27.88l-7.07,7.07A1,1,0,0,1,26.05,28.88Z"/><path class="cls-5" d="M18.66,15.05a1,1,0,0,1-.71-1.7l1-1a1,1,0,0,1,1.41,0,1,1,0,0,1,0,1.42l-1,1A1,1,0,0,1,18.66,15.05Z"/><path class="cls-5" d="M24.45,17.76a1,1,0,0,1-.71-.3,1,1,0,0,1,0-1.41l.9-.9a1,1,0,0,1,1.41,1.41l-.9.9A1,1,0,0,1,24.45,17.76Z"/><path class="cls-5" d="M38,43a1,1,0,0,1-.82-.43l-4.88-7a1,1,0,0,1,.11-1.28l7.07-7.07a1,1,0,0,1,1.62.29L44,33.69a1,1,0,0,1,0,.84,1,1,0,0,1-.64.54L39,36.32V42a1,1,0,0,1-.7,1A.79.79,0,0,1,38,43Zm-3.58-7.93L37,38.8V35.56a1,1,0,0,1,.73-1l4-1.13L39.89,29.6Z"/></g></svg>