<?xml version="1.0" encoding="utf-8"?>
<!-- Generator: Adobe Illustrator 23.0.3, SVG Export Plug-In . SVG Version: 6.00 Build 0)  -->
<svg version="1.1" xmlns="http://www.w3.org/2000/svg" xmlns:xlink="http://www.w3.org/1999/xlink" x="0px" y="0px"
	 viewBox="0 0 256 256" style="enable-background:new 0 0 256 256;" xml:space="preserve">
<style type="text/css">
	.st0{fill:#878787;}
	.st1{fill:#F2E1D6;}
	.st2{fill:#FFFFFF;}
	.st3{fill:#F0C020;}
	.st4{fill:#F9E5AF;}
	.st5{fill:#72C1E8;}
	.st6{fill:#C5E5FF;}
	.st7{fill:#13BF6D;}
	.st8{fill:#76FFBA;}
	.st9{fill:#EFEFEF;}
	.st10{fill:#FC5D3D;}
	.st11{fill:#FFCBC2;}
	.st12{fill:#FFB69F;}
	.st13{fill:#AFAFAF;}
	.st14{fill:#7C7B7A;}
	.st15{fill:#D6C0B4;}
	.st16{fill:#7A7380;}
	.st17{fill:#F0AB20;}
	.st18{fill:#FBE0E2;}
	.st19{fill:#4C4945;}
	.st20{fill:#68B0D4;}
	.st21{fill:#B35034;}
	.st22{fill:#EDAF85;}
	.st23{fill:#139C6D;}
</style>
<g id="Layer_2">
</g>
<g id="Layer_1">
	<g>
		<g>
			<g>
				<path class="st5" d="M201.01,136.33v22.47c0,5.09-4.11,9.19-9.19,9.19H64.18c-5.08,0-9.19-4.1-9.19-9.19v-22.47
					c0-5.08,4.11-9.19,9.19-9.19h57.47l6.35,10.99l6.35-10.99h57.47C196.9,127.14,201.01,131.25,201.01,136.33z"/>
			</g>
			<g>
				<path class="st6" d="M66.358,160.745c-1.381,0-2.5-1.119-2.5-2.5v-21.375c0-1.381,1.119-2.5,2.5-2.5s2.5,1.119,2.5,2.5v21.375
					C68.858,159.625,67.739,160.745,66.358,160.745z"/>
			</g>
			<circle class="st1" cx="81.709" cy="147.568" r="6.949"/>
			<path class="st3" d="M191.823,167.996H64.177c-5.075,0-9.189,4.114-9.189,9.189v22.478c0,5.075,4.114,9.189,9.189,9.189h127.646
				c5.075,0,9.189-4.114,9.189-9.189v-22.478C201.012,172.11,196.898,167.996,191.823,167.996z"/>
			<g>
				<path class="st4" d="M66.358,202.05c-1.381,0-2.5-1.119-2.5-2.5v-22.257c0-1.381,1.119-2.5,2.5-2.5s2.5,1.119,2.5,2.5v22.257
					C68.858,200.931,67.739,202.05,66.358,202.05z"/>
			</g>
			<circle class="st1" cx="81.709" cy="188.424" r="6.949"/>
			<path class="st5" d="M191.823,208.853H64.177c-5.075,0-9.189,4.114-9.189,9.189v22.478c0,5.075,4.114,9.189,9.189,9.189h127.646
				c5.075,0,9.189-4.114,9.189-9.189v-22.478C201.012,212.967,196.898,208.853,191.823,208.853z"/>
			<g>
				<path class="st6" d="M189.645,244.817H66.358c-1.381,0-2.5-1.119-2.5-2.5v-24.245c0-1.381,1.119-2.5,2.5-2.5s2.5,1.119,2.5,2.5
					v21.745h120.787c1.381,0,2.5,1.119,2.5,2.5S191.025,244.817,189.645,244.817z"/>
			</g>
			<circle class="st1" cx="81.709" cy="229.281" r="6.949"/>
			<g>
				<g>
					<path class="st3" d="M38.235,153.113c-4.009-1.325-8.149-2.482-10.473-12.495c-2.141,9.222-5.571,10.875-10.473,12.495
						c7.996,2.642,9.202,7.017,10.473,12.495C29.953,156.165,33.577,154.652,38.235,153.113z"/>
				</g>
			</g>
			<g>
				<g>
					<path class="st3" d="M213.96,18.798c-4.009-1.325-8.149-2.482-10.473-12.495c-2.141,9.222-5.571,10.875-10.473,12.495
						c7.996,2.642,9.202,7.017,10.473,12.495C205.678,21.85,209.302,20.338,213.96,18.798z"/>
				</g>
			</g>
			<g>
				<g>
					<path class="st3" d="M238.711,53.412c-4.009-1.325-8.149-2.482-10.473-12.495c-2.141,9.222-5.571,10.875-10.473,12.495
						c7.996,2.642,9.202,7.017,10.473,12.495C230.429,56.464,234.053,54.951,238.711,53.412z"/>
				</g>
			</g>
			<g>
				<g>
					<path class="st7" d="M183.73,58.5C181.85,29.36,157.63,6.29,128,6.29S74.15,29.36,72.27,58.5c-1.79,27.8,17,52.1,43.29,58.09
						l6.09,10.55l6.35,10.99l6.35-10.99l6.09-10.55C166.97,110.54,185.51,86.06,183.73,58.5z"/>
				</g>
				<g>
					<path class="st8" d="M126.75,123.262c-1.196-0.69-1.605-2.22-0.914-3.415l7.293-12.625c0.349-0.602,0.931-1.032,1.609-1.187
						c25.859-5.898,38.589-25.695,37.229-46.536c-1.083-16.863-11.974-31.814-27.745-38.091c-1.282-0.51-1.908-1.964-1.398-3.247
						c0.512-1.283,1.962-1.91,3.248-1.398c17.556,6.987,29.679,23.635,30.886,42.414c1.462,22.409-12.362,45.179-40.044,51.491
						l-6.748,11.681C129.476,123.541,127.949,123.954,126.75,123.262z M135.127,18.884c-2.341-0.384-4.739-0.579-7.127-0.579
						c-1.381,0-2.5-1.12-2.5-2.5c0-1.38,1.12-2.5,2.5-2.5h0c2.657,0,5.327,0.217,7.935,0.645c1.362,0.224,2.286,1.509,2.063,2.872
						C137.775,18.186,136.486,19.108,135.127,18.884z"/>
				</g>
			</g>
			<g>
				<path class="st3" d="M148.261,54.866h-40.521c-1.281,0-2.323,1.042-2.323,2.323v28.588c0,1.281,1.042,2.323,2.323,2.323h40.521
					c1.281,0,2.323-1.042,2.323-2.323V57.189C150.584,55.908,149.541,54.866,148.261,54.866z"/>
			</g>
		</g>
		<path d="M101.638,145.068c-1.381,0-2.5,1.119-2.5,2.5s1.119,2.5,2.5,2.5h45.889c1.381,0,2.5-1.119,2.5-2.5s-1.119-2.5-2.5-2.5
			H101.638z"/>
		<path d="M101.638,190.924h45.889c1.381,0,2.5-1.119,2.5-2.5s-1.119-2.5-2.5-2.5h-45.889c-1.381,0-2.5,1.119-2.5,2.5
			S100.257,190.924,101.638,190.924z"/>
		<path d="M203.51,240.52v-22.48c0-3.725-1.76-7.044-4.487-9.187c2.727-2.142,4.489-5.461,4.489-9.19v-22.478
			c0-3.729-1.761-7.048-4.489-9.19c2.925-2.297,4.476-5.655,4.487-9.195v-22.47c-0.02-6.461-5.207-11.67-11.69-11.69H175.58
			c-1.38,0-2.5,1.12-2.5,2.5s1.12,2.5,2.5,2.5h16.239c3.69,0,6.69,3,6.69,6.69v22.47c0,3.69-3,6.69-6.69,6.69H64.18
			c-3.69,0-6.69-3-6.69-6.69v-22.47c0-3.69,3-6.69,6.69-6.69h56.026l5.624,9.74c0.973,1.663,3.368,1.663,4.34,0l5.623-9.74h19.787
			c1.38,0,2.5-1.12,2.5-2.5s-1.12-2.5-2.5-2.5h-16.9l3.389-5.87c27.181-6.752,45.954-31.977,44.16-60.43
			C184.244,27.799,158.882,3.79,128,3.79c-24.032,0-45.055,14.581-53.94,36.08c-0.53,1.27,0.08,2.73,1.35,3.26
			c1.26,0.52,2.76-0.11,3.27-1.35C86.96,21.74,106.32,8.79,128,8.79h0.01c28.04,0,51.42,21.91,53.23,49.87
			c1.621,27.12-16.281,49.779-41.351,55.49c-0.68,0.16-1.27,0.59-1.609,1.19L128,133.13l-10.27-17.79c-0.35-0.6-0.94-1.03-1.61-1.19
			c-24.476-5.569-42.293-28.223-41.44-53.8c0.05-1.38-1.03-2.54-2.41-2.58c-1.36-0.04-2.54,1.03-2.59,2.41
			c-0.816,28.52,18.369,52.201,44.25,58.59l3.389,5.87H64.18c-6.46,0.02-11.669,5.207-11.69,11.69v22.47
			c0.012,3.543,1.564,6.899,4.487,9.195c-2.728,2.142-4.489,5.461-4.489,9.19v22.478c0,3.729,1.761,7.048,4.489,9.189
			c-2.727,2.143-4.487,5.462-4.487,9.188v22.48c0,6.44,5.24,11.69,11.69,11.69h17.64c1.38,0,2.5-1.12,2.5-2.5s-1.12-2.5-2.5-2.5
			H64.18c-3.68-0.01-6.69-3.01-6.69-6.69v-22.48c0-3.672,2.997-6.666,6.665-6.688c0.008,0,0.015,0.001,0.022,0.001h127.646
			c0.007,0,0.014-0.001,0.021-0.001c3.669,0.023,6.665,3.017,6.665,6.688v22.48c0,3.68-3.01,6.68-6.69,6.69h-90
			c-1.38,0-2.5,1.12-2.5,2.5s1.12,2.5,2.5,2.5h90C198.27,252.21,203.51,246.96,203.51,240.52z M57.488,199.663v-22.478
			c0-3.688,3.001-6.689,6.689-6.689c0.02,0,0.038-0.005,0.058-0.006h127.53c0.02,0,0.038,0.006,0.058,0.006
			c3.688,0,6.688,3.001,6.688,6.689v22.478c0,3.681-2.988,6.676-6.666,6.688c-0.009,0-0.017-0.001-0.026-0.001H64.18
			c-0.009,0-0.017,0.001-0.025,0.001C60.476,206.339,57.488,203.344,57.488,199.663z"/>
		<circle cx="91.82" cy="249.71" r="2.5"/>
		<path d="M101.638,231.781h45.889c1.381,0,2.5-1.119,2.5-2.5s-1.119-2.5-2.5-2.5h-45.889c-1.381,0-2.5,1.119-2.5,2.5
			S100.257,231.781,101.638,231.781z"/>
		<path d="M165.801,228.965c1.381,0,2.5-1.119,2.5-2.5s-1.119-2.5-2.5-2.5h-1.043c-1.381,0-2.5,1.119-2.5,2.5s1.119,2.5,2.5,2.5
			H165.801z"/>
		<path d="M172.192,234.597c1.381,0,2.5-1.119,2.5-2.5s-1.119-2.5-2.5-2.5h-1.044c-1.381,0-2.5,1.119-2.5,2.5s1.119,2.5,2.5,2.5
			H172.192z"/>
		<path d="M178.583,228.965c1.381,0,2.5-1.119,2.5-2.5s-1.119-2.5-2.5-2.5h-1.043c-1.381,0-2.5,1.119-2.5,2.5s1.119,2.5,2.5,2.5
			H178.583z"/>
		<path d="M184.974,234.597c1.381,0,2.5-1.119,2.5-2.5s-1.119-2.5-2.5-2.5h-1.043c-1.381,0-2.5,1.119-2.5,2.5s1.119,2.5,2.5,2.5
			H184.974z"/>
		<path d="M164.758,188.106h1.043c1.381,0,2.5-1.119,2.5-2.5s-1.119-2.5-2.5-2.5h-1.043c-1.381,0-2.5,1.119-2.5,2.5
			S163.377,188.106,164.758,188.106z"/>
		<path d="M171.148,193.737h1.044c1.381,0,2.5-1.119,2.5-2.5s-1.119-2.5-2.5-2.5h-1.044c-1.381,0-2.5,1.119-2.5,2.5
			S169.768,193.737,171.148,193.737z"/>
		<path d="M177.54,188.106h1.043c1.381,0,2.5-1.119,2.5-2.5s-1.119-2.5-2.5-2.5h-1.043c-1.381,0-2.5,1.119-2.5,2.5
			S176.159,188.106,177.54,188.106z"/>
		<path d="M183.931,193.737h1.043c1.381,0,2.5-1.119,2.5-2.5s-1.119-2.5-2.5-2.5h-1.043c-1.381,0-2.5,1.119-2.5,2.5
			S182.55,193.737,183.931,193.737z"/>
		<path d="M162.258,144.752c0,1.381,1.119,2.5,2.5,2.5h1.043c1.381,0,2.5-1.119,2.5-2.5s-1.119-2.5-2.5-2.5h-1.043
			C163.377,142.252,162.258,143.372,162.258,144.752z"/>
		<path d="M168.648,150.383c0,1.381,1.119,2.5,2.5,2.5h1.044c1.381,0,2.5-1.119,2.5-2.5s-1.119-2.5-2.5-2.5h-1.044
			C169.768,147.883,168.648,149.002,168.648,150.383z"/>
		<path d="M178.583,147.252c1.381,0,2.5-1.119,2.5-2.5s-1.119-2.5-2.5-2.5h-1.043c-1.381,0-2.5,1.119-2.5,2.5s1.119,2.5,2.5,2.5
			H178.583z"/>
		<path d="M184.974,152.883c1.381,0,2.5-1.119,2.5-2.5s-1.119-2.5-2.5-2.5h-1.043c-1.381,0-2.5,1.119-2.5,2.5s1.119,2.5,2.5,2.5
			H184.974z"/>
		<path d="M72.259,147.568c0,5.21,4.239,9.449,9.449,9.449s9.45-4.239,9.45-9.449s-4.239-9.45-9.45-9.45
			S72.259,142.357,72.259,147.568z M86.158,147.568c0,2.453-1.996,4.449-4.45,4.449c-2.453,0-4.449-1.996-4.449-4.449
			c0-2.454,1.996-4.45,4.449-4.45C84.162,143.118,86.158,145.114,86.158,147.568z"/>
		<path d="M81.708,197.874c5.21,0,9.45-4.239,9.45-9.45s-4.239-9.449-9.45-9.449s-9.449,4.239-9.449,9.449
			S76.498,197.874,81.708,197.874z M81.708,183.975c2.454,0,4.45,1.996,4.45,4.449c0,2.454-1.996,4.45-4.45,4.45
			c-2.453,0-4.449-1.996-4.449-4.45C77.259,185.971,79.255,183.975,81.708,183.975z"/>
		<path d="M81.708,219.832c-5.21,0-9.449,4.239-9.449,9.449s4.239,9.45,9.449,9.45s9.45-4.239,9.45-9.45
			S86.919,219.832,81.708,219.832z M81.708,233.73c-2.453,0-4.449-1.996-4.449-4.45c0-2.453,1.996-4.449,4.449-4.449
			c2.454,0,4.45,1.996,4.45,4.449C86.158,231.734,84.162,233.73,81.708,233.73z"/>
		<path d="M16.505,155.487c6.869,2.271,7.646,5.618,8.821,10.686c0.598,2.578,4.273,2.578,4.871,0
			c1.952-8.416,4.833-9.368,8.821-10.686c2.279-0.753,2.284-3.993,0-4.747c-3.821-1.262-6.822-2.069-8.821-10.687
			c-0.599-2.573-4.274-2.566-4.871,0c-1.953,8.417-4.834,9.369-8.821,10.686C14.226,151.492,14.221,154.732,16.505,155.487z
			 M27.772,148.074c1.304,2.451,2.813,4.003,4.37,5.065c-1.634,1.099-3.088,2.607-4.323,4.889c-0.99-1.76-2.406-3.424-4.567-4.854
			C24.968,152.049,26.489,150.487,27.772,148.074z"/>
		<path d="M214.744,16.425c-3.821-1.262-6.821-2.069-8.821-10.687c-0.599-2.573-4.274-2.566-4.871,0
			c-1.953,8.417-4.834,9.369-8.821,10.686c-2.279,0.753-2.284,3.993,0,4.748c6.869,2.271,7.646,5.618,8.821,10.686
			c0.598,2.578,4.273,2.578,4.871,0c1.952-8.416,4.833-9.368,8.821-10.686C217.023,20.419,217.028,17.179,214.744,16.425z
			 M203.544,23.713c-0.99-1.76-2.406-3.424-4.567-4.854c1.717-1.125,3.238-2.687,4.521-5.101c1.304,2.451,2.813,4.003,4.37,5.065
			C206.233,19.923,204.779,21.432,203.544,23.713z"/>
		<path d="M239.495,51.039c-3.821-1.262-6.821-2.069-8.821-10.687c-0.599-2.573-4.274-2.566-4.871,0
			c-1.953,8.417-4.834,9.369-8.821,10.686c-2.279,0.753-2.284,3.993,0,4.748c6.869,2.271,7.646,5.618,8.821,10.686
			c0.598,2.578,4.273,2.578,4.871,0c1.952-8.416,4.833-9.368,8.821-10.686C241.774,55.033,241.779,51.793,239.495,51.039z
			 M228.295,58.327c-0.99-1.76-2.406-3.424-4.567-4.854c1.717-1.125,3.238-2.687,4.521-5.101c1.304,2.451,2.813,4.003,4.37,5.065
			C230.984,54.537,229.53,56.045,228.295,58.327z"/>
		<path d="M103.738,29.801c-8.132,0-14.748,6.616-14.748,14.748v10.317c0,1.381,1.119,2.5,2.5,2.5s2.5-1.119,2.5-2.5V44.549
			c0-5.375,4.373-9.748,9.748-9.748s9.748,4.373,9.748,9.748v7.817h-5.746c-2.659,0-4.823,2.164-4.823,4.823v28.588
			c0,2.659,2.164,4.823,4.823,4.823h40.521c2.659,0,4.823-2.164,4.823-4.823V57.189c0-2.66-2.164-4.823-4.823-4.823h-29.775v-7.817
			C118.485,36.417,111.87,29.801,103.738,29.801z M148.084,85.6h-40.167V57.366h40.167V85.6z"/>
		<path d="M124.117,78.404c0.977,0.977,2.563,0.974,3.536,0l10.757-10.758c0.977-0.976,0.977-2.559,0-3.535
			c-0.977-0.977-2.559-0.977-3.535,0l-8.99,8.99l-4.76-4.76c-0.977-0.977-2.56-0.976-3.536,0c-0.977,0.977-0.977,2.56,0,3.536
			L124.117,78.404z"/>
		<circle cx="165.58" cy="127.14" r="2.5"/>
		<path d="M75.84,50.88c0.293-1.36-0.574-2.682-1.91-2.97c-1.33-0.29-2.69,0.6-2.97,1.92c-0.29,1.35,0.57,2.68,1.92,2.97
			C74.179,53.103,75.554,52.237,75.84,50.88z"/>
	</g>
</g>
</svg>
