<?xml version="1.0" encoding="utf-8"?>
<!-- Generator: Adobe Illustrator 22.1.0, SVG Export Plug-In . SVG Version: 6.00 Build 0)  -->
<svg version="1.1" id="Layer_1" xmlns="http://www.w3.org/2000/svg" xmlns:xlink="http://www.w3.org/1999/xlink" x="0px" y="0px"
	 viewBox="0 0 512 512" style="enable-background:new 0 0 512 512;" xml:space="preserve">
<style type="text/css">
	.st0{fill:#6770E6;}
	.st1{fill:#5861C7;}
	.st2{fill:#FFEFE4;}
	.st3{fill:#D476E2;}
	.st4{fill:#EA82FA;}
	.st5{fill:#B665C2;}
	.st6{fill:#69EBFC;}
	.st7{fill:#FF8354;}
	.st8{fill:#333399;}
	.st9{fill:#E0734A;}
	.st10{fill:#FFAC8C;}
	.st11{fill:#382F8B;}
	.st12{fill:#C7FCFE;}
	.st13{fill:#EDD4C2;}
	.st14{fill:#8F95E6;}
	.st15{fill:#A1F1FC;}
	.st16{fill:#FFF7F2;}
	.st17{opacity:0.8;fill:#A1F1FC;}
	.st18{fill:#4C54AD;}
	.st19{fill:#5FD4E3;}
	.st20{fill:#FFE4D1;}
	.st21{fill:#5ED4E3;}
	.st22{fill:#56C1CF;}
	.st23{fill:#9FA5FF;}
	.st24{fill:#C46541;}
	.st25{fill:#FFCAB5;}
	.st26{fill:#5A62C9;}
	.st27{fill:#BABEFF;}
</style>
<g>
	<path id="XMLID_138_" class="st0" d="M503.285,450.75L8.721,450.757c-4.815,0-8.718-3.903-8.718-8.718l-0.004-315.612
		c0-4.815,3.903-8.718,8.718-8.718l494.564-0.007c4.815,0,8.718,3.903,8.718,8.718l0.004,315.612
		C512.003,446.846,508.1,450.75,503.285,450.75z"/>
	<path id="XMLID_137_" class="st8" d="M30.003,412.038l-0.003-255.612c0-4.815,3.903-8.718,8.718-8.718l434.564-0.006
		c4.815,0,8.718,3.903,8.718,8.718l0.003,255.612c0,4.815-3.903,8.718-8.718,8.718l-434.564,0.006
		C33.906,420.756,30.003,416.853,30.003,412.038z"/>
	<rect id="XMLID_136_" x="199.151" y="450.753" class="st1" width="113.704" height="39.282"/>
	<path id="XMLID_135_" class="st0" d="M341.878,511.998L170.13,512c-6.065,0-10.982-4.917-10.982-10.982v0
		c0-6.065,4.917-10.982,10.982-10.982l171.747-0.002c6.065,0,10.982,4.917,10.982,10.982v0
		C352.859,507.081,347.943,511.998,341.878,511.998z"/>
	<path id="XMLID_134_" class="st1" d="M341.877,501.998L170.13,502c-4.263,0-7.949-2.433-9.77-5.982
		c-0.77,1.501-1.212,3.197-1.212,5v0c0,6.065,4.917,10.982,10.982,10.982l171.747-0.002c6.065,0,10.982-4.917,10.982-10.982v0
		c0-1.803-0.443-3.499-1.212-5C349.827,499.564,346.14,501.998,341.877,501.998z"/>
	<path id="XMLID_133_" class="st16" d="M416.402,0H95.162c-7.277,0-13.176,5.899-13.176,13.176v407.58h347.592V13.176
		C429.578,5.899,423.678,0,416.402,0z"/>
	<path id="XMLID_132_" class="st3" d="M416.402,0H95.162c-7.277,0-13.176,5.899-13.176,13.176v21.523h347.592V13.176
		C429.578,5.899,423.678,0,416.402,0z"/>
	<path class="st4" d="M416.402,0H95.162c-7.277,0-13.176,5.899-13.176,13.176v16C81.986,21.899,87.885,16,95.162,16h321.24
		c7.277,0,13.176,5.899,13.176,13.176v-16C429.577,5.899,423.679,0,416.402,0z"/>
	
		<rect x="237.635" y="123.975" transform="matrix(0.7071 -0.7071 0.7071 0.7071 -85.6322 249.1607)" class="st0" width="40.625" height="207.945"/>
	<path class="st1" d="M216.562,197.274l72.059,72.059c2.958,2.958,7.754,2.958,10.711,0h0c2.958-2.958,2.958-7.754,0-10.711
		l-72.059-72.059c-2.958-2.958-7.754-2.958-10.711,0l0,0C213.604,189.52,213.604,194.316,216.562,197.274z"/>
	<path class="st3" d="M145.879,86.835l32.7,32.7l-6.138,22.906l-22.906,6.138l-32.7-32.7c-6.106,17.012-2.352,36.768,11.276,50.396
		c18.823,18.823,49.341,18.823,68.164,0c18.823-18.823,18.823-49.341,0-68.164C182.647,84.483,162.891,80.73,145.879,86.835z"/>
	<path class="st3" d="M366.121,365.165l-32.7-32.7l6.138-22.906l22.906-6.138l32.7,32.7c6.106-17.012,2.352-36.768-11.276-50.396
		c-18.823-18.823-49.341-18.823-68.164,0c-18.823,18.823-18.823,49.341,0,68.164C329.353,367.517,349.109,371.27,366.121,365.165z"
		/>
	<polygon class="st0" points="386.296,106.418 375.582,95.704 356.107,105.442 354.645,116.639 354.645,116.64 250.939,220.346 
		261.653,231.059 365.359,127.353 376.558,125.893 	"/>
	<path class="st7" d="M268.103,232.399l9.008-9.008c1.411-1.411,1.411-3.7,0-5.111l-13.391-13.391c-1.411-1.411-3.7-1.411-5.111,0
		l-9.008,9.008c-1.411,1.411-3.7,1.411-5.111,0l0,0c-1.411-1.411-3.7-1.411-5.111,0L131.654,321.62
		c-7.933,7.933-7.933,20.794,0,28.726h0c7.933,7.933,20.794,7.933,28.726,0l107.724-107.724c1.411-1.411,1.411-3.7,0-5.111l0,0
		C266.692,236.099,266.692,233.81,268.103,232.399z"/>
	<path class="st9" d="M232.682,231.79l-90.561,90.561c-1.479,1.479-1.479,3.877,0,5.356h0c1.479,1.479,3.877,1.479,5.356,0
		l90.561-90.561c1.479-1.479,1.479-3.877,0-5.356h0C236.559,230.311,234.161,230.311,232.682,231.79z"/>
	<path class="st9" d="M244.854,243.962l-90.561,90.561c-1.479,1.479-1.479,3.877,0,5.356l0,0c1.479,1.479,3.877,1.479,5.356,0
		l90.561-90.561c1.479-1.479,1.479-3.877,0-5.356v0C248.731,242.483,246.333,242.483,244.854,243.962z"/>
</g>
</svg>
