<svg xmlns="http://www.w3.org/2000/svg" viewBox="0 0 64 64"><defs><style>.cls-1{fill:#6e6e79;}.cls-2{fill:#7c828d;}.cls-3{fill:#b2b9bf;}.cls-4{fill:#b5e0f0;}.cls-5{fill:#00b39b;}.cls-6{fill:#b8453d;}.cls-7{fill:#fc9b28;}.cls-8{fill:#545465;}.cls-9{fill:#029e84;}.cls-10{fill:#29394a;}</style></defs><title>02-control panal</title><g id="_02-control_panal" data-name="02-control panal"><path class="cls-1" d="M63,57v4a2.006,2.006,0,0,1-2,2H3a2.006,2.006,0,0,1-2-2V57H63Z"/><path class="cls-2" d="M13,23V57H1V25a2.006,2.006,0,0,1,2-2Z"/><path class="cls-2" d="M63,25V57H51V23H61A2.006,2.006,0,0,1,63,25Z"/><path class="cls-3" d="M51,23V57H13V23H51Zm-3,8a4,4,0,0,0-8,0c0,2.21,1.79,2,4,2S48,33.21,48,31ZM46,41V37H42v4Zm-8,0V37H34v4ZM36,31a4,4,0,0,0-8,0c0,2.21,1.79,2,4,2S36,33.21,36,31ZM30,41V37H26v4ZM24,31a4,4,0,0,0-8,0c0,2.21,1.79,2,4,2S24,33.21,24,31ZM22,41V37H18v4Z"/><path class="cls-4" d="M44,33c-2.21,0-4,.21-4-2a4,4,0,0,1,8,0C48,33.21,46.21,33,44,33Z"/><path class="cls-4" d="M32,33c-2.21,0-4,.21-4-2a4,4,0,0,1,8,0C36,33.21,34.21,33,32,33Z"/><path class="cls-4" d="M20,33c-2.21,0-4,.21-4-2a4,4,0,0,1,8,0C24,33.21,22.21,33,20,33Z"/><rect class="cls-5" x="42" y="37" width="4" height="4"/><rect class="cls-5" x="26" y="37" width="4" height="4"/><rect class="cls-6" x="34" y="37" width="4" height="4"/><rect class="cls-6" x="18" y="37" width="4" height="4"/><path class="cls-6" d="M52,10H47V5A5,5,0,0,1,52,10Z"/><path class="cls-7" d="M47,10h5a5,5,0,1,1-5-5Z"/><rect class="cls-8" x="14" y="19" width="6" height="4"/><rect class="cls-8" x="44" y="19" width="6" height="4"/><path class="cls-3" d="M30,15v2a2.006,2.006,0,0,1-2,2H6a2.006,2.006,0,0,1-2-2V15H30Z"/><path class="cls-9" d="M25,15H17V1H28a2.006,2.006,0,0,1,2,2V15Z"/><path class="cls-5" d="M13,15H4V3A2.006,2.006,0,0,1,6,1H17V15Z"/><path class="cls-5" d="M60,3V17a2.006,2.006,0,0,1-2,2H36a2.006,2.006,0,0,1-2-2V3a2.006,2.006,0,0,1,2-2H58A2.006,2.006,0,0,1,60,3Zm-8,7a5,5,0,1,0-5,5A5,5,0,0,0,52,10Z"/><path class="cls-10" d="M61,22H51V20h7a3,3,0,0,0,3-3V3a3,3,0,0,0-3-3H36a3,3,0,0,0-3,3V17a3,3,0,0,0,3,3h7v2H21V20h7a3,3,0,0,0,3-3V3a3,3,0,0,0-3-3H6A3,3,0,0,0,3,3V17a3,3,0,0,0,3,3h7v2H3a3,3,0,0,0-3,3V61a3,3,0,0,0,3,3H61a3,3,0,0,0,3-3V25A3,3,0,0,0,61,22Zm-9,2h9a1,1,0,0,1,1,1V56H52ZM50,56H14V24H50ZM35,17V3a1,1,0,0,1,1-1H58a1,1,0,0,1,1,1V17a1,1,0,0,1-1,1H36A1,1,0,0,1,35,17Zm10,3h4v2H45ZM6,2H28a1,1,0,0,1,1,1V14H26V6H24v8H22V8H20v6H18V4H16V14H14V6H12v8H10V8H8v6H5V3A1,1,0,0,1,6,2ZM5,17V16H29v1a1,1,0,0,1-1,1H6A1,1,0,0,1,5,17Zm10,3h4v2H15ZM2,25a1,1,0,0,1,1-1h9V56H2ZM61,62H3a1,1,0,0,1-1-1V58H62v3A1,1,0,0,1,61,62Z"/><path class="cls-10" d="M15.767,33.142c.89.882,2.255.87,3.71.861L20,34l.523,0,.484,0a4.373,4.373,0,0,0,3.226-.863A2.894,2.894,0,0,0,25,31a5,5,0,0,0-10,0A2.894,2.894,0,0,0,15.767,33.142ZM20,28a3,3,0,0,1,3,3,1.129,1.129,0,0,1-.176.722A3.4,3.4,0,0,1,21,32V30H19v2a3.391,3.391,0,0,1-1.824-.282A1.129,1.129,0,0,1,17,31,3,3,0,0,1,20,28Z"/><path class="cls-10" d="M31.477,34,32,34l.523,0,.484,0a4.373,4.373,0,0,0,3.226-.863A2.894,2.894,0,0,0,37,31a5,5,0,0,0-10,0,2.894,2.894,0,0,0,.767,2.142C28.656,34.024,30.025,34.012,31.477,34ZM32,28a3,3,0,0,1,3,3,1.129,1.129,0,0,1-.176.722A3.4,3.4,0,0,1,33,32V30H31v2a3.4,3.4,0,0,1-1.824-.282A1.129,1.129,0,0,1,29,31,3,3,0,0,1,32,28Z"/><path class="cls-10" d="M43.477,34,44,34l.523,0,.484,0a4.373,4.373,0,0,0,3.226-.863A2.894,2.894,0,0,0,49,31a5,5,0,0,0-10,0,2.894,2.894,0,0,0,.767,2.142C40.657,34.024,42.024,34.012,43.477,34ZM44,28a3,3,0,0,1,3,3,1.129,1.129,0,0,1-.176.722A3.4,3.4,0,0,1,45,32V30H43v2a3.4,3.4,0,0,1-1.824-.282A1.129,1.129,0,0,1,41,31,3,3,0,0,1,44,28Z"/><path class="cls-10" d="M47,4a6,6,0,1,0,6,6A6.006,6.006,0,0,0,47,4Zm3.858,5H48V6.142A4,4,0,0,1,50.858,9ZM47,14a3.992,3.992,0,0,1-1-7.858V10a1,1,0,0,0,1,1h3.858A4,4,0,0,1,47,14Z"/><path class="cls-10" d="M22,42a1,1,0,0,0,1-1V37a1,1,0,0,0-1-1H18a1,1,0,0,0-1,1v4a1,1,0,0,0,1,1Zm-3-4h2v2H19Z"/><path class="cls-10" d="M25,41a1,1,0,0,0,1,1h4a1,1,0,0,0,1-1V37a1,1,0,0,0-1-1H26a1,1,0,0,0-1,1Zm2-3h2v2H27Z"/><path class="cls-10" d="M33,37v4a1,1,0,0,0,1,1h4a1,1,0,0,0,1-1V37a1,1,0,0,0-1-1H34A1,1,0,0,0,33,37Zm2,1h2v2H35Z"/><path class="cls-10" d="M46,36H42a1,1,0,0,0-1,1v4a1,1,0,0,0,1,1h4a1,1,0,0,0,1-1V37A1,1,0,0,0,46,36Zm-1,4H43V38h2Z"/><rect class="cls-10" x="17" y="48" width="6" height="2"/><rect class="cls-10" x="17" y="44" width="6" height="2"/><rect class="cls-10" x="25" y="48" width="6" height="2"/><rect class="cls-10" x="25" y="44" width="6" height="2"/><rect class="cls-10" x="33" y="48" width="6" height="2"/><rect class="cls-10" x="33" y="44" width="6" height="2"/><rect class="cls-10" x="41" y="48" width="6" height="2"/><rect class="cls-10" x="41" y="44" width="6" height="2"/><rect class="cls-10" x="17" y="52" width="30" height="2"/><rect class="cls-10" x="54" y="27" width="6" height="2"/><rect class="cls-10" x="54" y="35" width="6" height="2"/><rect class="cls-10" x="54" y="43" width="6" height="2"/><rect class="cls-10" x="54" y="51" width="6" height="2"/><rect class="cls-10" x="4" y="27" width="6" height="2"/><rect class="cls-10" x="4" y="35" width="6" height="2"/><rect class="cls-10" x="4" y="43" width="6" height="2"/><rect class="cls-10" x="4" y="51" width="6" height="2"/></g></svg>